<svg width="824" height="908" viewBox="0 0 824 908" fill="none" xmlns="http://www.w3.org/2000/svg">
<g id="Black">
	<rect stroke="#FFFFFF" fill="#000000" stroke-miterlimit="10" width="824" height="908"/>
</g>
<g id="Color">
<path d="M73.5 907C49 907 24.5 907 0 907C0 604.67 0 302.33 0 0C274.67 0 549.33 0 824 0C824 302.33 824 604.67 824 907C784.33 907 744.67 907 705 907C705.64 906.29 706.22 905.5 706.94 904.89C727.66 887.47 748.39 870.07 769.13 852.68C773.26 849.21 777.41 845.77 781.63 842.26C784.42 845.88 787 849.36 789.72 852.73C792.86 856.62 796.05 860.47 799.38 864.18C800.1 864.99 802.06 865.88 802.57 865.51C808.43 861.29 814.14 856.86 819.83 852.41C821.3 851.26 821.28 849.73 820.23 848.2C818.25 845.32 816.43 842.32 814.29 839.56C803.32 825.41 792.32 811.28 781.21 797.24C776.98 791.89 772.41 786.8 768.01 781.57C766.38 779.63 764.78 779.09 762.56 780.88C759.06 783.7 755.22 786.09 751.82 789.01C746.79 793.34 746.86 793.92 750.92 799.14C755.21 804.66 759.66 810.07 763.76 815.73C766.98 820.17 766.88 820.51 762.77 824.15C750.68 834.87 738.67 845.68 726.32 856.09C714.48 866.07 702.29 875.63 690.18 885.28C687.35 887.54 686.72 887.49 684.37 884.79C680.39 880.2 676.67 875.39 672.79 870.72C670.72 868.23 668.62 865.74 666.34 863.44C665.68 862.77 663.87 862.17 663.39 862.56C658.9 866.1 654.5 869.77 650.25 873.6C648.81 874.9 648.63 876.85 649.67 878.68C651.07 881.13 652.28 883.73 653.95 885.99C659.2 893.06 664.64 900 670 907C647.5 907 625 907 602.5 907C596.39 892.53 590.88 877.77 584.02 863.67C573.28 841.61 561.59 820.02 550.41 798.18C548.8 795.04 547.16 791.72 546.58 788.3C543.9 772.63 541.17 757 537.11 741.6C532.89 725.6 524.38 712.86 510.47 703.75C502.77 698.71 494.62 694.57 485.94 691.6C481.85 690.2 478.56 687.73 475.77 684.8C469.27 678 463.25 670.75 456.86 663.85C453.1 659.79 450.9 655.1 449.9 649.75C449.36 646.89 448.86 644.02 448.41 641.51C459.22 645.78 469.69 650.22 480.38 654.06C489.33 657.27 498.59 659.43 508.24 658.99C520.29 658.44 530.47 649.39 531.87 637.65C532.45 632.78 534.05 628.47 536.84 624.51C539.14 621.24 541.32 617.89 543.66 614.65C555.18 598.63 566.83 582.71 578.21 566.6C582.73 560.2 586.82 553.45 586.9 545.19C586.95 539.95 586.9 534.7 586.74 529.45C586.53 522.79 586.1 516.14 585.93 509.48C585.89 508.08 586.22 506.38 587.03 505.31C592.74 497.75 595.96 489.5 595.7 479.83C595.55 474.44 596.44 469.04 596.74 463.63C597.72 446.23 598.15 428.83 596.09 411.48C595.78 408.84 595.84 406.51 597.63 404.27C598.48 403.21 598.71 401.51 598.87 400.07C599.32 395.93 599.8 391.78 599.91 387.63C600.59 361.9 595.34 337.49 583.11 314.76C571.97 294.05 556.13 277.95 535.2 267.02C513.41 255.64 489.99 251.61 465.68 251.92C457.71 252.02 449.75 252.64 441.64 253.03C441.53 252.75 441.35 252.29 441.15 251.84C436.51 241.34 429.45 233.57 417.79 230.78C414.87 230.08 412.13 229.49 409.62 231.65C407.3 227.7 407.03 227.66 401.34 225.08C385.14 217.75 369.52 218.25 354.64 228.41C352.03 230.19 349.26 231.22 346.29 232.05C334.1 235.45 322.12 239.42 310.66 244.89C292.79 253.42 278.41 265.64 269.27 283.52C263.11 295.56 259.54 308.42 257.01 321.62C256.26 325.52 255.67 329.49 254.48 333.27C253.36 336.82 251.44 340.1 250.05 343.58C239.81 369.2 232.25 395.66 225.59 422.37C221.39 439.23 217.91 456.27 213.92 473.19C211.37 484.01 210.62 494.87 211.88 505.91C213.15 517.04 215.86 527.85 219.5 538.4C223.64 550.38 228.08 562.25 232.39 574.17C232.63 574.15 232.87 574.12 233.11 574.1C239.26 558.68 245.42 543.27 251.57 527.85C252 529.09 251.97 530.17 251.86 531.24C250.58 543.83 249.58 556.46 247.93 569C245.82 585 244.03 601.11 240.59 616.84C233.39 649.81 227.2 682.88 224.83 716.6C222.86 744.65 222.72 772.69 224.25 800.75C224.39 803.39 224.51 806.1 224.11 808.69C222.88 816.67 221.12 824.56 220.06 832.56C217.75 849.97 215.65 867.41 213.67 884.86C212.84 892.21 212.54 899.63 212.01 907.01C174.51 907.01 137.01 907.01 99.51 907.01C103.59 892.72 105.14 878.14 104.24 863.31C103.79 855.88 102.55 848.59 99.45 841.75C96.68 835.65 92.64 830.73 86.07 828.38C80.08 826.23 75.25 828.13 72.78 833.98C71.66 836.63 70.73 839.53 70.58 842.37C70.25 848.4 70.48 854.47 70.48 860.84C69.14 860.09 68.07 859.48 67 858.89C61.37 855.81 55.48 853.68 48.95 853.94C40.93 854.26 35.77 858.61 32.33 865.57C28.97 872.37 30.61 878.32 35.11 883.84C40.53 890.5 47.6 895.06 55.15 898.83C61.12 901.81 67.37 904.29 73.5 907ZM126.44 517.96C145.96 520.63 165.16 523.25 184.7 525.92C184.38 525.05 184.26 524.66 184.1 524.29C166.81 482.85 149.51 441.42 132.27 399.97C131.61 398.38 130.72 398.01 129.11 397.94C107.8 397.05 86.5 396.04 65.19 395.17C59.98 394.96 54.76 395.14 49.45 395.14C60.37 420.28 71.42 445.74 82.62 471.52C68.64 469.74 55.17 468.02 40.94 466.2C76.46 516.01 111.52 565.16 146.57 614.32C146.86 614.17 147.14 614.01 147.43 613.86C140.47 582.04 133.5 550.23 126.44 517.96ZM642.69 303.09C642.77 303.28 642.85 303.46 642.94 303.65C660.9 301.14 678.85 298.62 697.04 296.07C703.92 313.07 710.78 330.01 717.86 347.5C718.16 346.24 718.34 345.6 718.45 344.95C721.33 328.56 724.24 312.18 727.05 295.77C727.41 293.69 728.03 292.68 730.4 292.55C740.88 291.98 751.35 291.19 761.81 290.46C768.65 289.98 775.5 289.47 782.34 288.97C782.37 288.82 782.4 288.66 782.44 288.51C766.33 279.93 750.22 271.35 734.05 262.74C738.47 244.95 742.84 227.38 747.21 209.8C745.78 210.34 744.93 211.1 744.1 211.9C732.47 223.12 720.83 234.33 709.25 245.6C707.92 246.9 707.03 247.2 705.29 246.1C691.02 237.07 676.66 228.16 662.33 219.23C661.82 218.91 661.26 218.7 660.3 218.23C668.53 235.12 676.53 251.53 684.53 267.96C670.45 279.77 656.57 291.43 642.69 303.09ZM652.83 666.53C662.11 676.74 671.2 686.74 680.5 696.97C680.87 695.98 681.12 695.39 681.31 694.78C690.23 666.04 699.06 637.28 708.17 608.6C709.25 605.19 708.45 603.47 706.01 601.3C696.5 592.83 687.18 584.14 677.79 575.54C674.14 572.2 670.48 568.87 666.6 565.34C661.05 584.17 655.61 602.62 650.05 621.45C643.27 614.13 636.81 607.17 630.01 599.83C626.75 642.53 623.53 684.61 620.31 726.69C620.63 726.77 620.95 726.85 621.26 726.93C631.71 706.93 642.16 686.94 652.83 666.53ZM112.78 99.75C113.13 97.09 113.44 94.71 113.74 92.34C114.38 87.39 115.29 82.46 115.57 77.49C115.86 72.2 112.82 69.05 107.66 68.4C103.28 67.85 99.27 69.04 95.33 70.8C93.8 71.49 93.15 72.4 92.91 74.11C90.06 94.12 87.09 114.12 84.17 134.12C83.43 139.18 82.73 144.24 82.01 149.33C90.07 149.33 97.86 149.33 105.74 149.33C107.21 138.91 108.67 128.65 110.13 118.31C117.01 118.31 123.71 118.31 130.73 118.31C129.21 128.75 127.72 139 126.22 149.33C134.26 149.33 142.04 149.33 149.86 149.33C151.17 140.11 152.45 131.05 153.75 121.99C155.79 107.66 157.89 93.34 159.87 79C160.69 73.06 157.33 68.7 151.36 68.48C148.14 68.36 144.85 69.3 141.63 69.96C138.52 70.59 136.86 72.42 136.89 75.85C136.91 78.07 136.3 80.29 135.98 82.52C135.14 88.25 134.29 93.99 133.44 99.76C126.52 99.75 119.88 99.75 112.78 99.75ZM388.9 76.85C375.12 67.51 360.8 65.24 345.79 71.89C329.08 79.3 328.75 103.96 339.68 112.75C343.43 115.77 348.07 117.67 352.33 120.04C354.21 121.09 356.32 121.79 358.03 123.06C361.06 125.3 360.54 129.09 357.13 130.67C356.17 131.11 355.09 131.44 354.03 131.55C345.77 132.37 338.15 130.82 331.56 125.11C329.25 129.76 327.05 134.42 324.64 138.96C323.74 140.66 324.09 141.53 325.53 142.65C338.54 152.85 360.68 153.39 374.07 143.75C384.85 135.99 388.36 119.77 381.56 108.96C377.81 103 371.89 100.04 365.61 97.55C363.23 96.61 360.81 95.57 358.74 94.11C356.08 92.23 356.41 89.25 359.45 88.09C361.46 87.32 363.95 86.85 365.97 87.33C369.75 88.23 373.35 89.93 377.42 91.44C380.82 87.11 384.72 82.16 388.9 76.85ZM617.52 129.19C617.52 120.12 617.58 111.04 617.5 101.97C617.45 96.14 614.24 92.02 608.5 91.56C604.29 91.22 599.92 91.93 595.71 92.69C592.05 93.35 592.09 93.78 592.63 97.41C594.6 110.58 596.61 123.74 598.42 136.93C599.11 141.95 600.31 146.43 605.58 148.64C601.55 153.94 596.67 157.82 590.63 160.51C593.48 165.86 596.23 171.03 599.01 176.26C606.96 172.85 613 167.52 618.24 161.32C632.67 144.26 642.06 124.56 648.01 103.14C648.8 100.3 649.26 97.36 649.92 94.27C642.46 93.16 635.44 92.12 628.3 91.06C625.6 104.22 622.75 117.01 617.52 129.19ZM748.08 437.38C748.08 436.85 748.07 436.37 748.08 435.88C748.21 431.06 748.57 426.23 748.43 421.42C748.27 415.82 747.32 410.33 744.52 405.32C741.93 400.68 737.4 398.39 732.32 399.94C728.97 400.96 725.57 402.49 722.81 404.6C715.93 409.87 712.77 417.56 711.01 425.73C705.96 449.21 708.76 472.22 715.63 494.93C716.07 496.4 716.88 496.64 718.21 496.36C723.57 495.22 729.03 494.4 734.3 492.95C750.75 488.43 766.51 482.24 780.32 471.96C783.63 469.5 786.77 466.62 789.36 463.43C798.81 451.8 792.97 434.48 778.43 430.48C771.51 428.58 764.87 429.91 758.43 432.47C754.94 433.87 751.59 435.7 748.08 437.38ZM443.25 146.88C442.91 144.28 442.3 142.16 442.42 140.08C442.64 136.35 443.23 132.64 443.77 128.94C445.14 119.55 446.63 110.19 447.94 100.79C448.84 94.37 445.41 90.57 438.9 91.18C435.14 91.53 431.42 92.66 427.77 93.73C426.88 93.99 425.89 95.31 425.69 96.29C424.96 99.96 424.65 103.71 423.98 107.39C422.75 114.17 421.45 120.94 419.99 127.68C419.69 129.05 418.77 130.5 417.71 131.41C416.92 132.09 415.3 132.39 414.32 132.05C413.6 131.8 413.02 130.29 412.92 129.28C412.77 127.73 412.99 126.12 413.23 124.56C414.43 116.66 415.76 108.79 416.91 100.88C417.86 94.41 414.51 90.6 408 91.18C404.15 91.52 400.39 92.81 396.58 93.65C395.14 93.97 394.66 94.85 394.47 96.28C393.61 102.8 392.53 109.28 391.71 115.81C390.86 122.57 389.79 129.35 389.62 136.14C389.41 144.17 393.71 149.39 400.48 150.39C406.71 151.3 412.21 149.73 416.57 144.96C417.67 143.75 418.71 142.49 419.88 141.12C420.02 141.82 420.11 142.31 420.22 142.8C421.4 148.28 424.52 150.73 430.1 150.56C434.95 150.42 439.35 148.78 443.25 146.88ZM163.25 695.94C163.11 695.87 162.97 695.8 162.83 695.73C162.35 696.16 161.87 696.58 161.4 697.03C155.4 702.8 149.37 708.55 143.43 714.38C142.34 715.45 141.62 715.6 140.28 714.74C133.34 710.3 126.33 705.97 119.34 701.61C118.69 701.2 117.98 700.88 116.76 700.22C121.25 709.46 125.44 718.09 129.67 726.8C122.15 733.13 114.79 739.33 107.43 745.53C107.53 745.66 107.62 745.79 107.72 745.92C117.26 744.59 126.79 743.25 136.39 741.91C140.08 750.99 143.7 759.88 147.32 768.77C149.39 759.81 150.99 751.06 152.45 742.28C152.72 740.66 153.27 740.04 154.95 739.96C160.52 739.69 166.09 739.27 171.65 738.88C175.03 738.64 178.4 738.35 182.36 738.04C181.43 737.46 181.03 737.19 180.61 736.96C173.13 732.96 165.67 728.93 158.14 725.01C156.67 724.25 156.32 723.52 156.78 721.91C157.92 717.91 158.84 713.85 159.83 709.82C160.98 705.21 162.11 700.57 163.25 695.94ZM81.48 234.63C80.44 234.02 79.74 233.59 79.03 233.19C72.85 229.72 66.39 227.17 59.15 227.53C51.19 227.92 45.97 232.32 42.46 239.2C39.05 245.89 40.24 252.02 44.81 257.53C47.28 260.51 50.1 263.36 53.22 265.63C68.98 277.1 86.84 283.59 105.9 287.01C109.72 287.69 109.79 287.55 110.9 283.79C115.2 269.22 117.02 254.32 116.38 239.16C116.06 231.49 114.97 223.91 112.01 216.74C108.86 209.12 104.18 203.01 95.7 200.86C91.27 199.74 87.27 200.98 85.23 205.03C83.47 208.52 82.03 212.44 81.65 216.28C81.05 222.2 81.48 228.23 81.48 234.63ZM192 285.3C194.24 276.26 196.43 267.42 198.62 258.58C198.47 258.5 198.32 258.42 198.17 258.34C191.59 264.67 185.01 271 178.34 277.41C170.45 272.5 162.67 267.66 154.9 262.82C158.3 270.81 161.95 278.45 165.73 286.03C166.45 287.47 166.46 288.31 165.09 289.33C162.95 290.91 160.99 292.73 158.95 294.44C154.52 298.16 150.09 301.89 145.27 305.94C146.45 305.94 147.08 306.01 147.7 305.93C155.28 304.86 162.87 303.83 170.43 302.65C172.39 302.34 173.34 302.72 174.09 304.74C176.6 311.43 179.37 318.02 182.06 324.64C182.51 325.76 183.01 326.87 183.76 328.63C185.39 319.45 186.94 311.05 188.35 302.62C188.61 301.05 189.24 300.57 190.75 300.49C196.32 300.2 201.89 299.8 207.45 299.41C210.35 299.21 213.24 298.93 216.14 298.69C216.15 298.52 216.15 298.34 216.16 298.17C208.17 293.92 200.19 289.67 192 285.3ZM172.7 69.35C168.94 96.12 165.22 122.69 161.39 149.96C173.18 150.09 184.65 150.5 196.11 150.24C202.53 150.09 208.73 148.16 214.4 144.93C221.9 140.66 226.59 134.44 227.35 125.68C228.01 118.02 225.24 111.89 218.6 107.73C225.49 101.05 226.69 99.35 228.19 94.21C231.07 84.38 228.16 76.21 219.89 72.01C217.05 70.57 213.81 69.28 210.69 69.13C201.48 68.68 192.25 68.78 183.02 68.79C179.64 68.79 176.25 69.15 172.7 69.35ZM478.54 99.59C478.35 98.79 478.18 98.24 478.08 97.68C477.17 92.75 474.5 90.62 469.49 91.18C467.02 91.45 464.62 92.23 462.16 92.6C458.31 93.18 456.93 95.26 456.43 99.17C453.89 118.89 450.99 138.57 448.22 158.26C447.46 163.68 446.72 169.11 445.95 174.69C453.73 174.69 461.27 174.69 468.9 174.69C469.93 167.31 471.02 160.07 471.89 152.8C472.11 150.91 472.78 150.49 474.53 150.54C481.06 150.7 487.27 149.33 492.96 146.04C506.06 138.49 514.02 119.32 510.13 104.66C508.32 97.85 504.2 93.07 497.2 91.53C490.1 89.96 484.28 92.44 479.83 98.18C479.47 98.62 479.07 99 478.54 99.59ZM231.76 149.96C242.53 150.11 252.94 150.81 263.28 150.24C275.05 149.59 285.36 144.9 293.25 135.75C300.89 126.89 303.83 116.3 304.37 104.89C305.32 84.52 295.27 71.71 275.09 68.97C267.01 67.87 258.65 68.77 250.42 68.85C247.97 68.87 245.52 69.21 243.06 69.4C239.29 96.25 235.57 122.74 231.76 149.96ZM703.07 147.4C702.88 143.35 702.3 140.2 702.68 137.18C703.86 127.77 705.41 118.41 706.8 109.03C707.61 103.54 708.39 98.04 709.2 92.48C708.55 92.3 708.16 92.12 707.77 92.11C699.45 91.76 691.13 91.16 682.81 91.17C674.69 91.18 667.13 93.56 660.97 99.05C649.95 108.86 646.61 121.6 648.34 135.7C649.25 143.12 653.82 148.45 661.36 150.16C668.6 151.8 674.64 149.34 679.1 143.31C679.34 142.99 679.38 142.54 679.68 141.69C682.54 149.45 685.1 151.37 691.88 150.4C695.92 149.81 699.84 148.29 703.07 147.4ZM512.5 149.36C520.34 149.36 527.88 149.36 535.49 149.36C536.17 144.71 536.65 140.15 537.53 135.67C538.86 128.92 540.17 122.13 542.09 115.54C543.37 111.14 547.17 110.02 551.34 112C551.93 112.28 552.49 112.61 553.25 113.02C556.18 106.45 559.07 99.98 561.99 93.44C557.99 91.57 554.22 90.56 550.11 91.44C545.77 92.37 543.54 95.79 541.21 99.27C538.42 91.79 535.87 90.27 528.2 91.53C526.08 91.88 524.03 92.63 521.93 93.15C520.52 93.5 520.01 94.32 519.83 95.78C519.06 102.05 518.12 108.31 517.26 114.57C515.66 126.1 514.1 137.64 512.5 149.36ZM582.25 146.91C581.94 144.11 581.24 141.72 581.5 139.43C582.41 131.17 583.63 122.94 584.76 114.7C585.77 107.3 586.81 99.91 587.89 92.14C586.83 92.14 586.03 92.14 585.23 92.14C579.32 92.14 573.41 92.25 567.5 92.08C565.28 92.01 564.72 92.84 564.47 94.85C563.31 104.17 561.96 113.47 560.74 122.79C559.92 129.05 558.89 135.31 558.57 141.61C558.28 147.18 561.8 150.33 567.38 150.57C572.87 150.82 577.83 149.09 582.25 146.91ZM715.37 118.84C723.15 118.84 730.51 118.84 737.9 118.84C740.29 102.32 742.64 85.98 745.04 69.36C737.45 69.36 730.14 69.33 722.84 69.44C722.37 69.45 721.61 70.58 721.51 71.26C720.15 81.14 718.87 91.04 717.6 100.93C716.85 106.86 716.13 112.78 715.37 118.84ZM723.08 150.58C731.83 150.56 737.15 145.16 737.14 136.32C737.14 129.18 732.56 124.91 724.93 124.91C716.22 124.92 710.88 130.35 710.92 139.2C710.94 146.47 715.36 150.6 723.08 150.58ZM578.21 86.14C586.16 86.08 591.11 80.94 591.08 72.78C591.05 66.27 586.78 62.43 579.64 62.5C571.87 62.58 566.63 68 566.66 75.92C566.69 82.37 571.01 86.19 578.21 86.14Z" fill="white" stroke="black"/>
<path d="M371.5 907C318.67 907 265.83 907 213 907C213.21 903.35 213.23 899.67 213.65 896.04C216.23 873.71 218.84 851.39 221.58 829.08C222.29 823.35 223.52 817.68 224.51 811.98C224.62 812 224.74 812.02 224.85 812.04C225.83 822.34 226.8 832.64 227.78 842.95C228.71 842.15 229.11 841.34 229.47 840.52C234.98 827.5 240.41 814.45 246.01 801.47C252.69 786 260.34 771.06 270.78 757.71C271.19 757.19 271.68 756.72 272.3 756.04C276.68 777.28 282.27 797.65 293.25 816.45C293.74 815.84 293.92 815.72 293.92 815.6C293.91 815.1 293.88 814.61 293.81 814.12C291.42 797.17 291.33 780.25 294.55 763.39C297.81 746.29 304.14 730.53 315.12 716.84C319.35 711.56 324.13 706.86 329.99 702.74C329.84 703.59 329.78 704.06 329.68 704.52C325.23 724.75 320.76 744.98 316.36 765.22C316.21 765.89 316.71 766.7 316.9 767.45C317.42 766.86 318.21 766.35 318.43 765.66C321.47 756.02 326.23 747.3 332.43 739.36C346.82 720.92 365.4 708.03 386.73 698.93C417.48 685.81 449.19 682.1 481.62 691.22C496.46 695.39 510.01 702.67 521.08 713.83C521.37 714.12 521.55 714.53 521.7 714.76C514.9 714.76 508.12 714.12 501.49 714.89C486.32 716.64 472.39 722.4 459.2 729.9C429.95 746.5 407.3 769.72 390.77 798.93C382.22 814.03 376.03 829.96 373.89 847.38C371.44 867.2 371.13 887.08 371.5 907Z" fill="white" stroke="black"/>
<path d="M557.5 907C495.83 907 434.17 907 372.5 907C372.13 889.42 372.22 871.85 374.07 854.34C375.18 843.9 376.69 833.52 380.41 823.62C391.28 794.75 408.55 770.31 431.91 750.24C448.95 735.6 467.89 724.22 489.72 718.2C500.32 715.28 511.09 713.77 522.03 716.38C523.04 716.62 524.13 717.3 524.8 718.1C530.54 724.85 533.57 732.95 535.9 741.33C543.34 768.05 546.76 795.47 549.94 822.92C551.8 838.96 553.29 855.05 554.75 871.13C555.84 883.08 556.6 895.04 557.5 907Z" fill="white" stroke="black"/>
<path d="M703 907C692.5 907 682 907 671.5 907C668.01 902.75 664.36 898.63 661.09 894.22C657.67 889.62 654.47 884.84 651.44 879.97C649.35 876.6 649.49 875.2 652.4 872.52C655.81 869.37 659.57 866.58 663.29 863.79C663.77 863.43 665.27 863.71 665.77 864.21C667.71 866.14 669.49 868.24 671.23 870.36C675.4 875.44 679.38 880.69 683.72 885.63C686.38 888.67 687.16 888.53 690.51 886.28C691.62 885.54 692.74 884.81 693.76 883.96C711.57 869.18 729.41 854.43 747.14 839.54C753 834.62 758.56 829.33 764.23 824.17C767.64 821.06 767.78 820.3 765.36 816.32C764.11 814.26 762.67 812.31 761.19 810.41C757.52 805.67 753.81 800.96 750.05 796.29C748.69 794.6 748.7 793.1 750.35 791.75C755.16 787.83 760.02 783.98 765.35 779.71C766.76 781.42 767.78 782.63 768.77 783.86C780.02 797.89 791.34 811.87 802.48 825.99C808.05 833.04 813.24 840.39 818.7 847.52C820.41 849.75 820 851.46 817.97 853.01C813.21 856.65 808.4 860.21 803.66 863.87C802.17 865.02 801.07 864.83 799.91 863.41C796.54 859.28 793.06 855.24 789.72 851.09C787.03 847.74 784.47 844.29 781.82 840.82C781.18 841.32 780.71 841.67 780.27 842.04C765.92 854.08 751.56 866.12 737.21 878.17C725.79 887.78 714.4 897.4 703 907Z" fill="white" stroke="black"/>
<path d="M98.5 907C91.17 907 83.83 907 76.5 907C75.78 906.66 75.06 906.29 74.33 905.97C68.07 903.29 61.67 900.9 55.57 897.89C47.78 894.03 40.48 889.36 35.13 882.26C31.32 877.21 30.27 871.81 33.24 865.91C36.37 859.7 40.91 855.5 48.16 854.97C54.9 854.48 60.94 856.69 66.71 859.87C68.28 860.73 69.77 861.72 71.51 862.78C71.3 858.88 71.01 855.32 70.95 851.76C70.84 845.82 71.2 839.92 73.63 834.38C75.92 829.16 80.18 827.13 85.43 829.29C88.35 830.49 91.15 832.39 93.46 834.55C97.58 838.41 99.64 843.61 100.94 849C105.64 868.56 103.56 887.85 98.5 907Z" fill="white" stroke="black"/>
<path d="M558.5 907C557.6 895.05 556.84 883.09 555.75 871.16C554.29 855.09 552.67 839.03 550.96 822.98C550.05 814.38 548.82 805.81 547.74 797.23C547.68 796.78 547.65 796.32 547.93 795.75C550.34 800.28 552.81 804.78 555.15 809.35C565.34 829.25 575.78 849.03 585.54 869.14C591.11 880.63 595.53 892.68 600.46 904.47C600.81 905.31 601.15 906.15 601.5 907C587.17 907 572.83 907 558.5 907Z" fill="white" stroke="black"/>
<path d="M505.43 543.12C505.05 545.13 504.57 546.81 504.43 548.51C503.79 555.91 508.27 561.07 515.71 561.43C517.68 561.52 519.75 561.4 521.65 560.9C523.97 560.3 525.9 560.76 527.8 561.97C531.24 564.15 534.58 566.51 538.15 568.44C542.19 570.63 546.6 570.84 551.01 569.57C556.78 567.91 560.36 562.88 559.17 557.02C557.67 549.62 555.56 542.35 553.58 535.06C551.38 526.96 548.93 518.93 546.84 510.8C546.33 508.82 546.76 506.59 546.76 503.92C548.94 504.76 550.36 505.35 551.81 505.85C555.03 506.96 558.29 507.97 561.5 509.11C569.27 511.87 576.56 510.65 583.56 506.63C583.91 506.43 584.28 506.28 585.22 505.82C585.22 511.05 585.13 515.9 585.24 520.75C585.41 528.08 585.74 535.4 585.98 542.72C586.22 549.92 583.84 556.36 579.83 562.14C570.91 574.99 561.81 587.72 552.74 600.47C547.82 607.39 542.88 614.3 537.84 621.13C533.8 626.6 531.06 632.5 530.53 639.4C530.12 644.68 527.26 648.65 523.17 651.94C515.3 658.27 506.36 659.01 496.91 657.28C480.48 654.26 465.14 648.12 450.39 640.49C447.45 638.97 444.76 636.54 442.61 633.98C428.23 616.88 416.04 598.28 407.3 577.72C403.72 569.31 401.55 560.15 399.9 551.12C397.82 539.76 396.72 528.21 395.59 516.71C394.71 507.73 396.18 498.9 399.25 490.43C403.75 478 408.24 465.56 413.21 453.32C420.7 434.87 434.3 422.67 452.73 415.35C467.68 409.42 482.06 402.29 495.29 393.01C501.29 388.8 506.45 384.11 509.37 376.96C511.59 371.51 516.63 368.15 522.19 366.54C543.41 360.43 563.23 363.31 580.95 376.95C587.97 382.35 591.06 390.2 592.94 398.57C596.18 412.98 596.73 427.63 596.43 442.3C596.2 453.79 595.43 465.26 594.88 476.74C594.85 477.46 594.67 478.18 594.57 478.78C585.23 473.38 575.61 472.81 565.75 476.52C563.89 477.22 562.07 478.63 560.84 480.19C559.96 481.29 559.41 483.58 559.99 484.64C560.56 485.67 562.8 486.37 564.22 486.23C567.34 485.92 570.53 485.34 573.46 484.25C580.36 481.7 587.08 483.2 594.05 484.49C594.36 491.03 591.73 496.46 588.38 501.48C585.91 499.43 583.67 497.22 581.11 495.5C571.27 488.88 561 491.14 551.07 497.81C546.4 500.95 544.78 505.86 545.89 511.46C546.42 514.15 546.98 516.85 547.76 519.47C550.66 529.28 553.7 539.04 556.6 548.85C557.28 551.15 557.73 553.55 558.06 555.93C559.22 564.34 554.14 569.94 545.61 569.16C542.33 568.86 539.09 567.44 535.99 566.14C534.04 565.32 532.34 563.84 530.61 562.54C527.39 560.13 524.1 559.15 519.91 560.14C513.58 561.63 508.21 559.11 506.16 554.31C504.78 551.08 504.97 547.71 506.33 544.58C507.41 542.1 509.02 539.84 510.47 537.53C511 536.68 511.74 535.97 512.38 535.19C512.2 535.02 512.03 534.85 511.85 534.68C511.41 535.04 510.89 535.33 510.54 535.76C498.29 551.08 482.45 560.99 463.9 566.9C462.21 567.44 460.53 568.66 459.32 570C450.76 579.44 448.08 590.88 448.4 603.28C448.41 603.47 448.59 603.66 449.13 603.88C449.22 602.81 449.39 601.73 449.39 600.66C449.36 589.15 452.59 578.82 460.44 570.19C461.29 569.26 462.46 568.44 463.64 568.04C476.57 563.63 488.9 558.14 499.21 548.89C501.26 547.07 503.23 545.18 505.43 543.12ZM457.27 465.06C457.38 465.35 457.49 465.64 457.6 465.93C462.59 465.19 467.56 464.32 472.57 463.75C479.49 462.95 486.44 461.57 493.35 463.99C502.98 467.36 512.15 471.59 520.32 477.81C522.43 479.42 524.62 480.96 526.94 482.25C529.41 483.63 531.14 483.2 532.44 481.32C533.72 479.47 533.4 476.42 531.43 475.07C524.04 469.99 516.81 464.59 509.03 460.16C496.37 452.95 483.05 452.46 469.71 458.53C465.45 460.45 461.41 462.87 457.27 465.06ZM503.85 502.26C506.5 502.02 509.16 501.85 511.79 501.48C512.36 501.4 513.24 500.54 513.25 500.04C513.28 494.33 511.8 489.06 507.37 485.2C500.9 479.56 493.33 477.09 484.72 478.27C475.03 479.6 466.4 483.58 458.35 488.95C457.55 489.49 457.05 490.48 456.4 491.26C457.31 491.68 458.18 492.34 459.13 492.48C468.61 493.85 478.04 495.45 487.01 499.01C492.43 501.15 498.02 502.2 503.85 502.26ZM554.58 578.16C548.87 577.88 543.55 578.3 538.54 580.19C535.28 581.42 532.63 581.19 529.39 579.86C517.75 575.07 505.41 573.08 492.94 572.02C486.06 571.43 479.14 571.39 472.24 570.94C469.23 570.75 466.24 570.16 463.21 569.75C464.86 573.83 466.49 577.61 467.93 581.46C472.82 594.57 481.85 603.52 494.89 608.48C502.73 611.46 510.91 612.76 519.23 613.6C530.95 614.78 540.07 610.27 546.36 600.74C550.59 594.34 553.71 587.2 557.22 580.33C557.88 579.03 558.24 577.47 558.34 576C558.51 573.23 558.39 570.43 558.39 567.65C558.15 567.62 557.91 567.6 557.67 567.57C557.81 573.39 557.61 579.13 553.99 584.69C554.21 582.25 554.38 580.38 554.58 578.16ZM576.6 518.79C569.58 520.4 562.83 519.1 556.17 516.83C562.71 520.27 569.49 521.32 576.6 518.79ZM469.9 502.12C473.78 505.14 486.41 508.92 489.19 508.12C482.95 506.18 476.6 504.2 469.9 502.12Z" fill="white" stroke="black"/>
<path d="M475.91 688.39C469.87 687.51 464.38 686.51 458.86 685.95C440.91 684.15 423.28 686.07 405.98 691.01C382.65 697.67 361.68 708.68 343.85 725.29C332.99 735.4 324.33 747.08 318.97 761.05C318.77 761.57 318.54 762.08 317.85 762.46C318.66 758.51 319.41 754.54 320.28 750.6C325.88 725.26 331.76 699.98 337.07 674.58C342.88 646.78 345.91 618.68 344.6 590.22C344.59 589.97 344.6 589.72 344.6 588.98C345.8 593.69 346.76 597.96 348 602.15C350.62 610.99 354.14 619.4 360.34 626.43C363.89 630.46 368.18 633.34 373.43 634.71C377.8 635.85 380.57 634.89 383.1 631.09C386.18 626.47 387.31 621.17 388.02 615.79C390.84 594.36 386.68 574.05 378 554.5C374.34 546.27 370.19 538.32 364.69 531.13C364.21 530.5 364.1 529.48 364.07 528.63C364.04 527.73 364.31 526.82 364.45 525.92C365.58 518.53 362.71 513.08 356.31 509.44C352.05 507.02 347.65 504.83 343.4 502.37C337.42 498.91 334.42 495.81 340.08 487.02C341.68 484.54 343.9 482.43 345.99 480.29C349.19 477.03 349.74 474.09 347.47 470.2C343.93 464.14 340.05 458.31 334.53 453.83C332.94 452.53 331.15 451.3 329.24 450.62C327.34 449.94 326.56 448.99 326.18 447.03C323.02 430.75 320.22 414.45 319.81 397.81C319.35 379.01 323.2 361.02 328.5 343.1C332.55 329.38 341.27 318.84 349.41 307.71C351.94 304.25 354.96 304.38 358.45 304.2C356.56 310.5 354.61 316.74 352.82 323.02C345.56 348.55 341.22 374.48 342.18 401.12C343.17 428.77 349.8 455.24 359.19 481.11C366.77 502 375.79 522.28 385.4 542.3C385.66 542.85 386 543.66 385.79 544.09C382.04 551.7 383.92 559.5 385.33 567.11C391.3 599.35 406.72 626.88 428.26 651.18C441.52 666.14 456.94 678.46 474.76 687.67C475.03 687.83 475.28 688.01 475.91 688.39Z" fill="white" stroke="black"/>
<path d="M349.36 260.08C351.34 262.85 353.2 265.46 355.2 268.26C350.68 275.71 348.44 284.18 347.19 292.98C346.58 297.32 346.98 301.18 351.49 303.71C350.58 304.87 349.71 305.93 348.89 307.02C343.93 313.7 338.47 320.09 334.2 327.19C331.04 332.45 329.24 338.57 327.21 344.44C325.5 349.38 324.66 354.63 322.84 359.52C321.14 364.09 318.74 368.41 316.51 372.77C309.76 385.95 302.92 399.08 296.21 412.28C295.41 413.84 294.36 414.57 292.77 415.12C272.78 422.07 253.8 431.02 236.97 444.07C228.55 450.6 225.37 454.32 215.98 468.01C217.01 463.13 217.97 458.24 219.07 453.38C226.13 422.3 234.08 391.47 244.46 361.31C248.25 350.3 252.01 339.25 257.93 329.15C265.66 315.95 276.41 305.41 288.26 295.95C306.99 281.02 327.63 269.32 349.36 260.08Z" fill="white" stroke="black"/>
<path d="M318.43 382.6C318.97 393.76 319.04 404.97 320.19 416.07C321.34 427.21 323.57 438.23 325.32 449.31C316.76 451.2 311.2 458.44 310.48 468.56C309.92 476.43 311.49 483.98 313.82 491.4C318.01 504.72 322.19 518.04 326.58 531.3C328.34 536.61 330.79 541.69 335.34 545.29C336.75 546.4 338.43 547.57 340.12 547.83C342.91 548.26 343.08 549.87 343.07 552.03C343.04 558.61 343.04 565.19 343.1 571.77C343.23 586.42 343.75 601.08 343.45 615.73C343.03 636.26 339.75 656.5 335.72 676.61C334.23 684.03 332.61 691.43 330.93 698.81C330.68 699.93 330.08 701.27 329.2 701.91C318.08 710.07 309.88 720.61 303.64 732.79C303.38 733.3 303.11 733.81 302.47 735.03C301.76 730.89 301.06 727.46 300.61 724C297.9 703.12 294.83 682.27 292.68 661.32C289.69 632.12 288.81 602.82 289.89 573.46C290.88 546.63 293.49 519.97 297.33 493.41C302.62 456.82 310.16 420.67 318.08 384.58C318.23 383.88 318.45 383.2 318.64 382.51C318.58 382.54 318.51 382.57 318.43 382.6Z" fill="white" stroke="black"/>
<path d="M448.7 416.52C449.56 414.88 448.07 414.43 447.21 413.79C439.07 407.67 431.43 401.01 424.71 393.33C411.73 378.49 404.27 360.96 399.54 342.08C395.02 324.03 392.66 305.62 390.91 287.13C390.84 286.36 391.59 285.14 392.31 284.72C397.74 281.48 403.3 278.46 408.73 275.2C410.4 274.2 411.69 272.56 413.32 271.48C415.01 270.36 417.03 269.73 418.69 268.58C420.87 267.07 422.39 268.43 424.1 269.37C438.48 277.33 452.31 286.05 464.39 297.33C477.78 309.84 486.94 324.96 492.47 342.36C496.98 356.55 499.26 371.17 500.82 385.91C500.9 386.7 500.37 387.86 499.74 388.36C491.59 394.89 482.57 400.05 473.03 405.13C454.58 360.56 431.83 318.48 404.13 279.12C430.83 318.95 453.7 360.85 472.09 405.56C469.03 407 465.93 408.51 462.77 409.92C458.52 411.82 454.24 413.64 449.98 415.53C449.51 415.74 449.13 416.16 448.7 416.49V416.52Z" fill="white" stroke="black"/>
<path d="M305.88 396.44C303.18 404.99 300.35 413.49 297.81 422.09C288.98 451.97 282.34 482.36 277.54 513.12C274.32 533.75 271.42 554.46 269.2 575.22C265.1 613.61 263.44 652.13 265.12 690.74C266.03 711.64 267.96 732.44 271.73 753.04C271.87 753.82 271.65 754.92 271.16 755.52C258.45 771.43 249.86 789.6 242 808.18C237.98 817.68 234.03 827.19 230.03 836.7C229.68 837.52 229.28 838.32 228.45 839.11C227.99 834.71 227.47 830.32 227.08 825.91C225.04 802.91 223.96 779.87 224.15 756.78C224.51 713.41 229.31 670.55 239.22 628.32C243.85 608.59 246.78 588.6 249 568.49C250.64 553.59 251.98 538.67 253.49 523.76C253.59 522.79 253.94 521.82 254.3 520.91C268.27 485.75 282.19 450.57 296.29 415.47C298.94 408.87 302.35 402.56 305.4 396.12C305.56 396.22 305.72 396.33 305.88 396.44Z" fill="white" stroke="black"/>
<path d="M320.95 367.31C318.91 376.56 316.85 385.8 314.82 395.05C307.18 429.85 300.28 464.77 295.39 500.08C290.29 536.95 287.77 573.97 288.66 611.19C289.29 637.77 291.35 664.26 294.9 690.61C296.89 705.37 299.25 720.08 301.36 734.83C301.54 736.07 301.38 737.52 300.9 738.68C292.95 757.62 290.31 777.42 291.28 797.8C291.51 802.59 291.98 807.36 291.89 812.35C290.1 808.56 288.18 804.82 286.54 800.97C278.99 783.25 274.54 764.67 271.52 745.72C265.86 710.21 264.81 674.46 265.92 638.59C266.74 612.1 268.79 585.71 271.92 559.39C277.39 513.38 285.48 467.87 298.53 423.36C302.22 410.77 306.59 398.35 311.21 386.06C313.67 379.51 317.34 373.4 320.46 367.1C320.63 367.17 320.79 367.24 320.95 367.31Z" fill="white" stroke="black"/>
<path d="M374.12 295.06C373.64 301.93 373.17 308.15 372.78 314.37C371.02 342.71 372.31 370.77 380.49 398.21C385.81 416.06 393.41 432.94 402.23 449.29C404.23 453.01 406.49 456.59 408.51 460.3C408.81 460.84 408.54 461.82 408.3 462.51C404.81 472.29 401.19 482.02 397.78 491.84C394.91 500.12 394.07 508.71 394.52 517.44C394.59 518.71 394.33 520.07 393.91 521.28C391.85 527.25 389.69 533.19 387.56 539.13C387.27 539.95 386.94 540.76 386.39 542.21C383.66 536.34 381.2 531.09 378.79 525.82C368.79 503.87 359.58 481.62 352.83 458.41C345.3 432.53 341.65 406.22 343.53 379.24C345.06 357.38 349.75 336.15 356.1 315.24C357.16 311.74 358.31 308.26 359.46 304.79C359.69 304.11 359.98 303.24 360.52 302.92C364.86 300.33 369.25 297.85 374.12 295.06Z" fill="white" stroke="black"/>
<path d="M595.45 405.66C594.84 402.76 594.3 400.26 593.79 397.76C590.43 381.4 579.75 371.86 564.58 366.59C561.53 365.53 558.37 364.68 555.19 364.09C553.46 363.77 552.89 362.96 552.49 361.44C548.97 348.05 544.32 335.08 537.64 322.9C527.05 303.58 511.47 289.53 492 279.56C475.56 271.14 458.08 265.52 440.39 260.49C439.62 260.27 438.85 260.03 438.29 259.86C439.34 258.27 440.29 256.66 441.43 255.2C441.86 254.66 442.73 254.25 443.44 254.17C457.14 252.7 470.86 252.3 484.59 253.63C500.6 255.18 516.05 258.91 530.64 265.89C555.27 277.66 573.18 296.14 584.92 320.62C596.18 344.11 600.54 368.93 598.38 394.86C598.1 398.42 598.46 402.27 595.45 405.66Z" fill="white" stroke="black"/>
<path d="M232.78 570.78C230.18 564.05 227.45 557.36 225.02 550.57C219.97 536.45 215.82 522.08 213.74 507.19C212.56 498.75 212.07 490.29 213.18 481.79C214.65 470.49 220.44 461.42 228.12 453.44C239.13 442 252.47 433.82 266.67 427.09C275.06 423.11 283.82 419.89 292.42 416.34C293.16 416.03 293.94 415.84 295.19 415.43C274.47 467.48 253.93 519.11 233.38 570.73C233.18 570.74 232.98 570.76 232.78 570.78Z" fill="white" stroke="black"/>
<path d="M422.42 266.89C426.77 264.77 430.99 262.67 435.26 260.66C435.79 260.41 436.59 260.48 437.19 260.65C454.65 265.55 471.88 271.05 488.35 278.83C516.8 292.27 535.59 314.16 545.89 343.62C548.13 350.04 550.07 356.56 552.25 363.36C549.64 363.12 547.51 362.89 545.38 362.75C536.99 362.19 528.7 362.74 520.84 365.97C514.64 368.52 509.77 372.51 507.17 379.03C506.14 381.62 504.22 383.87 502.71 386.27C502.46 386.16 502.21 386.05 501.95 385.94C501.3 381.1 500.72 376.25 499.99 371.43C497.5 354.81 493.58 338.61 485.74 323.58C476.52 305.9 462.58 292.62 446.22 281.72C438.55 276.61 430.57 271.94 422.42 266.89Z" fill="white" stroke="black"/>
<path d="M448.71 416.51C443.7 419.22 438.41 421.51 433.75 424.73C422.76 432.34 416.33 443.52 411.1 455.49C410.57 456.71 410.07 457.94 409.55 459.16C409.52 459.23 409.45 459.29 409.12 459.67C408.11 457.9 407.16 456.25 406.23 454.58C395.97 436.14 387.02 417.14 381.11 396.82C374.34 373.55 372.34 349.74 373.3 325.64C373.68 315.99 374.48 306.36 375.01 296.71C375.1 295.01 375.75 294.02 377.24 293.21C381.31 291.02 385.3 288.67 389.67 286.19C390.14 290.43 390.55 294.29 391 298.14C393.13 316.26 395.96 334.23 401.18 351.77C408.9 377.74 424.17 398.21 445.92 414.07C446.91 414.79 447.77 415.7 448.69 416.52C448.7 416.52 448.71 416.51 448.71 416.51Z" fill="white" stroke="black"/>
<path d="M343.86 547.54C339.89 547.58 336.24 545.54 333.37 541.96C329.33 536.91 327.32 530.91 325.43 524.87C321.34 511.78 317.11 498.73 313.27 485.56C311.16 478.31 310.2 470.78 312.55 463.4C313.53 460.31 315.23 457.29 317.21 454.7C320.78 450.01 325.87 449.38 330.97 452.52C336.05 455.65 339.68 460.21 343.02 465.02C344.3 466.86 345.45 468.8 346.58 470.74C348.6 474.18 348.16 476.53 345.37 479.47C343.03 481.94 340.81 484.53 338.73 487.22C337.84 488.37 337.3 489.85 336.84 491.26C335.38 495.67 336.03 498.49 339.81 501.11C343.35 503.56 347.27 505.45 351.02 507.59C352.68 508.54 354.35 509.47 356 510.44C361.65 513.77 364.32 518.54 363.5 525.22C362.67 532 360.75 538.25 355.64 543.1C352.56 546.01 348.85 547.51 343.86 547.54Z" fill="white" stroke="black"/>
<path d="M350.09 232.1C350.33 234.92 350.79 237.6 350.73 240.28C350.58 246.16 350.21 252.04 349.77 257.91C349.72 258.52 348.7 259.26 347.97 259.57C331.15 266.75 315.19 275.48 300.15 285.88C285.42 296.07 271.83 307.52 261.27 322.18C259.92 324.06 258.66 326.01 256.89 327.83C257.43 324.9 257.92 321.96 258.51 319.04C261.28 305.45 265.24 292.27 272.22 280.16C281.06 264.83 294.05 254.14 309.71 246.43C322.45 240.16 335.92 235.9 349.56 232.14C349.86 232.06 350.19 232.09 350.09 232.1Z" fill="white" stroke="black"/>
<path d="M394.57 523.9C395.18 528.5 395.77 533.11 396.41 537.71C401.14 571.74 413.5 602.88 432 631.69C444.33 650.89 458.71 668.45 474.44 684.94C474.98 685.51 475.48 686.11 475.66 687.17C471.53 684.76 467.25 682.57 463.29 679.9C425.06 654.18 399.73 619.12 387.93 574.55C386.03 567.37 385.71 559.77 384.7 552.36C384.59 551.56 384.77 550.71 384.89 549.89C384.96 549.4 385.17 548.93 385.34 548.47C388.26 540.26 391.18 532.04 394.1 523.83C394.25 523.85 394.41 523.87 394.57 523.9Z" fill="white" stroke="black"/>
<path d="M349.15 549.14C347.33 549.14 345.78 549.14 344.23 549.14C351.67 548.4 357.06 544.68 360.76 538.12C368.07 545.76 373.04 554.62 376.41 564.39C379.91 574.54 380.95 585.16 381.97 595.76C382.75 603.89 383.18 612.04 381.53 620.14C381.41 620.71 381.27 621.27 381.09 621.83C379.04 628.38 374.58 629.76 369.19 625.4C364.52 621.62 362.04 616.32 359.44 611.09C350.02 592.18 348.12 571.98 349.05 551.28C349.08 550.7 349.11 550.12 349.15 549.14Z" fill="white" stroke="black"/>
<path d="M390.14 252.99C395.25 253.02 403.19 255.71 410.05 261.43C415.04 265.59 414.72 270.66 409.12 273.88C393.55 282.83 377.94 291.72 362.33 300.6C360.98 301.37 359.54 301.88 358.18 302.74C354.27 305.2 347.88 301.91 348.1 297.37C348.83 282.87 352.43 269.36 364.31 259.64C369.73 255.19 377.8 253.01 390.14 252.99Z" fill="white" stroke="black"/>
<path d="M356.02 266.92C352.02 263.49 350.05 259.89 351.31 254.64C352.68 248.94 352.35 243.08 351.35 237.28C350.7 233.52 351.73 231.27 354.93 229.29C362.97 224.31 371.42 220.61 381.14 221.02C389.79 221.38 397.71 224.37 405.37 228.09C408.25 229.49 408.88 232.23 407.68 235.25C404.99 242 400.32 247.26 395.07 252.04C394.39 252.66 392.77 252.44 391.62 252.31C383.23 251.37 375.2 252.5 367.62 256.3C362.85 258.71 359.26 262.48 356.02 266.92Z" fill="white" stroke="black"/>
<path d="M414.27 269.71C415.15 265.21 413.46 262.4 410.44 260.53C406.58 258.14 402.52 256.08 398.52 253.93C397.74 253.51 396.85 253.3 395.18 252.68C397.2 250.93 399.16 249.76 400.38 248.07C403.32 243.98 406.16 239.78 408.57 235.37C410.72 231.43 412.05 230.55 416.48 231.49C428.19 233.98 435.49 241.51 440.13 252.08C441.06 254.2 440.52 256.77 438.49 257.81C430.67 261.8 422.73 265.58 414.27 269.71Z" fill="white" stroke="black"/>
<path d="M348 550.34C348 556.03 347.8 561.6 348.04 567.15C348.46 576.56 349.17 586 352.12 594.99C355.22 604.46 358.55 613.97 364.7 622.01C366.55 624.43 369.18 626.53 371.88 627.96C375.96 630.13 379.52 628.68 381.17 624.35C382.31 621.36 383.2 618.1 383.31 614.93C383.95 596.34 382.39 577.99 375.96 560.36C373.32 553.13 369.4 546.51 364.34 540.69C362.71 538.81 362.06 537.2 363.27 534.97C363.66 534.25 363.84 533.42 364.36 531.96C367.04 536.35 369.66 540.19 371.83 544.26C379.77 559.12 385.57 574.72 387.26 591.63C388.32 602.22 388.31 612.77 385.46 623.11C384.76 625.64 383.67 628.15 382.32 630.4C380.15 634.01 377.63 634.81 373.58 633.73C366.03 631.71 360.89 626.64 356.92 620.25C351.05 610.78 347.87 600.31 346 589.4C343.95 577.44 343.69 565.38 344 553.29C344.09 549.97 344.1 549.97 348 550.34Z" fill="white" stroke="black"/>
<path d="M450 654.6C434.08 634.82 420.9 613.52 411.17 589.35C416.42 597.9 420.99 606.02 426.23 613.68C431.48 621.36 437.08 628.86 443.16 635.89C445.89 639.05 447.86 641.91 448.16 646.12C448.36 648.97 449.36 651.77 450 654.6Z" fill="white" stroke="black"/>
<path d="M568.09 494.26C573.83 492.81 581.22 496.12 585.85 502.15C580.01 508.52 572.23 510.99 565.85 508.34C568.7 503.99 569.01 499.2 568.09 494.26Z" fill="white" stroke="black"/>
<path d="M125.16 516.78C132.05 548.27 138.84 579.27 145.62 610.27C145.45 610.36 145.27 610.45 145.1 610.54C111.22 563.03 77.33 515.51 43.09 467.49C57.01 469.26 70.38 470.97 84.25 472.73C73 446.82 61.94 421.34 50.97 396.09C55.55 396.09 59.94 395.93 64.33 396.12C85.88 397.02 107.43 398.04 128.98 398.94C130.37 399 130.98 399.46 131.5 400.7C148.43 441.37 165.41 482.02 182.37 522.68C182.59 523.21 182.74 523.76 183.06 524.68C163.77 522.05 144.77 519.46 125.16 516.78Z" fill="white" stroke="black"/>
<path d="M663.36 221.05C678.01 230.2 692.67 239.35 707.52 248.62C720.04 236.55 732.54 224.49 745.04 212.43C745.18 212.51 745.33 212.59 745.47 212.67C741.29 229.47 737.11 246.28 732.89 263.25C748.24 271.42 763.48 279.54 778.72 287.65C778.7 287.84 778.67 288.03 778.65 288.22C777.72 288.3 776.79 288.4 775.86 288.46C760.4 289.53 744.95 290.61 729.49 291.63C727.6 291.75 726.67 292.2 726.31 294.39C723.63 310.39 720.75 326.36 717.92 342.34C717.88 342.57 717.74 342.78 717.51 343.33C717.11 342.6 716.77 342.11 716.55 341.57C710.55 326.77 704.54 311.98 698.62 297.16C697.96 295.5 697.3 294.95 695.39 295.23C679.66 297.55 663.91 299.72 648.16 301.92C647.53 302.01 646.88 301.93 645.65 301.93C648.71 299.35 651.41 297.07 654.11 294.8C664 286.5 673.86 278.17 683.81 269.95C685.37 268.66 685.63 267.74 684.68 265.84C677.73 251.83 670.93 237.75 664.09 223.68C663.73 222.94 663.39 222.19 663.04 221.44C663.14 221.32 663.25 221.18 663.36 221.05Z" fill="white" stroke="black"/>
<path d="M650.5 623.41C656.07 604.53 661.52 586.05 667.09 567.16C669.7 569.53 672.08 571.68 674.44 573.85C685.18 583.7 695.91 593.56 706.68 603.38C707.7 604.31 708.13 605.05 707.66 606.55C698.5 635.84 689.42 665.14 680.32 694.45C680.3 694.51 680.21 694.54 679.88 694.8C670.87 684.89 661.84 674.96 652.6 664.8C642.29 684.52 632.14 703.94 621.98 723.37C621.84 723.33 621.69 723.29 621.55 723.25C624.63 683.08 627.7 642.92 630.82 602.19C637.57 609.46 643.89 616.27 650.5 623.41Z" fill="white" stroke="black"/>
<path d="M127.37 148.35C128.88 138.02 130.38 127.84 131.9 117.46C131.27 117.35 130.73 117.17 130.2 117.17C123.87 117.15 117.54 117.21 111.21 117.12C109.56 117.1 109.15 117.74 108.95 119.27C107.67 128.91 106.27 138.54 104.89 148.33C97.69 148.33 90.57 148.33 83.18 148.33C83.98 142.68 84.76 137.05 85.58 131.42C88.36 112.4 91.19 93.3902 93.91 74.3702C94.12 72.9102 94.63 71.9802 95.97 71.6602C99.49 70.8102 103.02 69.4902 106.57 69.4002C112.11 69.2702 115.02 72.6502 114.6 78.2002C114.24 82.9202 113.39 87.6002 112.75 92.3002C112.38 95.0102 112 97.7202 111.6 100.65C119.19 100.65 126.63 100.65 134.34 100.65C135.05 95.7702 135.78 90.8602 136.49 85.9502C137.05 82.0802 137.47 78.1802 138.21 74.3502C138.4 73.3402 139.34 72.1502 140.27 71.6602C143.63 69.9102 147.24 68.9602 151.1 69.3202C156.65 69.8402 159.66 73.5002 158.89 79.0302C156.76 94.3602 154.56 109.68 152.37 124.99C151.26 132.73 150.13 140.47 148.98 148.35C141.8 148.35 134.69 148.35 127.37 148.35Z" fill="white" stroke="black"/>
<path d="M324.96 140.71C327.27 136.02 329.51 131.49 331.85 126.74C337.11 130.84 343.02 132.64 349.39 132.71C352.08 132.74 354.94 132.45 357.43 131.52C361.67 129.95 362.32 125.15 358.75 122.37C356.83 120.87 354.35 120.11 352.17 118.92C348.39 116.86 344.38 115.1 340.95 112.56C329.69 104.24 329.61 78.5102 348.39 71.7802C361.47 67.0902 374.1 68.5802 385.9 76.1002C386.18 76.2802 386.44 76.5002 386.69 76.7102C386.81 76.8202 386.9 76.9602 387.21 77.3402C383.79 81.7002 380.33 86.1102 377.19 90.1102C373.43 88.7502 370.04 87.1102 366.47 86.3702C364.18 85.9002 361.44 86.2802 359.2 87.1002C355.31 88.5302 354.82 92.4302 358.16 94.8802C360.27 96.4202 362.78 97.4802 365.23 98.4702C370.2 100.49 375.09 102.62 378.69 106.77C387.72 117.18 385.04 134.64 373.17 143.15C360.49 152.24 338.36 151.64 326.21 141.87C325.82 141.58 325.48 141.21 324.96 140.71Z" fill="white" stroke="black"/>
<path d="M629.15 92.1899C635.8 93.1899 642.12 94.1399 649 95.1699C647.63 100.29 646.56 105.23 644.97 110C638.91 128.22 630.48 145.2 618.08 160.01C612.28 166.94 606.1 171.89 599.46 174.95C597.03 170.39 594.59 165.81 592.18 161.3C594.96 159.37 597.83 157.68 600.34 155.56C602.84 153.44 604.98 150.88 607.57 148.21C601.61 146.45 600.15 142.21 599.46 137.18C597.65 123.91 595.68 110.66 593.63 97.4199C593.26 95.0099 593.77 93.7299 596.23 93.4999C600.25 93.1199 604.32 92.2099 608.28 92.5399C613.67 92.9899 616.47 96.5999 616.5 102.06C616.55 111.55 616.46 121.04 616.43 130.53C616.43 131.47 616.43 132.42 616.83 133.42C623.07 120.38 626.05 106.42 629.15 92.1899Z" fill="white" stroke="black"/>
<path d="M716.62 496.19C714.81 488.25 712.89 481.19 711.65 474.01C709.57 462 708.8 449.87 710.02 437.69C710.89 428.94 712.59 420.39 717.12 412.69C720.64 406.72 725.54 402.43 732.46 400.81C736.99 399.75 740.67 401.22 743.21 405.16C746.39 410.1 747.19 415.73 747.43 421.4C747.68 427.36 747.49 433.34 747.49 439.27C748.68 438.56 750.3 437.49 752.01 436.57C759.53 432.52 767.3 429.88 776.11 430.92C786.99 432.2 800.27 449 789.32 461.87C786.38 465.33 783.09 468.63 779.47 471.35C767.98 480.01 754.9 485.61 741.26 489.84C733.42 492.27 725.37 493.96 716.62 496.19Z" fill="white" stroke="black"/>
<path d="M442.26 146.22C437.51 148.48 432.74 150.06 427.52 149.46C423.92 149.05 421.4 145.89 421.08 141.64C420.99 140.43 421.07 139.21 421.07 137.51C419.28 139.89 417.92 141.93 416.32 143.79C412.02 148.79 406.46 150.46 400.11 149.28C394.17 148.18 390.56 143.53 390.63 136.39C390.68 130.92 391.44 125.45 392.14 120.01C393.13 112.25 394.33 104.52 395.54 96.7899C395.66 95.9899 396.37 94.8299 397.03 94.6499C400.71 93.6499 404.42 92.5099 408.18 92.1699C413.92 91.6499 416.78 94.9499 415.94 100.63C414.78 108.53 413.46 116.41 412.26 124.31C412.01 125.95 411.71 127.66 411.94 129.27C412.13 130.59 412.9 132.69 413.72 132.85C415.28 133.16 417.48 132.82 418.66 131.84C420.01 130.72 420.95 128.71 421.34 126.92C422.73 120.5 423.85 114.03 424.98 107.56C425.61 103.95 425.98 100.3 426.62 96.6999C426.75 95.9399 427.41 94.8499 428.03 94.6799C431.71 93.6799 435.41 92.5099 439.17 92.1699C444.89 91.6499 447.73 94.8999 446.93 100.64C445.45 111.19 443.8 121.71 442.25 132.25C441.58 136.86 440.6 141.47 442.26 146.22Z" fill="white" stroke="black"/>
<path d="M119.84 703.13C127.25 707.75 134.66 712.37 142.1 717.01C148.53 710.82 154.86 704.72 161.69 698.14C159.6 706.56 157.75 714.32 155.7 722.02C155.17 724.01 155.6 724.92 157.44 725.86C164.48 729.44 171.41 733.21 178.36 737.38C169.65 738 160.95 738.63 152.02 739.27C150.48 747.92 148.95 756.51 147.3 765.77C146.7 764.48 146.3 763.74 145.99 762.97C143.3 756.34 140.55 749.74 138.01 743.06C137.29 741.16 136.33 740.83 134.47 741.12C126.9 742.3 119.31 743.33 111.73 744.4C111.44 744.44 111.14 744.41 110.31 744.41C114.18 741.16 117.66 738.23 121.14 735.3C123.88 733 126.58 730.63 129.39 728.42C130.59 727.47 130.77 726.72 130.07 725.33C126.85 718.94 123.76 712.49 120.63 706.06C120.21 705.19 119.83 704.3 119.44 703.41C119.58 703.31 119.71 703.22 119.84 703.13Z" fill="white" stroke="black"/>
<path d="M108.81 286.64C88.22 282.93 69.09 276.42 52.44 263.83C47.9 260.39 43.88 256.3 42.13 250.66C39.47 242.11 46.6 230.96 55.91 229C63.71 227.36 70.68 229.94 77.42 233.47C79.1 234.35 80.67 235.44 82.74 236.72C82.55 234.63 82.36 232.88 82.24 231.13C81.75 223.96 81.66 216.81 83.93 209.87C84.44 208.31 85.13 206.74 86.03 205.38C88.24 202.04 91.45 200.85 95.36 201.82C103.5 203.84 107.99 209.7 111.01 217C114 224.25 115.08 231.92 115.38 239.68C115.96 254.6 114.1 269.24 109.92 283.58C109.66 284.51 109.26 285.42 108.81 286.64Z" fill="white" stroke="black"/>
<path d="M196.96 261.07C194.86 269.57 192.87 277.59 190.84 285.81C198.16 289.72 205.4 293.58 212.63 297.45C212.63 297.61 212.64 297.77 212.64 297.92C211 298.08 209.36 298.29 207.72 298.4C201.9 298.8 196.09 299.22 190.27 299.51C188.49 299.6 187.69 300.1 187.39 302.03C186.35 308.85 185.06 315.64 183.85 322.44C183.74 323.06 183.54 323.66 183.23 324.82C180.54 318.2 178.04 312.07 175.55 305.93C173.68 301.34 173.68 301.3 168.74 301.96C162.23 302.82 155.73 303.75 148.96 304.21C149.6 303.64 150.22 303.05 150.87 302.5C155.91 298.27 160.89 293.97 166.02 289.86C167.6 288.59 167.65 287.59 166.79 285.91C163.88 280.2 161.12 274.42 158.32 268.67C157.86 267.73 157.44 266.77 156.69 265.13C161.86 268.35 166.41 271.18 170.95 274.01C172.79 275.15 174.69 276.21 176.43 277.48C177.89 278.54 178.82 278.5 180.17 277.14C185.27 272 190.54 267.02 195.75 261.99C196 261.77 196.28 261.6 196.96 261.07Z" fill="white" stroke="black"/>
<path d="M217.18 107.96C231.23 115.31 227.79 133.97 217.87 141.44C211.38 146.32 203.99 148.92 196.1 149.22C185.06 149.63 174 149.13 162.54 149.02C166.28 122.38 169.92 96.4099 173.6 70.1499C181.99 69.8499 190.22 69.3399 198.45 69.3299C203.33 69.3199 208.32 69.5599 213.07 70.5899C227.4 73.7099 232.76 86.6499 224.93 99.1699C222.86 102.48 219.73 105.11 217.18 107.96ZM186.79 133.04C189.84 133.04 192.43 133.28 194.96 132.98C198.69 132.55 201.45 130.54 202.7 126.86C204.23 122.35 201.91 117.48 197.89 117.05C195.04 116.75 192.12 116.99 189.09 116.99C188.32 122.35 187.57 127.56 186.79 133.04ZM191.27 101.1C194.73 100.36 197.72 100.12 200.39 99.0499C203.7 97.7299 205.32 93.1399 204.35 89.4699C203.65 86.8199 201.44 85.5899 197.36 85.5799C196.13 85.5699 194.91 85.5799 193.55 85.5799C192.8 90.6499 192.11 95.3899 191.27 101.1Z" fill="white" stroke="black"/>
<path d="M468.03 173.72C460.93 173.72 454.12 173.72 447.07 173.72C447.8 168.48 448.51 163.39 449.22 158.31C451.82 139.78 454.42 121.24 457.03 102.71C457.13 101.97 457.44 101.22 457.38 100.5C456.92 95.6599 459.69 93.7599 463.94 93.1299C466.08 92.8099 468.19 92.2799 470.34 92.1199C474.06 91.8599 476.35 93.6999 477 97.3799C477.31 99.1299 477.37 100.92 477.58 103.14C478.77 101.43 479.65 100.05 480.64 98.7699C484.65 93.5899 489.91 91.1799 496.4 92.3899C503.11 93.6399 507.21 97.9999 509.01 104.45C513.14 119.22 504.97 138.5 491.54 145.7C485.99 148.67 479.96 149.84 473.7 149.55C471.74 149.46 471.17 150.16 470.95 152.02C470.09 159.19 469.04 166.35 468.03 173.72ZM473.31 134.29C478.05 135.15 481.87 134.1 484.36 130.1C487.85 124.48 488.67 118.28 487.32 111.9C487.04 110.59 485.5 109.15 484.19 108.54C482.38 107.7 480.64 108.66 479.45 110.31C479.07 110.84 478.71 111.42 478.46 112.02C475.41 119.12 474.65 126.72 473.31 134.29Z" fill="white" stroke="black"/>
<path d="M232.91 149.01C233.9 141.85 234.78 135.44 235.67 129.03C238.29 110.32 240.94 91.6201 243.5 72.9001C243.77 70.9301 244.34 70.0001 246.52 69.9801C255.09 69.9001 263.68 69.2801 272.23 69.6201C276.7 69.8001 281.3 71.0401 285.5 72.6901C294.77 76.3301 300.41 83.4601 302.4 93.1501C304.7 104.41 303.39 115.43 298.47 125.81C291.42 140.67 278.94 148.08 263.01 149.26C253.18 149.98 243.23 149.15 232.91 149.01ZM257.18 132.89C263.75 134.27 270.95 130.96 275.13 124.39C280.51 115.94 282.07 106.6 280.29 96.8301C278.93 89.3401 273.37 85.3201 265.75 85.5501C264.2 85.6001 263.62 86.0901 263.42 87.6901C262.59 94.3001 261.59 100.88 260.67 107.47C259.51 115.95 258.35 124.43 257.18 132.89Z" fill="white" stroke="black"/>
<path d="M680.92 138.96C679.88 140.44 679.11 141.59 678.29 142.71C674.26 148.22 668.75 150.55 662.14 149.34C655.55 148.13 651.49 143.7 649.66 137.39C644.16 118.35 657.37 96.6299 676.74 92.8299C679.33 92.3199 682.03 92.0698 684.68 92.1298C692.4 92.2998 700.12 92.6899 708.12 93.0099C707.31 98.6199 706.56 103.88 705.78 109.12C704.39 118.5 702.89 127.87 701.65 137.28C701.27 140.18 701.59 143.16 701.59 147.04C698.37 147.75 694.32 149.04 690.18 149.48C684.91 150.04 681.91 147.25 681.2 142.01C681.09 141.12 681.04 140.25 680.92 138.96ZM685.2 107.55C680.37 106.45 676.76 107.82 674.23 111.77C670.94 116.92 670.5 122.69 671.03 128.58C671.23 130.85 672.1 132.82 674.63 133.39C676.8 133.88 678.75 132.82 679.93 130.2C683.19 122.99 683.93 115.21 685.2 107.55Z" fill="white" stroke="black"/>
<path d="M513.64 148.41C515.87 132.06 518.03 115.99 520.29 99.92C521.12 93.98 521.23 93.98 527.21 92.69C528.35 92.44 529.51 92.27 530.66 92.16C535.9 91.66 539.26 94.36 540.01 99.61C540.11 100.29 540.23 100.98 540.64 101.79C543.55 97.59 545.8 92.6 551.62 92.25C554.51 92.08 557.47 92.89 560.93 93.32C559.34 96.9 558.05 99.82 556.74 102.74C555.46 105.62 554.17 108.49 552.83 111.48C552.25 111.25 551.81 111.07 551.37 110.9C546.39 109.03 542.57 110.35 541.05 115.45C539.11 121.95 537.88 128.68 536.56 135.35C535.71 139.65 535.24 144.03 534.59 148.41C527.54 148.41 520.73 148.41 513.64 148.41Z" fill="white" stroke="black"/>
<path d="M586.72 93.1502C585.89 99.2702 585.13 104.94 584.33 110.61C583.09 119.42 581.72 128.21 580.63 137.04C580.26 140.03 580.57 143.11 580.57 146.54C576.42 148.64 571.52 150.02 566.23 149.48C562.08 149.05 559.39 146.29 559.56 141.88C559.75 136.91 560.5 131.96 561.15 127.02C562.53 116.55 564.06 106.1 565.4 95.6302C565.64 93.7902 566.1 93.0602 568.1 93.1002C574.16 93.2402 580.23 93.1502 586.72 93.1502Z" fill="white" stroke="black"/>
<path d="M737.01 118.04C730.63 118.04 724.56 118.04 718.49 118.04C717.92 118.04 717.34 118.04 716.45 118.04C718.5 102.12 720.52 86.42 722.56 70.54C729.65 70.54 736.67 70.54 743.86 70.54C741.58 86.4 739.31 102.09 737.01 118.04Z" fill="white" stroke="black"/>
<path d="M723.03 149.58C715.88 149.6 711.92 145.86 711.92 139.1C711.92 130.88 716.75 125.95 724.85 125.92C731.95 125.89 736.13 129.74 736.14 136.31C736.16 144.63 731.29 149.56 723.03 149.58Z" fill="white" stroke="black"/>
<path d="M578.07 85.1398C571.56 85.1398 567.71 81.7398 567.66 75.9598C567.6 68.4498 572.48 63.4898 579.92 63.5098C586.39 63.5298 590.08 66.9298 590.09 72.8698C590.09 80.4998 585.55 85.1398 578.07 85.1398Z" fill="white" stroke="black"/>
<path d="M457.27 465.06C461.41 462.86 465.45 460.45 469.7 458.51C483.04 452.44 496.36 452.93 509.02 460.14C516.8 464.57 524.02 469.97 531.42 475.05C533.39 476.4 533.71 479.46 532.43 481.3C531.13 483.18 529.4 483.62 526.93 482.23C524.62 480.94 522.43 479.4 520.31 477.79C512.14 471.57 502.97 467.34 493.34 463.97C486.44 461.56 479.48 462.94 472.56 463.73C467.55 464.31 462.58 465.18 457.59 465.91C457.5 465.64 457.39 465.35 457.27 465.06Z" fill="black"/>
<path d="M554.58 578.16C554.38 580.38 554.21 582.25 553.99 584.69C557.61 579.14 557.81 573.4 557.67 567.57C557.91 567.6 558.15 567.62 558.39 567.65C558.39 570.43 558.51 573.23 558.34 576C558.25 577.47 557.89 579.03 557.22 580.33C553.72 587.2 550.59 594.34 546.36 600.74C540.07 610.27 530.94 614.79 519.23 613.6C510.91 612.76 502.74 611.46 494.89 608.48C481.85 603.52 472.83 594.57 467.93 581.46C466.49 577.61 464.86 573.83 463.21 569.75C466.24 570.16 469.22 570.74 472.24 570.94C479.13 571.38 486.06 571.43 492.94 572.02C505.41 573.08 517.74 575.07 529.39 579.86C532.62 581.19 535.27 581.42 538.54 580.19C543.54 578.3 548.87 577.89 554.58 578.16ZM466.86 575.34C467.22 576.5 467.38 577.04 467.55 577.57C471.77 590.63 479.48 600.69 492.3 606.34C501.01 610.18 510.21 611.85 519.64 612.63C524.74 613.05 529.66 612.65 534.2 610.24C546.02 603.98 551.01 593.21 553.36 580.78C552.88 581.13 552.61 581.62 552.27 582.05C549.27 585.92 546.56 590.06 543.19 593.58C538.7 598.28 533.34 601.9 526.5 602.14C523.44 602.24 520.34 601.91 517.3 601.51C497.61 598.92 480.27 591.69 466.86 575.34ZM466.96 571.6C466.85 571.87 466.74 572.14 466.64 572.42C468.58 576.48 473.18 581.58 479.01 585.88C492.14 595.55 507.1 599.91 523.18 601.09C534.48 601.92 541.08 594.85 547.9 587.04C547.13 587.04 546.87 586.97 546.67 587.05C540.96 589.28 535.02 589.55 528.99 589.17C517.68 588.45 506.88 585.54 496.25 581.83C486.49 578.43 476.72 575.02 466.96 571.6ZM472.54 572.21C479.87 574.87 488.02 577.88 496.22 580.77C508.28 585.02 520.56 588.28 533.47 588.32C538.4 588.34 543.27 587.75 547.77 585.42C550.33 584.1 551.48 581.88 552.5 578.55C547.75 579.41 543.39 579.78 539.34 581.07C535.53 582.28 532.11 583.03 528.6 580.55C527.81 579.99 526.76 579.81 525.81 579.49C508.22 573.55 490 572.3 472.54 572.21Z" fill="black"/>
<path d="M576.6 518.79C569.49 521.32 562.71 520.27 556.17 516.83C562.83 519.11 569.58 520.4 576.6 518.79Z" fill="black"/>
<path d="M469.9 502.12C476.6 504.2 482.95 506.18 489.19 508.12C486.42 508.92 473.79 505.14 469.9 502.12Z" fill="black"/>
<path d="M186.79 133.04C187.57 127.56 188.32 122.35 189.09 117C192.13 117 195.04 116.76 197.89 117.06C201.91 117.48 204.23 122.36 202.7 126.87C201.46 130.54 198.69 132.56 194.96 132.99C192.43 133.28 189.84 133.04 186.79 133.04ZM187.88 132.4C190.92 132.15 193.66 132.19 196.28 131.64C199.03 131.07 200.96 129.17 201.81 126.41C203.07 122.29 200.96 118.26 197.3 117.98C194.92 117.8 192.51 117.95 189.95 117.95C189.27 122.7 188.62 127.27 187.88 132.4Z" fill="black"/>
<path d="M191.27 101.1C192.11 95.3901 192.8 90.6401 193.55 85.5801C194.91 85.5801 196.14 85.5801 197.36 85.5801C201.45 85.6001 203.65 86.8301 204.35 89.4701C205.32 93.1301 203.7 97.7301 200.39 99.0501C197.72 100.12 194.72 100.36 191.27 101.1ZM192.59 99.2201C195.8 99.7501 198.48 99.3001 200.56 97.9101C203.13 96.2001 204.4 91.6501 203.06 88.9701C202.11 87.0601 197.74 85.7301 195.2 86.7001C194.72 86.8801 194.24 87.6101 194.15 88.1501C193.58 91.8301 193.1 95.5301 192.59 99.2201Z" fill="black"/>
<path d="M473.31 134.29C474.66 126.72 475.42 119.12 478.45 112.02C478.71 111.42 479.06 110.84 479.44 110.31C480.62 108.66 482.37 107.7 484.18 108.54C485.5 109.15 487.03 110.59 487.31 111.9C488.67 118.28 487.84 124.49 484.35 130.1C481.87 134.1 478.04 135.15 473.31 134.29ZM473.99 133.24C478.37 134.05 481.36 132.87 483.34 129.8C486.84 124.36 487.62 118.32 486.35 112.07C486.14 111.05 484.76 109.68 483.78 109.55C482.66 109.4 481.31 110.36 480.19 111.04C479.7 111.34 479.37 112.12 479.21 112.74C477.46 119.53 475.74 126.33 473.99 133.24Z" fill="black"/>
<path d="M257.18 132.89C258.35 124.43 259.51 115.95 260.69 107.47C261.61 100.88 262.61 94.2899 263.44 87.6899C263.64 86.0899 264.21 85.5999 265.77 85.5499C273.38 85.3199 278.94 89.3399 280.31 96.8299C282.09 106.6 280.52 115.94 275.15 124.39C270.96 130.96 263.75 134.27 257.18 132.89ZM264.58 86.8699C262.48 101.99 260.39 116.99 258.29 132.14C263.59 132.39 267.93 131.01 271.17 127.49C279.78 118.14 281.66 106.95 278.68 94.9999C277.15 88.8299 271.27 85.8299 264.58 86.8699Z" fill="black"/>
<path d="M685.2 107.55C683.93 115.21 683.19 122.99 679.94 130.2C678.76 132.82 676.81 133.88 674.64 133.39C672.11 132.82 671.24 130.85 671.04 128.58C670.52 122.69 670.95 116.92 674.24 111.77C676.76 107.82 680.37 106.45 685.2 107.55ZM684.1 108.49C679.43 107.65 676.13 109.54 674.01 114.15C671.91 118.73 671.52 123.58 672.03 128.52C672.21 130.31 672.8 132.03 674.91 132.4C677.11 132.79 678.3 131.4 679.1 129.63C682.13 122.89 682.75 115.61 684.1 108.49Z" fill="black"/>
<path d="M489.03 481.68C499.01 480.84 509.35 489.5 510.7 499.89C501.56 502.7 493.1 500.22 484.65 496.82C489.19 489.96 489.24 489.8 489.03 481.68Z" fill="white" stroke="black"/>
<path d="M466.86 575.34C480.27 591.69 497.61 598.93 517.32 601.51C520.37 601.91 523.46 602.25 526.52 602.14C533.35 601.91 538.71 598.29 543.21 593.58C546.57 590.06 549.29 585.92 552.29 582.05C552.63 581.61 552.9 581.12 553.38 580.78C551.03 593.21 546.04 603.98 534.22 610.24C529.68 612.64 524.76 613.05 519.66 612.63C510.23 611.85 501.03 610.17 492.32 606.34C479.5 600.69 471.79 590.63 467.57 577.57C467.38 577.03 467.22 576.5 466.86 575.34Z" fill="white" stroke="black"/>
<path d="M466.96 571.6C476.72 575.01 486.49 578.42 496.25 581.83C506.88 585.54 517.68 588.45 528.99 589.17C535.02 589.55 540.96 589.29 546.67 587.05C546.87 586.97 547.13 587.04 547.9 587.04C541.08 594.85 534.47 601.92 523.18 601.09C507.1 599.9 492.14 595.55 479.01 585.88C473.18 581.58 468.57 576.48 466.64 572.42C466.75 572.15 466.85 571.88 466.96 571.6Z" fill="white" stroke="black"/>
<path d="M472.54 572.21C490 572.3 508.22 573.55 525.8 579.48C526.75 579.8 527.8 579.99 528.59 580.54C532.1 583.02 535.52 582.27 539.33 581.06C543.39 579.77 547.74 579.41 552.49 578.54C551.47 581.87 550.31 584.09 547.76 585.41C543.26 587.73 538.39 588.32 533.46 588.31C520.56 588.27 508.27 585.01 496.21 580.76C488.02 577.88 479.87 574.86 472.54 572.21Z" fill="white" stroke="black"/>
<path d="M187.88 132.4C188.62 127.26 189.27 122.7 189.96 117.94C192.52 117.94 194.93 117.79 197.31 117.97C200.97 118.25 203.07 122.28 201.82 126.4C200.97 129.17 199.04 131.06 196.29 131.63C193.66 132.19 190.92 132.16 187.88 132.4Z" fill="white" stroke="black"/>
<path d="M192.59 99.2198C193.1 95.5298 193.58 91.8298 194.16 88.1398C194.25 87.5998 194.73 86.8698 195.21 86.6898C197.75 85.7298 202.12 87.0498 203.07 88.9598C204.41 91.6498 203.14 96.1898 200.57 97.8998C198.48 99.2998 195.81 99.7498 192.59 99.2198Z" fill="white" stroke="black"/>
<path d="M473.99 133.24C475.74 126.33 477.46 119.53 479.22 112.74C479.38 112.12 479.71 111.34 480.2 111.04C481.32 110.36 482.66 109.4 483.79 109.55C484.77 109.68 486.15 111.05 486.36 112.07C487.62 118.32 486.84 124.37 483.35 129.8C481.36 132.87 478.36 134.05 473.99 133.24Z" fill="white" stroke="black"/>
<path d="M264.58 86.8702C271.27 85.8302 277.15 88.8302 278.68 94.9902C281.66 106.94 279.78 118.13 271.17 127.48C267.93 131 263.59 132.38 258.29 132.13C260.4 116.99 262.48 101.99 264.58 86.8702Z" fill="white" stroke="black"/>
<path d="M684.1 108.49C682.76 115.62 682.14 122.89 679.1 129.63C678.3 131.4 677.11 132.79 674.91 132.4C672.81 132.03 672.22 130.31 672.03 128.52C671.52 123.58 671.91 118.73 674.01 114.15C676.13 109.53 679.43 107.65 684.1 108.49Z" fill="white" stroke="black"/>
</g>
</svg>
