<svg width="822" height="905" viewBox="0 0 822 905" fill="none" xmlns="http://www.w3.org/2000/svg">
<g clip-path="url(#clip0_38_3125)">
<path d="M823 -1H-1V907H823V-1Z" fill="black" stroke="white" stroke-miterlimit="10"/>
<path d="M72.5 906C48 906 23.5 906 -1 906C-1 603.67 -1 301.33 -1 -1C273.67 -1 548.33 -1 823 -1C823 301.33 823 603.67 823 906C783.33 906 743.67 906 704 906C704.64 905.29 705.22 904.5 705.94 903.89C726.66 886.47 747.39 869.07 768.13 851.68C772.26 848.21 776.41 844.77 780.63 841.26C783.42 844.88 786 848.36 788.72 851.73C791.86 855.62 795.05 859.47 798.38 863.18C799.1 863.99 801.06 864.88 801.57 864.51C807.43 860.29 813.14 855.86 818.83 851.41C820.3 850.26 820.28 848.73 819.23 847.2C817.25 844.32 815.43 841.32 813.29 838.56C802.32 824.41 791.32 810.28 780.21 796.24C775.98 790.89 771.41 785.8 767.01 780.57C765.38 778.63 763.78 778.09 761.56 779.88C758.06 782.7 754.22 785.09 750.82 788.01C745.79 792.34 745.86 792.92 749.92 798.14C754.21 803.66 758.66 809.07 762.76 814.73C765.98 819.17 765.88 819.51 761.77 823.15C749.68 833.87 737.67 844.68 725.32 855.09C713.48 865.07 701.29 874.63 689.18 884.28C686.35 886.54 685.72 886.49 683.37 883.79C679.39 879.2 675.67 874.39 671.79 869.72C669.72 867.23 667.62 864.74 665.34 862.44C664.68 861.77 662.87 861.17 662.39 861.56C657.9 865.1 653.5 868.77 649.25 872.6C647.81 873.9 647.63 875.85 648.67 877.68C650.07 880.13 651.28 882.73 652.95 884.99C658.2 892.06 663.64 899 669 906C646.5 906 624 906 601.5 906C595.39 891.53 589.88 876.77 583.02 862.67C572.28 840.61 560.59 819.02 549.41 797.18C547.8 794.04 546.16 790.72 545.58 787.3C542.9 771.63 540.17 756 536.11 740.6C531.89 724.6 523.38 711.86 509.47 702.75C501.77 697.71 493.62 693.57 484.94 690.6C480.85 689.2 477.56 686.73 474.77 683.8C468.27 677 462.25 669.75 455.86 662.85C452.1 658.79 449.9 654.1 448.9 648.75C448.36 645.89 447.86 643.02 447.41 640.51C458.22 644.78 468.69 649.22 479.38 653.06C488.33 656.27 497.59 658.43 507.24 657.99C519.29 657.44 529.47 648.39 530.87 636.65C531.45 631.78 533.05 627.47 535.84 623.51C538.14 620.24 540.32 616.89 542.66 613.65C554.18 597.63 565.83 581.71 577.21 565.6C581.73 559.2 585.82 552.45 585.9 544.19C585.95 538.95 585.9 533.7 585.74 528.45C585.53 521.79 585.1 515.14 584.93 508.48C584.89 507.08 585.22 505.38 586.03 504.31C591.74 496.75 594.96 488.5 594.7 478.83C594.55 473.44 595.44 468.04 595.74 462.63C596.72 445.23 597.15 427.83 595.09 410.48C594.78 407.84 594.84 405.51 596.63 403.27C597.48 402.21 597.71 400.51 597.87 399.07C598.32 394.93 598.8 390.78 598.91 386.63C599.59 360.9 594.34 336.49 582.11 313.76C570.97 293.05 555.13 276.95 534.2 266.02C512.41 254.64 488.99 250.61 464.68 250.92C456.71 251.02 448.75 251.64 440.64 252.03C440.53 251.75 440.35 251.29 440.15 250.84C435.51 240.34 428.45 232.57 416.79 229.78C413.87 229.08 411.13 228.49 408.62 230.65C406.3 226.7 406.03 226.66 400.34 224.08C384.14 216.75 368.52 217.25 353.64 227.41C351.03 229.19 348.26 230.22 345.29 231.05C333.1 234.45 321.12 238.42 309.66 243.89C291.79 252.42 277.41 264.64 268.27 282.52C262.11 294.56 258.54 307.42 256.01 320.62C255.26 324.52 254.67 328.49 253.48 332.27C252.36 335.82 250.44 339.1 249.05 342.58C238.81 368.2 231.25 394.66 224.59 421.37C220.39 438.23 216.91 455.27 212.92 472.19C210.37 483.01 209.62 493.87 210.88 504.91C212.15 516.04 214.86 526.85 218.5 537.4C222.64 549.38 227.08 561.25 231.39 573.17C231.63 573.15 231.87 573.12 232.11 573.1C238.26 557.68 244.42 542.27 250.57 526.85C251 528.09 250.97 529.17 250.86 530.24C249.58 542.83 248.58 555.46 246.93 568C244.82 584 243.03 600.11 239.59 615.84C232.39 648.81 226.2 681.88 223.83 715.6C221.86 743.65 221.72 771.69 223.25 799.75C223.39 802.39 223.51 805.1 223.11 807.69C221.88 815.67 220.12 823.56 219.06 831.56C216.75 848.97 214.65 866.41 212.67 883.86C211.84 891.21 211.54 898.63 211.01 906.01C173.51 906.01 136.01 906.01 98.51 906.01C102.59 891.72 104.14 877.14 103.24 862.31C102.79 854.88 101.55 847.59 98.45 840.75C95.68 834.65 91.64 829.73 85.07 827.38C79.08 825.23 74.25 827.13 71.78 832.98C70.66 835.63 69.73 838.53 69.58 841.37C69.25 847.4 69.48 853.47 69.48 859.84C68.14 859.09 67.07 858.48 66 857.89C60.37 854.81 54.48 852.68 47.95 852.94C39.93 853.26 34.77 857.61 31.33 864.57C27.97 871.37 29.61 877.32 34.11 882.84C39.53 889.5 46.6 894.06 54.15 897.83C60.12 900.81 66.37 903.29 72.5 906ZM125.44 516.96C144.96 519.63 164.16 522.25 183.7 524.92C183.38 524.05 183.26 523.66 183.1 523.29C165.81 481.85 148.51 440.42 131.27 398.97C130.61 397.38 129.72 397.01 128.11 396.94C106.8 396.05 85.5 395.04 64.19 394.17C58.98 393.96 53.76 394.14 48.45 394.14C59.37 419.28 70.42 444.74 81.62 470.52C67.64 468.74 54.17 467.02 39.94 465.2C75.46 515.01 110.52 564.16 145.57 613.32C145.86 613.17 146.14 613.01 146.43 612.86C139.47 581.04 132.5 549.23 125.44 516.96ZM641.69 302.09C641.77 302.28 641.85 302.46 641.94 302.65C659.9 300.14 677.85 297.62 696.04 295.07C702.92 312.07 709.78 329.01 716.86 346.5C717.16 345.24 717.34 344.6 717.45 343.95C720.33 327.56 723.24 311.18 726.05 294.77C726.41 292.69 727.03 291.68 729.4 291.55C739.88 290.98 750.35 290.19 760.81 289.46C767.65 288.98 774.5 288.47 781.34 287.97C781.37 287.82 781.4 287.66 781.44 287.51C765.33 278.93 749.22 270.35 733.05 261.74C737.47 243.95 741.84 226.38 746.21 208.8C744.78 209.34 743.93 210.1 743.1 210.9C731.47 222.12 719.83 233.33 708.25 244.6C706.92 245.9 706.03 246.2 704.29 245.1C690.02 236.07 675.66 227.16 661.33 218.23C660.82 217.91 660.26 217.7 659.3 217.23C667.53 234.12 675.53 250.53 683.53 266.96C669.45 278.77 655.57 290.43 641.69 302.09ZM651.83 665.53C661.11 675.74 670.2 685.74 679.5 695.97C679.87 694.98 680.12 694.39 680.31 693.78C689.23 665.04 698.06 636.28 707.17 607.6C708.25 604.19 707.45 602.47 705.01 600.3C695.5 591.83 686.18 583.14 676.79 574.54C673.14 571.2 669.48 567.87 665.6 564.34C660.05 583.17 654.61 601.62 649.05 620.45C642.27 613.13 635.81 606.17 629.01 598.83C625.75 641.53 622.53 683.61 619.31 725.69C619.63 725.77 619.95 725.85 620.26 725.93C630.71 705.93 641.16 685.94 651.83 665.53ZM111.78 98.75C112.13 96.09 112.44 93.71 112.74 91.34C113.38 86.39 114.29 81.46 114.57 76.49C114.86 71.2 111.82 68.05 106.66 67.4C102.28 66.85 98.27 68.04 94.33 69.8C92.8 70.49 92.15 71.4 91.91 73.11C89.06 93.12 86.09 113.12 83.17 133.12C82.43 138.18 81.73 143.24 81.01 148.33C89.07 148.33 96.86 148.33 104.74 148.33C106.21 137.91 107.67 127.65 109.13 117.31C116.01 117.31 122.71 117.31 129.73 117.31C128.21 127.75 126.72 138 125.22 148.33C133.26 148.33 141.04 148.33 148.86 148.33C150.17 139.11 151.45 130.05 152.75 120.99C154.79 106.66 156.89 92.34 158.87 78C159.69 72.06 156.33 67.7 150.36 67.48C147.14 67.36 143.85 68.3 140.63 68.96C137.52 69.59 135.86 71.42 135.89 74.85C135.91 77.07 135.3 79.29 134.98 81.52C134.14 87.25 133.29 92.99 132.44 98.76C125.52 98.75 118.88 98.75 111.78 98.75ZM387.9 75.85C374.12 66.51 359.8 64.24 344.79 70.89C328.08 78.3 327.75 102.96 338.68 111.75C342.43 114.77 347.07 116.67 351.33 119.04C353.21 120.09 355.32 120.79 357.03 122.06C360.06 124.3 359.54 128.09 356.13 129.67C355.17 130.11 354.09 130.44 353.03 130.55C344.77 131.37 337.15 129.82 330.56 124.11C328.25 128.76 326.05 133.42 323.64 137.96C322.74 139.66 323.09 140.53 324.53 141.65C337.54 151.85 359.68 152.39 373.07 142.75C383.85 134.99 387.36 118.77 380.56 107.96C376.81 102 370.89 99.04 364.61 96.55C362.23 95.61 359.81 94.57 357.74 93.11C355.08 91.23 355.41 88.25 358.45 87.09C360.46 86.32 362.95 85.85 364.97 86.33C368.75 87.23 372.35 88.93 376.42 90.44C379.82 86.11 383.72 81.16 387.9 75.85ZM616.52 128.19C616.52 119.12 616.58 110.04 616.5 100.97C616.45 95.14 613.24 91.02 607.5 90.56C603.29 90.22 598.92 90.93 594.71 91.69C591.05 92.35 591.09 92.78 591.63 96.41C593.6 109.58 595.61 122.74 597.42 135.93C598.11 140.95 599.31 145.43 604.58 147.64C600.55 152.94 595.67 156.82 589.63 159.51C592.48 164.86 595.23 170.03 598.01 175.26C605.96 171.85 612 166.52 617.24 160.32C631.67 143.26 641.06 123.56 647.01 102.14C647.8 99.3 648.26 96.36 648.92 93.27C641.46 92.16 634.44 91.12 627.3 90.06C624.6 103.22 621.75 116.01 616.52 128.19ZM747.08 436.38C747.08 435.85 747.07 435.37 747.08 434.88C747.21 430.06 747.57 425.23 747.43 420.42C747.27 414.82 746.32 409.33 743.52 404.32C740.93 399.68 736.4 397.39 731.32 398.94C727.97 399.96 724.57 401.49 721.81 403.6C714.93 408.87 711.77 416.56 710.01 424.73C704.96 448.21 707.76 471.22 714.63 493.93C715.07 495.4 715.88 495.64 717.21 495.36C722.57 494.22 728.03 493.4 733.3 491.95C749.75 487.43 765.51 481.24 779.32 470.96C782.63 468.5 785.77 465.62 788.36 462.43C797.81 450.8 791.97 433.48 777.43 429.48C770.51 427.58 763.87 428.91 757.43 431.47C753.94 432.87 750.59 434.7 747.08 436.38ZM442.25 145.88C441.91 143.28 441.3 141.16 441.42 139.08C441.64 135.35 442.23 131.64 442.77 127.94C444.14 118.55 445.63 109.19 446.94 99.79C447.84 93.37 444.41 89.57 437.9 90.18C434.14 90.53 430.42 91.66 426.77 92.73C425.88 92.99 424.89 94.31 424.69 95.29C423.96 98.96 423.65 102.71 422.98 106.39C421.75 113.17 420.45 119.94 418.99 126.68C418.69 128.05 417.77 129.5 416.71 130.41C415.92 131.09 414.3 131.39 413.32 131.05C412.6 130.8 412.02 129.29 411.92 128.28C411.77 126.73 411.99 125.12 412.23 123.56C413.43 115.66 414.76 107.79 415.91 99.88C416.86 93.41 413.51 89.6 407 90.18C403.15 90.52 399.39 91.81 395.58 92.65C394.14 92.97 393.66 93.85 393.47 95.28C392.61 101.8 391.53 108.28 390.71 114.81C389.86 121.57 388.79 128.35 388.62 135.14C388.41 143.17 392.71 148.39 399.48 149.39C405.71 150.3 411.21 148.73 415.57 143.96C416.67 142.75 417.71 141.49 418.88 140.12C419.02 140.82 419.11 141.31 419.22 141.8C420.4 147.28 423.52 149.73 429.1 149.56C433.95 149.42 438.35 147.78 442.25 145.88ZM162.25 694.94C162.11 694.87 161.97 694.8 161.83 694.73C161.35 695.16 160.87 695.58 160.4 696.03C154.4 701.8 148.37 707.55 142.43 713.38C141.34 714.45 140.62 714.6 139.28 713.74C132.34 709.3 125.33 704.97 118.34 700.61C117.69 700.2 116.98 699.88 115.76 699.22C120.25 708.46 124.44 717.09 128.67 725.8C121.15 732.13 113.79 738.33 106.43 744.53C106.53 744.66 106.62 744.79 106.72 744.92C116.26 743.59 125.79 742.25 135.39 740.91C139.08 749.99 142.7 758.88 146.32 767.77C148.39 758.81 149.99 750.06 151.45 741.28C151.72 739.66 152.27 739.04 153.95 738.96C159.52 738.69 165.09 738.27 170.65 737.88C174.03 737.64 177.4 737.35 181.36 737.04C180.43 736.46 180.03 736.19 179.61 735.96C172.13 731.96 164.67 727.93 157.14 724.01C155.67 723.25 155.32 722.52 155.78 720.91C156.92 716.91 157.84 712.85 158.83 708.82C159.98 704.21 161.11 699.57 162.25 694.94ZM80.48 233.63C79.44 233.02 78.74 232.59 78.03 232.19C71.85 228.72 65.39 226.17 58.15 226.53C50.19 226.92 44.97 231.32 41.46 238.2C38.05 244.89 39.24 251.02 43.81 256.53C46.28 259.51 49.1 262.36 52.22 264.63C67.98 276.1 85.84 282.59 104.9 286.01C108.72 286.69 108.79 286.55 109.9 282.79C114.2 268.22 116.02 253.32 115.38 238.16C115.06 230.49 113.97 222.91 111.01 215.74C107.86 208.12 103.18 202.01 94.7 199.86C90.27 198.74 86.27 199.98 84.23 204.03C82.47 207.52 81.03 211.44 80.65 215.28C80.05 221.2 80.48 227.23 80.48 233.63ZM191 284.3C193.24 275.26 195.43 266.42 197.62 257.58C197.47 257.5 197.32 257.42 197.17 257.34C190.59 263.67 184.01 270 177.34 276.41C169.45 271.5 161.67 266.66 153.9 261.82C157.3 269.81 160.95 277.45 164.73 285.03C165.45 286.47 165.46 287.31 164.09 288.33C161.95 289.91 159.99 291.73 157.95 293.44C153.52 297.16 149.09 300.89 144.27 304.94C145.45 304.94 146.08 305.01 146.7 304.93C154.28 303.86 161.87 302.83 169.43 301.65C171.39 301.34 172.34 301.72 173.09 303.74C175.6 310.43 178.37 317.02 181.06 323.64C181.51 324.76 182.01 325.87 182.76 327.63C184.39 318.45 185.94 310.05 187.35 301.62C187.61 300.05 188.24 299.57 189.75 299.49C195.32 299.2 200.89 298.8 206.45 298.41C209.35 298.21 212.24 297.93 215.14 297.69C215.15 297.52 215.15 297.34 215.16 297.17C207.17 292.92 199.19 288.67 191 284.3ZM171.7 68.35C167.94 95.12 164.22 121.69 160.39 148.96C172.18 149.09 183.65 149.5 195.11 149.24C201.53 149.09 207.73 147.16 213.4 143.93C220.9 139.66 225.59 133.44 226.35 124.68C227.01 117.02 224.24 110.89 217.6 106.73C224.49 100.05 225.69 98.35 227.19 93.21C230.07 83.38 227.16 75.21 218.89 71.01C216.05 69.57 212.81 68.28 209.69 68.13C200.48 67.68 191.25 67.78 182.02 67.79C178.64 67.79 175.25 68.15 171.7 68.35ZM477.54 98.59C477.35 97.79 477.18 97.24 477.08 96.68C476.17 91.75 473.5 89.62 468.49 90.18C466.02 90.45 463.62 91.23 461.16 91.6C457.31 92.18 455.93 94.26 455.43 98.17C452.89 117.89 449.99 137.57 447.22 157.26C446.46 162.68 445.72 168.11 444.95 173.69C452.73 173.69 460.27 173.69 467.9 173.69C468.93 166.31 470.02 159.07 470.89 151.8C471.11 149.91 471.78 149.49 473.53 149.54C480.06 149.7 486.27 148.33 491.96 145.04C505.06 137.49 513.02 118.32 509.13 103.66C507.32 96.85 503.2 92.07 496.2 90.53C489.1 88.96 483.28 91.44 478.83 97.18C478.47 97.62 478.07 98 477.54 98.59ZM230.76 148.96C241.53 149.11 251.94 149.81 262.28 149.24C274.05 148.59 284.36 143.9 292.25 134.75C299.89 125.89 302.83 115.3 303.37 103.89C304.32 83.52 294.27 70.71 274.09 67.97C266.01 66.87 257.65 67.77 249.42 67.85C246.97 67.87 244.52 68.21 242.06 68.4C238.29 95.25 234.57 121.74 230.76 148.96ZM702.07 146.4C701.88 142.35 701.3 139.2 701.68 136.18C702.86 126.77 704.41 117.41 705.8 108.03C706.61 102.54 707.39 97.04 708.2 91.48C707.55 91.3 707.16 91.12 706.77 91.11C698.45 90.76 690.13 90.16 681.81 90.17C673.69 90.18 666.13 92.56 659.97 98.05C648.95 107.86 645.61 120.6 647.34 134.7C648.25 142.12 652.82 147.45 660.36 149.16C667.6 150.8 673.64 148.34 678.1 142.31C678.34 141.99 678.38 141.54 678.68 140.69C681.54 148.45 684.1 150.37 690.88 149.4C694.92 148.81 698.84 147.29 702.07 146.4ZM511.5 148.36C519.34 148.36 526.88 148.36 534.49 148.36C535.17 143.71 535.65 139.15 536.53 134.67C537.86 127.92 539.17 121.13 541.09 114.54C542.37 110.14 546.17 109.02 550.34 111C550.93 111.28 551.49 111.61 552.25 112.02C555.18 105.45 558.07 98.98 560.99 92.44C556.99 90.57 553.22 89.56 549.11 90.44C544.77 91.37 542.54 94.79 540.21 98.27C537.42 90.79 534.87 89.27 527.2 90.53C525.08 90.88 523.03 91.63 520.93 92.15C519.52 92.5 519.01 93.32 518.83 94.78C518.06 101.05 517.12 107.31 516.26 113.57C514.66 125.1 513.1 136.64 511.5 148.36ZM581.25 145.91C580.94 143.11 580.24 140.72 580.5 138.43C581.41 130.17 582.63 121.94 583.76 113.7C584.77 106.3 585.81 98.91 586.89 91.14C585.83 91.14 585.03 91.14 584.23 91.14C578.32 91.14 572.41 91.25 566.5 91.08C564.28 91.01 563.72 91.84 563.47 93.85C562.31 103.17 560.96 112.47 559.74 121.79C558.92 128.05 557.89 134.31 557.57 140.61C557.28 146.18 560.8 149.33 566.38 149.57C571.87 149.82 576.83 148.09 581.25 145.91ZM714.37 117.84C722.15 117.84 729.51 117.84 736.9 117.84C739.29 101.32 741.64 84.98 744.04 68.36C736.45 68.36 729.14 68.33 721.84 68.44C721.37 68.45 720.61 69.58 720.51 70.26C719.15 80.14 717.87 90.04 716.6 99.93C715.85 105.86 715.13 111.78 714.37 117.84ZM722.08 149.58C730.83 149.56 736.15 144.16 736.14 135.32C736.14 128.18 731.56 123.91 723.93 123.91C715.22 123.92 709.88 129.35 709.92 138.2C709.94 145.47 714.36 149.6 722.08 149.58ZM577.21 85.14C585.16 85.08 590.11 79.94 590.08 71.78C590.05 65.27 585.78 61.43 578.64 61.5C570.87 61.58 565.63 67 565.66 74.92C565.69 81.37 570.01 85.19 577.21 85.14Z" fill="white" stroke="black"/>
<path d="M370.5 906C317.67 906 264.83 906 212 906C212.21 902.35 212.23 898.67 212.65 895.04C215.23 872.71 217.84 850.39 220.58 828.08C221.29 822.35 222.52 816.68 223.51 810.98C223.62 811 223.74 811.02 223.85 811.04C224.83 821.34 225.8 831.64 226.78 841.95C227.71 841.15 228.11 840.34 228.47 839.52C233.98 826.5 239.41 813.45 245.01 800.47C251.69 785 259.34 770.06 269.78 756.71C270.19 756.19 270.68 755.72 271.3 755.04C275.68 776.28 281.27 796.65 292.25 815.45C292.74 814.84 292.92 814.72 292.92 814.6C292.91 814.1 292.88 813.61 292.81 813.12C290.42 796.17 290.33 779.25 293.55 762.39C296.81 745.29 303.14 729.53 314.12 715.84C318.35 710.56 323.13 705.86 328.99 701.74C328.84 702.59 328.78 703.06 328.68 703.52C324.23 723.75 319.76 743.98 315.36 764.22C315.21 764.89 315.71 765.7 315.9 766.45C316.42 765.86 317.21 765.35 317.43 764.66C320.47 755.02 325.23 746.3 331.43 738.36C345.82 719.92 364.4 707.03 385.73 697.93C416.48 684.81 448.19 681.1 480.62 690.22C495.46 694.39 509.01 701.67 520.08 712.83C520.37 713.12 520.55 713.53 520.7 713.76C513.9 713.76 507.12 713.12 500.49 713.89C485.32 715.64 471.39 721.4 458.2 728.9C428.95 745.5 406.3 768.72 389.77 797.93C381.22 813.03 375.03 828.96 372.89 846.38C370.44 866.2 370.13 886.08 370.5 906Z" fill="white" stroke="black"/>
<path d="M556.5 906C494.83 906 433.17 906 371.5 906C371.13 888.42 371.22 870.85 373.07 853.34C374.18 842.9 375.69 832.52 379.41 822.62C390.28 793.75 407.55 769.31 430.91 749.24C447.95 734.6 466.89 723.22 488.72 717.2C499.32 714.28 510.09 712.77 521.03 715.38C522.04 715.62 523.13 716.3 523.8 717.1C529.54 723.85 532.57 731.95 534.9 740.33C542.34 767.05 545.76 794.47 548.94 821.92C550.8 837.96 552.29 854.05 553.75 870.13C554.84 882.08 555.6 894.04 556.5 906Z" fill="white" stroke="black"/>
<path d="M702 906C691.5 906 681 906 670.5 906C667.01 901.75 663.36 897.63 660.09 893.22C656.67 888.62 653.47 883.84 650.44 878.97C648.35 875.6 648.49 874.2 651.4 871.52C654.81 868.37 658.57 865.58 662.29 862.79C662.77 862.43 664.27 862.71 664.77 863.21C666.71 865.14 668.49 867.24 670.23 869.36C674.4 874.44 678.38 879.69 682.72 884.63C685.38 887.67 686.16 887.53 689.51 885.28C690.62 884.54 691.74 883.81 692.76 882.96C710.57 868.18 728.41 853.43 746.14 838.54C752 833.62 757.56 828.33 763.23 823.17C766.64 820.06 766.78 819.3 764.36 815.32C763.11 813.26 761.67 811.31 760.19 809.41C756.52 804.67 752.81 799.96 749.05 795.29C747.69 793.6 747.7 792.1 749.35 790.75C754.16 786.83 759.02 782.98 764.35 778.71C765.76 780.42 766.78 781.63 767.77 782.86C779.02 796.89 790.34 810.87 801.48 824.99C807.05 832.04 812.24 839.39 817.7 846.52C819.41 848.75 819 850.46 816.97 852.01C812.21 855.65 807.4 859.21 802.66 862.87C801.17 864.02 800.07 863.83 798.91 862.41C795.54 858.28 792.06 854.24 788.72 850.09C786.03 846.74 783.47 843.29 780.82 839.82C780.18 840.32 779.71 840.67 779.27 841.04C764.92 853.08 750.56 865.12 736.21 877.17C724.79 886.78 713.4 896.4 702 906Z" fill="white" stroke="black"/>
<path d="M97.5 906C90.17 906 82.83 906 75.5 906C74.78 905.66 74.06 905.29 73.33 904.97C67.07 902.29 60.67 899.9 54.57 896.89C46.78 893.03 39.48 888.36 34.13 881.26C30.32 876.21 29.27 870.81 32.24 864.91C35.37 858.7 39.91 854.5 47.16 853.97C53.9 853.48 59.94 855.69 65.71 858.87C67.28 859.73 68.77 860.72 70.51 861.78C70.3 857.88 70.01 854.32 69.95 850.76C69.84 844.82 70.2 838.92 72.63 833.38C74.92 828.16 79.18 826.13 84.43 828.29C87.35 829.49 90.15 831.39 92.46 833.55C96.58 837.41 98.64 842.61 99.94 848C104.64 867.56 102.56 886.85 97.5 906Z" fill="white" stroke="black"/>
<path d="M557.5 906C556.6 894.05 555.84 882.09 554.75 870.16C553.29 854.09 551.67 838.03 549.96 821.98C549.05 813.38 547.82 804.81 546.74 796.23C546.68 795.78 546.65 795.32 546.93 794.75C549.34 799.28 551.81 803.78 554.15 808.35C564.34 828.25 574.78 848.03 584.54 868.14C590.11 879.63 594.53 891.68 599.46 903.47C599.81 904.31 600.15 905.15 600.5 906C586.17 906 571.83 906 557.5 906Z" fill="white" stroke="black"/>
<path d="M504.43 542.12C504.05 544.13 503.57 545.81 503.43 547.51C502.79 554.91 507.27 560.07 514.71 560.43C516.68 560.52 518.75 560.4 520.65 559.9C522.97 559.3 524.9 559.76 526.8 560.97C530.24 563.15 533.58 565.51 537.15 567.44C541.19 569.63 545.6 569.84 550.01 568.57C555.78 566.91 559.36 561.88 558.17 556.02C556.67 548.62 554.56 541.35 552.58 534.06C550.38 525.96 547.93 517.93 545.84 509.8C545.33 507.82 545.76 505.59 545.76 502.92C547.94 503.76 549.36 504.35 550.81 504.85C554.03 505.96 557.29 506.97 560.5 508.11C568.27 510.87 575.56 509.65 582.56 505.63C582.91 505.43 583.28 505.28 584.22 504.82C584.22 510.05 584.13 514.9 584.24 519.75C584.41 527.08 584.74 534.4 584.98 541.72C585.22 548.92 582.84 555.36 578.83 561.14C569.91 573.99 560.81 586.72 551.74 599.47C546.82 606.39 541.88 613.3 536.84 620.13C532.8 625.6 530.06 631.5 529.53 638.4C529.12 643.68 526.26 647.65 522.17 650.94C514.3 657.27 505.36 658.01 495.91 656.28C479.48 653.26 464.14 647.12 449.39 639.49C446.45 637.97 443.76 635.54 441.61 632.98C427.23 615.88 415.04 597.28 406.3 576.72C402.72 568.31 400.55 559.15 398.9 550.12C396.82 538.76 395.72 527.21 394.59 515.71C393.71 506.73 395.18 497.9 398.25 489.43C402.75 477 407.24 464.56 412.21 452.32C419.7 433.87 433.3 421.67 451.73 414.35C466.68 408.42 481.06 401.29 494.29 392.01C500.29 387.8 505.45 383.11 508.37 375.96C510.59 370.51 515.63 367.15 521.19 365.54C542.41 359.43 562.23 362.31 579.95 375.95C586.97 381.35 590.06 389.2 591.94 397.57C595.18 411.98 595.73 426.63 595.43 441.3C595.2 452.79 594.43 464.26 593.88 475.74C593.85 476.46 593.67 477.18 593.57 477.78C584.23 472.38 574.61 471.81 564.75 475.52C562.89 476.22 561.07 477.63 559.84 479.19C558.96 480.29 558.41 482.58 558.99 483.64C559.56 484.67 561.8 485.37 563.22 485.23C566.34 484.92 569.53 484.34 572.46 483.25C579.36 480.7 586.08 482.2 593.05 483.49C593.36 490.03 590.73 495.46 587.38 500.48C584.91 498.43 582.67 496.22 580.11 494.5C570.27 487.88 560 490.14 550.07 496.81C545.4 499.95 543.78 504.86 544.89 510.46C545.42 513.15 545.98 515.85 546.76 518.47C549.66 528.28 552.7 538.04 555.6 547.85C556.28 550.15 556.73 552.55 557.06 554.93C558.22 563.34 553.14 568.94 544.61 568.16C541.33 567.86 538.09 566.44 534.99 565.14C533.04 564.32 531.34 562.84 529.61 561.54C526.39 559.13 523.1 558.15 518.91 559.14C512.58 560.63 507.21 558.11 505.16 553.31C503.78 550.08 503.97 546.71 505.33 543.58C506.41 541.1 508.02 538.84 509.47 536.53C510 535.68 510.74 534.97 511.38 534.19C511.2 534.02 511.03 533.85 510.85 533.68C510.41 534.04 509.89 534.33 509.54 534.76C497.29 550.08 481.45 559.99 462.9 565.9C461.21 566.44 459.53 567.66 458.32 569C449.76 578.44 447.08 589.88 447.4 602.28C447.41 602.47 447.59 602.66 448.13 602.88C448.22 601.81 448.39 600.73 448.39 599.66C448.36 588.15 451.59 577.82 459.44 569.19C460.29 568.26 461.46 567.44 462.64 567.04C475.57 562.63 487.9 557.14 498.21 547.89C500.26 546.07 502.23 544.18 504.43 542.12ZM456.27 464.06C456.38 464.35 456.49 464.64 456.6 464.93C461.59 464.19 466.56 463.32 471.57 462.75C478.49 461.95 485.44 460.57 492.35 462.99C501.98 466.36 511.15 470.59 519.32 476.81C521.43 478.42 523.62 479.96 525.94 481.25C528.41 482.63 530.14 482.2 531.44 480.32C532.72 478.47 532.4 475.42 530.43 474.07C523.04 468.99 515.81 463.59 508.03 459.16C495.37 451.95 482.05 451.46 468.71 457.53C464.45 459.45 460.41 461.87 456.27 464.06ZM502.85 501.26C505.5 501.02 508.16 500.85 510.79 500.48C511.36 500.4 512.24 499.54 512.25 499.04C512.28 493.33 510.8 488.06 506.37 484.2C499.9 478.56 492.33 476.09 483.72 477.27C474.03 478.6 465.4 482.58 457.35 487.95C456.55 488.49 456.05 489.48 455.4 490.26C456.31 490.68 457.18 491.34 458.13 491.48C467.61 492.85 477.04 494.45 486.01 498.01C491.43 500.15 497.02 501.2 502.85 501.26ZM553.58 577.16C547.87 576.88 542.55 577.3 537.54 579.19C534.28 580.42 531.63 580.19 528.39 578.86C516.75 574.07 504.41 572.08 491.94 571.02C485.06 570.43 478.14 570.39 471.24 569.94C468.23 569.75 465.24 569.16 462.21 568.75C463.86 572.83 465.49 576.61 466.93 580.46C471.82 593.57 480.85 602.52 493.89 607.48C501.73 610.46 509.91 611.76 518.23 612.6C529.95 613.78 539.07 609.27 545.36 599.74C549.59 593.34 552.71 586.2 556.22 579.33C556.88 578.03 557.24 576.47 557.34 575C557.51 572.23 557.39 569.43 557.39 566.65C557.15 566.62 556.91 566.6 556.67 566.57C556.81 572.39 556.61 578.13 552.99 583.69C553.21 581.25 553.38 579.38 553.58 577.16ZM575.6 517.79C568.58 519.4 561.83 518.1 555.17 515.83C561.71 519.27 568.49 520.32 575.6 517.79ZM468.9 501.12C472.78 504.14 485.41 507.92 488.19 507.12C481.95 505.18 475.6 503.2 468.9 501.12Z" fill="white" stroke="black"/>
<path d="M474.91 687.39C468.87 686.51 463.38 685.51 457.86 684.95C439.91 683.15 422.28 685.07 404.98 690.01C381.65 696.67 360.68 707.68 342.85 724.29C331.99 734.4 323.33 746.08 317.97 760.05C317.77 760.57 317.54 761.08 316.85 761.46C317.66 757.51 318.41 753.54 319.28 749.6C324.88 724.26 330.76 698.98 336.07 673.58C341.88 645.78 344.91 617.68 343.6 589.22C343.59 588.97 343.6 588.72 343.6 587.98C344.8 592.69 345.76 596.96 347 601.15C349.62 609.99 353.14 618.4 359.34 625.43C362.89 629.46 367.18 632.34 372.43 633.71C376.8 634.85 379.57 633.89 382.1 630.09C385.18 625.47 386.31 620.17 387.02 614.79C389.84 593.36 385.68 573.05 377 553.5C373.34 545.27 369.19 537.32 363.69 530.13C363.21 529.5 363.1 528.48 363.07 527.63C363.04 526.73 363.31 525.82 363.45 524.92C364.58 517.53 361.71 512.08 355.31 508.44C351.05 506.02 346.65 503.83 342.4 501.37C336.42 497.91 333.42 494.81 339.08 486.02C340.68 483.54 342.9 481.43 344.99 479.29C348.19 476.03 348.74 473.09 346.47 469.2C342.93 463.14 339.05 457.31 333.53 452.83C331.94 451.53 330.15 450.3 328.24 449.62C326.34 448.94 325.56 447.99 325.18 446.03C322.02 429.75 319.22 413.45 318.81 396.81C318.35 378.01 322.2 360.02 327.5 342.1C331.55 328.38 340.27 317.84 348.41 306.71C350.94 303.25 353.96 303.38 357.45 303.2C355.56 309.5 353.61 315.74 351.82 322.02C344.56 347.55 340.22 373.48 341.18 400.12C342.17 427.77 348.8 454.24 358.19 480.11C365.77 501 374.79 521.28 384.4 541.3C384.66 541.85 385 542.66 384.79 543.09C381.04 550.7 382.92 558.5 384.33 566.11C390.3 598.35 405.72 625.88 427.26 650.18C440.52 665.14 455.94 677.46 473.76 686.67C474.03 686.83 474.28 687.01 474.91 687.39Z" fill="white" stroke="black"/>
<path d="M348.36 259.08C350.34 261.85 352.2 264.46 354.2 267.26C349.68 274.71 347.44 283.18 346.19 291.98C345.58 296.32 345.98 300.18 350.49 302.71C349.58 303.87 348.71 304.93 347.89 306.02C342.93 312.7 337.47 319.09 333.2 326.19C330.04 331.45 328.24 337.57 326.21 343.44C324.5 348.38 323.66 353.63 321.84 358.52C320.14 363.09 317.74 367.41 315.51 371.77C308.76 384.95 301.92 398.08 295.21 411.28C294.41 412.84 293.36 413.57 291.77 414.12C271.78 421.07 252.8 430.02 235.97 443.07C227.55 449.6 224.37 453.32 214.98 467.01C216.01 462.13 216.97 457.24 218.07 452.38C225.13 421.3 233.08 390.47 243.46 360.31C247.25 349.3 251.01 338.25 256.93 328.15C264.66 314.95 275.41 304.41 287.26 294.95C305.99 280.02 326.63 268.32 348.36 259.08Z" fill="white" stroke="black"/>
<path d="M317.43 381.6C317.97 392.76 318.04 403.97 319.19 415.07C320.34 426.21 322.57 437.23 324.32 448.31C315.76 450.2 310.2 457.44 309.48 467.56C308.92 475.43 310.49 482.98 312.82 490.4C317.01 503.72 321.19 517.04 325.58 530.3C327.34 535.61 329.79 540.69 334.34 544.29C335.75 545.4 337.43 546.57 339.12 546.83C341.91 547.26 342.08 548.87 342.07 551.03C342.04 557.61 342.04 564.19 342.1 570.77C342.23 585.42 342.75 600.08 342.45 614.73C342.03 635.26 338.75 655.5 334.72 675.61C333.23 683.03 331.61 690.43 329.93 697.81C329.68 698.93 329.08 700.27 328.2 700.91C317.08 709.07 308.88 719.61 302.64 731.79C302.38 732.3 302.11 732.81 301.47 734.03C300.76 729.89 300.06 726.46 299.61 723C296.9 702.12 293.83 681.27 291.68 660.32C288.69 631.12 287.81 601.82 288.89 572.46C289.88 545.63 292.49 518.97 296.33 492.41C301.62 455.82 309.16 419.67 317.08 383.58C317.23 382.88 317.45 382.2 317.64 381.51C317.58 381.54 317.51 381.57 317.43 381.6Z" fill="white" stroke="black"/>
<path d="M447.7 415.52C448.56 413.88 447.07 413.43 446.21 412.79C438.07 406.67 430.43 400.01 423.71 392.33C410.73 377.49 403.27 359.96 398.54 341.08C394.02 323.03 391.66 304.62 389.91 286.13C389.84 285.36 390.59 284.14 391.31 283.72C396.74 280.48 402.3 277.46 407.73 274.2C409.4 273.2 410.69 271.56 412.32 270.48C414.01 269.36 416.03 268.73 417.69 267.58C419.87 266.07 421.39 267.43 423.1 268.37C437.48 276.33 451.31 285.05 463.39 296.33C476.78 308.84 485.94 323.96 491.47 341.36C495.98 355.55 498.26 370.17 499.82 384.91C499.9 385.7 499.37 386.86 498.74 387.36C490.59 393.89 481.57 399.05 472.03 404.13C453.58 359.56 430.83 317.48 403.13 278.12C429.83 317.95 452.7 359.85 471.09 404.56C468.03 406 464.93 407.51 461.77 408.92C457.52 410.82 453.24 412.64 448.98 414.53C448.51 414.74 448.13 415.16 447.7 415.49V415.52Z" fill="white" stroke="black"/>
<path d="M304.88 395.44C302.18 403.99 299.35 412.49 296.81 421.09C287.98 450.97 281.34 481.36 276.54 512.12C273.32 532.75 270.42 553.46 268.2 574.22C264.1 612.61 262.44 651.13 264.12 689.74C265.03 710.64 266.96 731.44 270.73 752.04C270.87 752.82 270.65 753.92 270.16 754.52C257.45 770.43 248.86 788.6 241 807.18C236.98 816.68 233.03 826.19 229.03 835.7C228.68 836.52 228.28 837.32 227.45 838.11C226.99 833.71 226.47 829.32 226.08 824.91C224.04 801.91 222.96 778.87 223.15 755.78C223.51 712.41 228.31 669.55 238.22 627.32C242.85 607.59 245.78 587.6 248 567.49C249.64 552.59 250.98 537.67 252.49 522.76C252.59 521.79 252.94 520.82 253.3 519.91C267.27 484.75 281.19 449.57 295.29 414.47C297.94 407.87 301.35 401.56 304.4 395.12C304.56 395.22 304.72 395.33 304.88 395.44Z" fill="white" stroke="black"/>
<path d="M319.95 366.31C317.91 375.56 315.85 384.8 313.82 394.05C306.18 428.85 299.28 463.77 294.39 499.08C289.29 535.95 286.77 572.97 287.66 610.19C288.29 636.77 290.35 663.26 293.9 689.61C295.89 704.37 298.25 719.08 300.36 733.83C300.54 735.07 300.38 736.52 299.9 737.68C291.95 756.62 289.31 776.42 290.28 796.8C290.51 801.59 290.98 806.36 290.89 811.35C289.1 807.56 287.18 803.82 285.54 799.97C277.99 782.25 273.54 763.67 270.52 744.72C264.86 709.21 263.81 673.46 264.92 637.59C265.74 611.1 267.79 584.71 270.92 558.39C276.39 512.38 284.48 466.87 297.53 422.36C301.22 409.77 305.59 397.35 310.21 385.06C312.67 378.51 316.34 372.4 319.46 366.1C319.63 366.17 319.79 366.24 319.95 366.31Z" fill="white" stroke="black"/>
<path d="M373.12 294.06C372.64 300.93 372.17 307.15 371.78 313.37C370.02 341.71 371.31 369.77 379.49 397.21C384.81 415.06 392.41 431.94 401.23 448.29C403.23 452.01 405.49 455.59 407.51 459.3C407.81 459.84 407.54 460.82 407.3 461.51C403.81 471.29 400.19 481.02 396.78 490.84C393.91 499.12 393.07 507.71 393.52 516.44C393.59 517.71 393.33 519.07 392.91 520.28C390.85 526.25 388.69 532.19 386.56 538.13C386.27 538.95 385.94 539.76 385.39 541.21C382.66 535.34 380.2 530.09 377.79 524.82C367.79 502.87 358.58 480.62 351.83 457.41C344.3 431.53 340.65 405.22 342.53 378.24C344.06 356.38 348.75 335.15 355.1 314.24C356.16 310.74 357.31 307.26 358.46 303.79C358.69 303.11 358.98 302.24 359.52 301.92C363.86 299.33 368.25 296.85 373.12 294.06Z" fill="white" stroke="black"/>
<path d="M594.45 404.66C593.84 401.76 593.3 399.26 592.79 396.76C589.43 380.4 578.75 370.86 563.58 365.59C560.53 364.53 557.37 363.68 554.19 363.09C552.46 362.77 551.89 361.96 551.49 360.44C547.97 347.05 543.32 334.08 536.64 321.9C526.05 302.58 510.47 288.53 491 278.56C474.56 270.14 457.08 264.52 439.39 259.49C438.62 259.27 437.85 259.03 437.29 258.86C438.34 257.27 439.29 255.66 440.43 254.2C440.86 253.66 441.73 253.25 442.44 253.17C456.14 251.7 469.86 251.3 483.59 252.63C499.6 254.18 515.05 257.91 529.64 264.89C554.27 276.66 572.18 295.14 583.92 319.62C595.18 343.11 599.54 367.93 597.38 393.86C597.1 397.42 597.46 401.27 594.45 404.66Z" fill="white" stroke="black"/>
<path d="M231.78 569.78C229.18 563.05 226.45 556.36 224.02 549.57C218.97 535.45 214.82 521.08 212.74 506.19C211.56 497.75 211.07 489.29 212.18 480.79C213.65 469.49 219.44 460.42 227.12 452.44C238.13 441 251.47 432.82 265.67 426.09C274.06 422.11 282.82 418.89 291.42 415.34C292.16 415.03 292.94 414.84 294.19 414.43C273.47 466.48 252.93 518.11 232.38 569.73C232.18 569.74 231.98 569.76 231.78 569.78Z" fill="white" stroke="black"/>
<path d="M421.42 265.89C425.77 263.77 429.99 261.67 434.26 259.66C434.79 259.41 435.59 259.48 436.19 259.65C453.65 264.55 470.88 270.05 487.35 277.83C515.8 291.27 534.59 313.16 544.89 342.62C547.13 349.04 549.07 355.56 551.25 362.36C548.64 362.12 546.51 361.89 544.38 361.75C535.99 361.19 527.7 361.74 519.84 364.97C513.64 367.52 508.77 371.51 506.17 378.03C505.14 380.62 503.22 382.87 501.71 385.27C501.46 385.16 501.21 385.05 500.95 384.94C500.3 380.1 499.72 375.25 498.99 370.43C496.5 353.81 492.58 337.61 484.74 322.58C475.52 304.9 461.58 291.62 445.22 280.72C437.55 275.61 429.57 270.94 421.42 265.89Z" fill="white" stroke="black"/>
<path d="M447.71 415.51C442.7 418.22 437.41 420.51 432.75 423.73C421.76 431.34 415.33 442.52 410.1 454.49C409.57 455.71 409.07 456.94 408.55 458.16C408.52 458.23 408.45 458.29 408.12 458.67C407.11 456.9 406.16 455.25 405.23 453.58C394.97 435.14 386.02 416.14 380.11 395.82C373.34 372.55 371.34 348.74 372.3 324.64C372.68 314.99 373.48 305.36 374.01 295.71C374.1 294.01 374.75 293.02 376.24 292.21C380.31 290.02 384.3 287.67 388.67 285.19C389.14 289.43 389.55 293.29 390 297.14C392.13 315.26 394.96 333.23 400.18 350.77C407.9 376.74 423.17 397.21 444.92 413.07C445.91 413.79 446.77 414.7 447.69 415.52C447.7 415.52 447.71 415.51 447.71 415.51Z" fill="white" stroke="black"/>
<path d="M342.86 546.54C338.89 546.58 335.24 544.54 332.37 540.96C328.33 535.91 326.32 529.91 324.43 523.87C320.34 510.78 316.11 497.73 312.27 484.56C310.16 477.31 309.2 469.78 311.55 462.4C312.53 459.31 314.23 456.29 316.21 453.7C319.78 449.01 324.87 448.38 329.97 451.52C335.05 454.65 338.68 459.21 342.02 464.02C343.3 465.86 344.45 467.8 345.58 469.74C347.6 473.18 347.16 475.53 344.37 478.47C342.03 480.94 339.81 483.53 337.73 486.22C336.84 487.37 336.3 488.85 335.84 490.26C334.38 494.67 335.03 497.49 338.81 500.11C342.35 502.56 346.27 504.45 350.02 506.59C351.68 507.54 353.35 508.47 355 509.44C360.65 512.77 363.32 517.54 362.5 524.22C361.67 531 359.75 537.25 354.64 542.1C351.56 545.01 347.85 546.51 342.86 546.54Z" fill="white" stroke="black"/>
<path d="M349.09 231.1C349.33 233.92 349.79 236.6 349.73 239.28C349.58 245.16 349.21 251.04 348.77 256.91C348.72 257.52 347.7 258.26 346.97 258.57C330.15 265.75 314.19 274.48 299.15 284.88C284.42 295.07 270.83 306.52 260.27 321.18C258.92 323.06 257.66 325.01 255.89 326.83C256.43 323.9 256.92 320.96 257.51 318.04C260.28 304.45 264.24 291.27 271.22 279.16C280.06 263.83 293.05 253.14 308.71 245.43C321.45 239.16 334.92 234.9 348.56 231.14C348.86 231.06 349.19 231.09 349.09 231.1Z" fill="white" stroke="black"/>
<path d="M393.57 522.9C394.18 527.5 394.77 532.11 395.41 536.71C400.14 570.74 412.5 601.88 431 630.69C443.33 649.89 457.71 667.45 473.44 683.94C473.98 684.51 474.48 685.11 474.66 686.17C470.53 683.76 466.25 681.57 462.29 678.9C424.06 653.18 398.73 618.12 386.93 573.55C385.03 566.37 384.71 558.77 383.7 551.36C383.59 550.56 383.77 549.71 383.89 548.89C383.96 548.4 384.17 547.93 384.34 547.47C387.26 539.26 390.18 531.04 393.1 522.83C393.25 522.85 393.41 522.87 393.57 522.9Z" fill="white" stroke="black"/>
<path d="M348.15 548.14C346.33 548.14 344.78 548.14 343.23 548.14C350.67 547.4 356.06 543.68 359.76 537.12C367.07 544.76 372.04 553.62 375.41 563.39C378.91 573.54 379.95 584.16 380.97 594.76C381.75 602.89 382.18 611.04 380.53 619.14C380.41 619.71 380.27 620.27 380.09 620.83C378.04 627.38 373.58 628.76 368.19 624.4C363.52 620.62 361.04 615.32 358.44 610.09C349.02 591.18 347.12 570.98 348.05 550.28C348.08 549.7 348.11 549.12 348.15 548.14Z" fill="white" stroke="black"/>
<path d="M389.14 251.99C394.25 252.02 402.19 254.71 409.05 260.43C414.04 264.59 413.72 269.66 408.12 272.88C392.55 281.83 376.94 290.72 361.33 299.6C359.98 300.37 358.54 300.88 357.18 301.74C353.27 304.2 346.88 300.91 347.1 296.37C347.83 281.87 351.43 268.36 363.31 258.64C368.73 254.19 376.8 252.01 389.14 251.99Z" fill="white" stroke="black"/>
<path d="M355.02 265.92C351.02 262.49 349.05 258.89 350.31 253.64C351.68 247.94 351.35 242.08 350.35 236.28C349.7 232.52 350.73 230.27 353.93 228.29C361.97 223.31 370.42 219.61 380.14 220.02C388.79 220.38 396.71 223.37 404.37 227.09C407.25 228.49 407.88 231.23 406.68 234.25C403.99 241 399.32 246.26 394.07 251.04C393.39 251.66 391.77 251.44 390.62 251.31C382.23 250.37 374.2 251.5 366.62 255.3C361.85 257.71 358.26 261.48 355.02 265.92Z" fill="white" stroke="black"/>
<path d="M413.27 268.71C414.15 264.21 412.46 261.4 409.44 259.53C405.58 257.14 401.52 255.08 397.52 252.93C396.74 252.51 395.85 252.3 394.18 251.68C396.2 249.93 398.16 248.76 399.38 247.07C402.32 242.98 405.16 238.78 407.57 234.37C409.72 230.43 411.05 229.55 415.48 230.49C427.19 232.98 434.49 240.51 439.13 251.08C440.06 253.2 439.52 255.77 437.49 256.81C429.67 260.8 421.73 264.58 413.27 268.71Z" fill="white" stroke="black"/>
<path d="M347 549.34C347 555.03 346.8 560.6 347.04 566.15C347.46 575.56 348.17 585 351.12 593.99C354.22 603.46 357.55 612.97 363.7 621.01C365.55 623.43 368.18 625.53 370.88 626.96C374.96 629.13 378.52 627.68 380.17 623.35C381.31 620.36 382.2 617.1 382.31 613.93C382.95 595.34 381.39 576.99 374.96 559.36C372.32 552.13 368.4 545.51 363.34 539.69C361.71 537.81 361.06 536.2 362.27 533.97C362.66 533.25 362.84 532.42 363.36 530.96C366.04 535.35 368.66 539.19 370.83 543.26C378.77 558.12 384.57 573.72 386.26 590.63C387.32 601.22 387.31 611.77 384.46 622.11C383.76 624.64 382.67 627.15 381.32 629.4C379.15 633.01 376.63 633.81 372.58 632.73C365.03 630.71 359.89 625.64 355.92 619.25C350.05 609.78 346.87 599.31 345 588.4C342.95 576.44 342.69 564.38 343 552.29C343.09 548.97 343.1 548.97 347 549.34Z" fill="white" stroke="black"/>
<path d="M449 653.6C433.08 633.82 419.9 612.52 410.17 588.35C415.42 596.9 419.99 605.02 425.23 612.68C430.48 620.36 436.08 627.86 442.16 634.89C444.89 638.05 446.86 640.91 447.16 645.12C447.36 647.97 448.36 650.77 449 653.6Z" fill="white" stroke="black"/>
<path d="M567.09 493.26C572.83 491.81 580.22 495.12 584.85 501.15C579.01 507.52 571.23 509.99 564.85 507.34C567.7 502.99 568.01 498.2 567.09 493.26Z" fill="white" stroke="black"/>
<path d="M124.16 515.78C131.05 547.27 137.84 578.27 144.62 609.27C144.45 609.36 144.27 609.45 144.1 609.54C110.22 562.03 76.33 514.51 42.09 466.49C56.01 468.26 69.38 469.97 83.25 471.73C72 445.82 60.94 420.34 49.97 395.09C54.55 395.09 58.94 394.93 63.33 395.12C84.88 396.02 106.43 397.04 127.98 397.94C129.37 398 129.98 398.46 130.5 399.7C147.43 440.37 164.41 481.02 181.37 521.68C181.59 522.21 181.74 522.76 182.06 523.68C162.77 521.05 143.77 518.46 124.16 515.78Z" fill="white" stroke="black"/>
<path d="M662.36 220.05C677.01 229.2 691.67 238.35 706.52 247.62C719.04 235.55 731.54 223.49 744.04 211.43C744.18 211.51 744.33 211.59 744.47 211.67C740.29 228.47 736.11 245.28 731.89 262.25C747.24 270.42 762.48 278.54 777.72 286.65C777.7 286.84 777.67 287.03 777.65 287.22C776.72 287.3 775.79 287.4 774.86 287.46C759.4 288.53 743.95 289.61 728.49 290.63C726.6 290.75 725.67 291.2 725.31 293.39C722.63 309.39 719.75 325.36 716.92 341.34C716.88 341.57 716.74 341.78 716.51 342.33C716.11 341.6 715.77 341.11 715.55 340.57C709.55 325.77 703.54 310.98 697.62 296.16C696.96 294.5 696.3 293.95 694.39 294.23C678.66 296.55 662.91 298.72 647.16 300.92C646.53 301.01 645.88 300.93 644.65 300.93C647.71 298.35 650.41 296.07 653.11 293.8C663 285.5 672.86 277.17 682.81 268.95C684.37 267.66 684.63 266.74 683.68 264.84C676.73 250.83 669.93 236.75 663.09 222.68C662.73 221.94 662.39 221.19 662.04 220.44C662.14 220.32 662.25 220.18 662.36 220.05Z" fill="white" stroke="black"/>
<path d="M649.5 622.41C655.07 603.53 660.52 585.05 666.09 566.16C668.7 568.53 671.08 570.68 673.44 572.85C684.18 582.7 694.91 592.56 705.68 602.38C706.7 603.31 707.13 604.05 706.66 605.55C697.5 634.84 688.42 664.14 679.32 693.45C679.3 693.51 679.21 693.54 678.88 693.8C669.87 683.89 660.84 673.96 651.6 663.8C641.29 683.52 631.14 702.94 620.98 722.37C620.84 722.33 620.69 722.29 620.55 722.25C623.63 682.08 626.7 641.92 629.82 601.19C636.57 608.46 642.89 615.27 649.5 622.41Z" fill="white" stroke="black"/>
<path d="M126.37 147.35C127.88 137.02 129.38 126.84 130.9 116.46C130.27 116.35 129.73 116.17 129.2 116.17C122.87 116.15 116.54 116.21 110.21 116.12C108.56 116.1 108.15 116.74 107.95 118.27C106.67 127.91 105.27 137.54 103.89 147.33C96.69 147.33 89.57 147.33 82.18 147.33C82.98 141.68 83.76 136.05 84.58 130.42C87.36 111.4 90.19 92.3902 92.91 73.3702C93.12 71.9102 93.63 70.9802 94.97 70.6602C98.49 69.8102 102.02 68.4902 105.57 68.4002C111.11 68.2702 114.02 71.6502 113.6 77.2002C113.24 81.9202 112.39 86.6002 111.75 91.3002C111.38 94.0102 111 96.7202 110.6 99.6502C118.19 99.6502 125.63 99.6502 133.34 99.6502C134.05 94.7702 134.78 89.8602 135.49 84.9502C136.05 81.0802 136.47 77.1802 137.21 73.3502C137.4 72.3402 138.34 71.1502 139.27 70.6602C142.63 68.9102 146.24 67.9602 150.1 68.3202C155.65 68.8402 158.66 72.5002 157.89 78.0302C155.76 93.3602 153.56 108.68 151.37 123.99C150.26 131.73 149.13 139.47 147.98 147.35C140.8 147.35 133.69 147.35 126.37 147.35Z" fill="white" stroke="black"/>
<path d="M323.96 139.71C326.27 135.02 328.51 130.49 330.85 125.74C336.11 129.84 342.02 131.64 348.39 131.71C351.08 131.74 353.94 131.45 356.43 130.52C360.67 128.95 361.32 124.15 357.75 121.37C355.83 119.87 353.35 119.11 351.17 117.92C347.39 115.86 343.38 114.1 339.95 111.56C328.69 103.24 328.61 77.5102 347.39 70.7802C360.47 66.0902 373.1 67.5802 384.9 75.1002C385.18 75.2802 385.44 75.5002 385.69 75.7102C385.81 75.8202 385.9 75.9602 386.21 76.3402C382.79 80.7002 379.33 85.1102 376.19 89.1102C372.43 87.7502 369.04 86.1102 365.47 85.3702C363.18 84.9002 360.44 85.2802 358.2 86.1002C354.31 87.5302 353.82 91.4302 357.16 93.8802C359.27 95.4202 361.78 96.4802 364.23 97.4702C369.2 99.4902 374.09 101.62 377.69 105.77C386.72 116.18 384.04 133.64 372.17 142.15C359.49 151.24 337.36 150.64 325.21 140.87C324.82 140.58 324.48 140.21 323.96 139.71Z" fill="white" stroke="black"/>
<path d="M628.15 91.1899C634.8 92.1899 641.12 93.1399 648 94.1699C646.63 99.2899 645.56 104.23 643.97 109C637.91 127.22 629.48 144.2 617.08 159.01C611.28 165.94 605.1 170.89 598.46 173.95C596.03 169.39 593.59 164.81 591.18 160.3C593.96 158.37 596.83 156.68 599.34 154.56C601.84 152.44 603.98 149.88 606.57 147.21C600.61 145.45 599.15 141.21 598.46 136.18C596.65 122.91 594.68 109.66 592.63 96.4199C592.26 94.0099 592.77 92.7299 595.23 92.4999C599.25 92.1199 603.32 91.2099 607.28 91.5399C612.67 91.9899 615.47 95.5999 615.5 101.06C615.55 110.55 615.46 120.04 615.43 129.53C615.43 130.47 615.43 131.42 615.83 132.42C622.07 119.38 625.05 105.42 628.15 91.1899Z" fill="white" stroke="black"/>
<path d="M715.62 495.19C713.81 487.25 711.89 480.19 710.65 473.01C708.57 461 707.8 448.87 709.02 436.69C709.89 427.94 711.59 419.39 716.12 411.69C719.64 405.72 724.54 401.43 731.46 399.81C735.99 398.75 739.67 400.22 742.21 404.16C745.39 409.1 746.19 414.73 746.43 420.4C746.68 426.36 746.49 432.34 746.49 438.27C747.68 437.56 749.3 436.49 751.01 435.57C758.53 431.52 766.3 428.88 775.11 429.92C785.99 431.2 799.27 448 788.32 460.87C785.38 464.33 782.09 467.63 778.47 470.35C766.98 479.01 753.9 484.61 740.26 488.84C732.42 491.27 724.37 492.96 715.62 495.19Z" fill="white" stroke="black"/>
<path d="M441.26 145.22C436.51 147.48 431.74 149.06 426.52 148.46C422.92 148.05 420.4 144.89 420.08 140.64C419.99 139.43 420.07 138.21 420.07 136.51C418.28 138.89 416.92 140.93 415.32 142.79C411.02 147.79 405.46 149.46 399.11 148.28C393.17 147.18 389.56 142.53 389.63 135.39C389.68 129.92 390.44 124.45 391.14 119.01C392.13 111.25 393.33 103.52 394.54 95.7899C394.66 94.9899 395.37 93.8299 396.03 93.6499C399.71 92.6499 403.42 91.5099 407.18 91.1699C412.92 90.6499 415.78 93.9499 414.94 99.6299C413.78 107.53 412.46 115.41 411.26 123.31C411.01 124.95 410.71 126.66 410.94 128.27C411.13 129.59 411.9 131.69 412.72 131.85C414.28 132.16 416.48 131.82 417.66 130.84C419.01 129.72 419.95 127.71 420.34 125.92C421.73 119.5 422.85 113.03 423.98 106.56C424.61 102.95 424.98 99.2999 425.62 95.6999C425.75 94.9399 426.41 93.8499 427.03 93.6799C430.71 92.6799 434.41 91.5099 438.17 91.1699C443.89 90.6499 446.73 93.8999 445.93 99.6399C444.45 110.19 442.8 120.71 441.25 131.25C440.58 135.86 439.6 140.47 441.26 145.22Z" fill="white" stroke="black"/>
<path d="M118.84 702.13C126.25 706.75 133.66 711.37 141.1 716.01C147.53 709.82 153.86 703.72 160.69 697.14C158.6 705.56 156.75 713.32 154.7 721.02C154.17 723.01 154.6 723.92 156.44 724.86C163.48 728.44 170.41 732.21 177.36 736.38C168.65 737 159.95 737.63 151.02 738.27C149.48 746.92 147.95 755.51 146.3 764.77C145.7 763.48 145.3 762.74 144.99 761.97C142.3 755.34 139.55 748.74 137.01 742.06C136.29 740.16 135.33 739.83 133.47 740.12C125.9 741.3 118.31 742.33 110.73 743.4C110.44 743.44 110.14 743.41 109.31 743.41C113.18 740.16 116.66 737.23 120.14 734.3C122.88 732 125.58 729.63 128.39 727.42C129.59 726.47 129.77 725.72 129.07 724.33C125.85 717.94 122.76 711.49 119.63 705.06C119.21 704.19 118.83 703.3 118.44 702.41C118.58 702.31 118.71 702.22 118.84 702.13Z" fill="white" stroke="black"/>
<path d="M107.81 285.64C87.22 281.93 68.09 275.42 51.44 262.83C46.9 259.39 42.88 255.3 41.13 249.66C38.47 241.11 45.6 229.96 54.91 228C62.71 226.36 69.68 228.94 76.42 232.47C78.1 233.35 79.67 234.44 81.74 235.72C81.55 233.63 81.36 231.88 81.24 230.13C80.75 222.96 80.66 215.81 82.93 208.87C83.44 207.31 84.13 205.74 85.03 204.38C87.24 201.04 90.45 199.85 94.36 200.82C102.5 202.84 106.99 208.7 110.01 216C113 223.25 114.08 230.92 114.38 238.68C114.96 253.6 113.1 268.24 108.92 282.58C108.66 283.51 108.26 284.42 107.81 285.64Z" fill="white" stroke="black"/>
<path d="M195.96 260.07C193.86 268.57 191.87 276.59 189.84 284.81C197.16 288.72 204.4 292.58 211.63 296.45C211.63 296.61 211.64 296.77 211.64 296.92C210 297.08 208.36 297.29 206.72 297.4C200.9 297.8 195.09 298.22 189.27 298.51C187.49 298.6 186.69 299.1 186.39 301.03C185.35 307.85 184.06 314.64 182.85 321.44C182.74 322.06 182.54 322.66 182.23 323.82C179.54 317.2 177.04 311.07 174.55 304.93C172.68 300.34 172.68 300.3 167.74 300.96C161.23 301.82 154.73 302.75 147.96 303.21C148.6 302.64 149.22 302.05 149.87 301.5C154.91 297.27 159.89 292.97 165.02 288.86C166.6 287.59 166.65 286.59 165.79 284.91C162.88 279.2 160.12 273.42 157.32 267.67C156.86 266.73 156.44 265.77 155.69 264.13C160.86 267.35 165.41 270.18 169.95 273.01C171.79 274.15 173.69 275.21 175.43 276.48C176.89 277.54 177.82 277.5 179.17 276.14C184.27 271 189.54 266.02 194.75 260.99C195 260.77 195.28 260.6 195.96 260.07Z" fill="white" stroke="black"/>
<path d="M216.18 106.96C230.23 114.31 226.79 132.97 216.87 140.44C210.38 145.32 202.99 147.92 195.1 148.22C184.06 148.63 173 148.13 161.54 148.02C165.28 121.38 168.92 95.4099 172.6 69.1499C180.99 68.8499 189.22 68.3399 197.45 68.3299C202.33 68.3199 207.32 68.5599 212.07 69.5899C226.4 72.7099 231.76 85.6499 223.93 98.1699C221.86 101.48 218.73 104.11 216.18 106.96ZM185.79 132.04C188.84 132.04 191.43 132.28 193.96 131.98C197.69 131.55 200.45 129.54 201.7 125.86C203.23 121.35 200.91 116.48 196.89 116.05C194.04 115.75 191.12 115.99 188.09 115.99C187.32 121.35 186.57 126.56 185.79 132.04ZM190.27 100.1C193.73 99.3599 196.72 99.1199 199.39 98.0499C202.7 96.7299 204.32 92.1399 203.35 88.4699C202.65 85.8199 200.44 84.5899 196.36 84.5799C195.13 84.5699 193.91 84.5799 192.55 84.5799C191.8 89.6499 191.11 94.3899 190.27 100.1Z" fill="white" stroke="black"/>
<path d="M467.03 172.72C459.93 172.72 453.12 172.72 446.07 172.72C446.8 167.48 447.51 162.39 448.22 157.31C450.82 138.78 453.42 120.24 456.03 101.71C456.13 100.97 456.44 100.22 456.38 99.4999C455.92 94.6599 458.69 92.7599 462.94 92.1299C465.08 91.8099 467.19 91.2799 469.34 91.1199C473.06 90.8599 475.35 92.6999 476 96.3799C476.31 98.1299 476.37 99.9199 476.58 102.14C477.77 100.43 478.65 99.0499 479.64 97.7699C483.65 92.5899 488.91 90.1799 495.4 91.3899C502.11 92.6399 506.21 96.9999 508.01 103.45C512.14 118.22 503.97 137.5 490.54 144.7C484.99 147.67 478.96 148.84 472.7 148.55C470.74 148.46 470.17 149.16 469.95 151.02C469.09 158.19 468.04 165.35 467.03 172.72ZM472.31 133.29C477.05 134.15 480.87 133.1 483.36 129.1C486.85 123.48 487.67 117.28 486.32 110.9C486.04 109.59 484.5 108.15 483.19 107.54C481.38 106.7 479.64 107.66 478.45 109.31C478.07 109.84 477.71 110.42 477.46 111.02C474.41 118.12 473.65 125.72 472.31 133.29Z" fill="white" stroke="black"/>
<path d="M231.91 148.01C232.9 140.85 233.78 134.44 234.67 128.03C237.29 109.32 239.94 90.6201 242.5 71.9001C242.77 69.9301 243.34 69.0001 245.52 68.9801C254.09 68.9001 262.68 68.2801 271.23 68.6201C275.7 68.8001 280.3 70.0401 284.5 71.6901C293.77 75.3301 299.41 82.4601 301.4 92.1501C303.7 103.41 302.39 114.43 297.47 124.81C290.42 139.67 277.94 147.08 262.01 148.26C252.18 148.98 242.23 148.15 231.91 148.01ZM256.18 131.89C262.75 133.27 269.95 129.96 274.13 123.39C279.51 114.94 281.07 105.6 279.29 95.8301C277.93 88.3401 272.37 84.3201 264.75 84.5501C263.2 84.6001 262.62 85.0901 262.42 86.6901C261.59 93.3001 260.59 99.8801 259.67 106.47C258.51 114.95 257.35 123.43 256.18 131.89Z" fill="white" stroke="black"/>
<path d="M679.92 137.96C678.88 139.44 678.11 140.59 677.29 141.71C673.26 147.22 667.75 149.55 661.14 148.34C654.55 147.13 650.49 142.7 648.66 136.39C643.16 117.35 656.37 95.6299 675.74 91.8299C678.33 91.3199 681.03 91.0698 683.68 91.1298C691.4 91.2998 699.12 91.6899 707.12 92.0099C706.31 97.6199 705.56 102.88 704.78 108.12C703.39 117.5 701.89 126.87 700.65 136.28C700.27 139.18 700.59 142.16 700.59 146.04C697.37 146.75 693.32 148.04 689.18 148.48C683.91 149.04 680.91 146.25 680.2 141.01C680.09 140.12 680.04 139.25 679.92 137.96ZM684.2 106.55C679.37 105.45 675.76 106.82 673.23 110.77C669.94 115.92 669.5 121.69 670.03 127.58C670.23 129.85 671.1 131.82 673.63 132.39C675.8 132.88 677.75 131.82 678.93 129.2C682.19 121.99 682.93 114.21 684.2 106.55Z" fill="white" stroke="black"/>
<path d="M512.64 147.41C514.87 131.06 517.03 114.99 519.29 98.92C520.12 92.98 520.23 92.98 526.21 91.69C527.35 91.44 528.51 91.27 529.66 91.16C534.9 90.66 538.26 93.36 539.01 98.61C539.11 99.29 539.23 99.98 539.64 100.79C542.55 96.59 544.8 91.6 550.62 91.25C553.51 91.08 556.47 91.89 559.93 92.32C558.34 95.9 557.05 98.82 555.74 101.74C554.46 104.62 553.17 107.49 551.83 110.48C551.25 110.25 550.81 110.07 550.37 109.9C545.39 108.03 541.57 109.35 540.05 114.45C538.11 120.95 536.88 127.68 535.56 134.35C534.71 138.65 534.24 143.03 533.59 147.41C526.54 147.41 519.73 147.41 512.64 147.41Z" fill="white" stroke="black"/>
<path d="M585.72 92.1502C584.89 98.2702 584.13 103.94 583.33 109.61C582.09 118.42 580.72 127.21 579.63 136.04C579.26 139.03 579.57 142.11 579.57 145.54C575.42 147.64 570.52 149.02 565.23 148.48C561.08 148.05 558.39 145.29 558.56 140.88C558.75 135.91 559.5 130.96 560.15 126.02C561.53 115.55 563.06 105.1 564.4 94.6302C564.64 92.7902 565.1 92.0602 567.1 92.1002C573.16 92.2402 579.23 92.1502 585.72 92.1502Z" fill="white" stroke="black"/>
<path d="M736.01 117.04C729.63 117.04 723.56 117.04 717.49 117.04C716.92 117.04 716.34 117.04 715.45 117.04C717.5 101.12 719.52 85.42 721.56 69.54C728.65 69.54 735.67 69.54 742.86 69.54C740.58 85.4 738.31 101.09 736.01 117.04Z" fill="white" stroke="black"/>
<path d="M722.03 148.58C714.88 148.6 710.92 144.86 710.92 138.1C710.92 129.88 715.75 124.95 723.85 124.92C730.95 124.89 735.13 128.74 735.14 135.31C735.16 143.63 730.29 148.56 722.03 148.58Z" fill="white" stroke="black"/>
<path d="M577.07 84.1398C570.56 84.1398 566.71 80.7398 566.66 74.9598C566.6 67.4498 571.48 62.4898 578.92 62.5098C585.39 62.5298 589.08 65.9298 589.09 71.8698C589.09 79.4998 584.55 84.1398 577.07 84.1398Z" fill="white" stroke="black"/>
<path d="M488.03 480.68C498.01 479.84 508.35 488.5 509.7 498.89C500.56 501.7 492.1 499.22 483.65 495.82C488.19 488.96 488.24 488.8 488.03 480.68Z" fill="white" stroke="black"/>
<path d="M465.86 574.34C479.27 590.69 496.61 597.93 516.32 600.51C519.37 600.91 522.46 601.25 525.52 601.14C532.35 600.91 537.71 597.29 542.21 592.58C545.57 589.06 548.29 584.92 551.29 581.05C551.63 580.61 551.9 580.12 552.38 579.78C550.03 592.21 545.04 602.98 533.22 609.24C528.68 611.64 523.76 612.05 518.66 611.63C509.23 610.85 500.03 609.17 491.32 605.34C478.5 599.69 470.79 589.63 466.57 576.57C466.38 576.03 466.22 575.5 465.86 574.34Z" fill="white" stroke="black"/>
<path d="M465.96 570.6C475.72 574.01 485.49 577.42 495.25 580.83C505.88 584.54 516.68 587.45 527.99 588.17C534.02 588.55 539.96 588.29 545.67 586.05C545.87 585.97 546.13 586.04 546.9 586.04C540.08 593.85 533.47 600.92 522.18 600.09C506.1 598.9 491.14 594.55 478.01 584.88C472.18 580.58 467.57 575.48 465.64 571.42C465.75 571.15 465.85 570.88 465.96 570.6Z" fill="white" stroke="black"/>
<path d="M471.54 571.21C489 571.3 507.22 572.55 524.8 578.48C525.75 578.8 526.8 578.99 527.59 579.54C531.1 582.02 534.52 581.27 538.33 580.06C542.39 578.77 546.74 578.41 551.49 577.54C550.47 580.87 549.31 583.09 546.76 584.41C542.26 586.73 537.39 587.32 532.46 587.31C519.56 587.27 507.27 584.01 495.21 579.76C487.02 576.88 478.87 573.86 471.54 571.21Z" fill="white" stroke="black"/>
<path d="M186.88 131.4C187.62 126.26 188.27 121.7 188.96 116.94C191.52 116.94 193.93 116.79 196.31 116.97C199.97 117.25 202.07 121.28 200.82 125.4C199.97 128.17 198.04 130.06 195.29 130.63C192.66 131.19 189.92 131.16 186.88 131.4Z" fill="white" stroke="black"/>
<path d="M191.59 98.2198C192.1 94.5298 192.58 90.8298 193.16 87.1398C193.25 86.5998 193.73 85.8698 194.21 85.6898C196.75 84.7298 201.12 86.0498 202.07 87.9598C203.41 90.6498 202.14 95.1898 199.57 96.8998C197.48 98.2998 194.81 98.7498 191.59 98.2198Z" fill="white" stroke="black"/>
<path d="M472.99 132.24C474.74 125.33 476.46 118.53 478.22 111.74C478.38 111.12 478.71 110.34 479.2 110.04C480.32 109.36 481.66 108.4 482.79 108.55C483.77 108.68 485.15 110.05 485.36 111.07C486.62 117.32 485.84 123.37 482.35 128.8C480.36 131.87 477.36 133.05 472.99 132.24Z" fill="white" stroke="black"/>
<path d="M263.58 85.8702C270.27 84.8302 276.15 87.8302 277.68 93.9902C280.66 105.94 278.78 117.13 270.17 126.48C266.93 130 262.59 131.38 257.29 131.13C259.4 115.99 261.48 100.99 263.58 85.8702Z" fill="white" stroke="black"/>
<path d="M683.1 107.49C681.76 114.62 681.14 121.89 678.1 128.63C677.3 130.4 676.11 131.79 673.91 131.4C671.81 131.03 671.22 129.31 671.03 127.52C670.52 122.58 670.91 117.73 673.01 113.15C675.13 108.53 678.43 106.65 683.1 107.49Z" fill="white" stroke="black"/>
</g>
<defs>
<clipPath id="clip0_38_3125">
<rect width="822" height="905" fill="white"/>
</clipPath>
</defs>
</svg>
