<?xml version="1.0" encoding="utf-8"?>
<!-- Generator: Adobe Illustrator 26.0.2, SVG Export Plug-In . SVG Version: 6.00 Build 0)  -->
<svg version="1.1" id="Layer_1" xmlns="http://www.w3.org/2000/svg" xmlns:xlink="http://www.w3.org/1999/xlink" x="0px" y="0px"
	 viewBox="0 0 824 908" style="enable-background:new 0 0 824 908;" xml:space="preserve">
<g id="Black">
	<rect stroke="#FFFFFF" fill="#000000" stroke-miterlimit="10" width="824" height="908"/>
</g>
<g id="Color">
	<path class="st0" fill="#ffffff" stroke="#000000" d="M73.5,907c-24.5,0-49,0-73.5,0C0,604.67,0,302.33,0,0c274.67,0,549.33,0,824,0c0,302.33,0,604.67,0,907
		c-39.67,0-79.33,0-119,0c0.64-0.71,1.22-1.5,1.94-2.11c20.72-17.42,41.45-34.82,62.19-52.21c4.13-3.47,8.28-6.91,12.5-10.42
		c2.79,3.62,5.37,7.1,8.09,10.47c3.14,3.89,6.33,7.74,9.66,11.45c0.72,0.81,2.68,1.7,3.19,1.33c5.86-4.22,11.57-8.65,17.26-13.1
		c1.47-1.15,1.45-2.68,0.4-4.21c-1.98-2.88-3.8-5.88-5.94-8.64c-10.97-14.15-21.97-28.28-33.08-42.32
		c-4.23-5.35-8.8-10.44-13.2-15.67c-1.63-1.94-3.23-2.48-5.45-0.69c-3.5,2.82-7.34,5.21-10.74,8.13c-5.03,4.33-4.96,4.91-0.9,10.13
		c4.29,5.52,8.74,10.93,12.84,16.59c3.22,4.44,3.12,4.78-0.99,8.42c-12.09,10.72-24.1,21.53-36.45,31.94
		c-11.84,9.98-24.03,19.54-36.14,29.19c-2.83,2.26-3.46,2.21-5.81-0.49c-3.98-4.59-7.7-9.4-11.58-14.07
		c-2.07-2.49-4.17-4.98-6.45-7.28c-0.66-0.67-2.47-1.27-2.95-0.88c-4.49,3.54-8.89,7.21-13.14,11.04c-1.44,1.3-1.62,3.25-0.58,5.08
		c1.4,2.45,2.61,5.05,4.28,7.31C659.2,893.06,664.64,900,670,907c-22.5,0-45,0-67.5,0c-6.11-14.47-11.62-29.23-18.48-43.33
		c-10.74-22.06-22.43-43.65-33.61-65.49c-1.61-3.14-3.25-6.46-3.83-9.88c-2.68-15.67-5.41-31.3-9.47-46.7
		c-4.22-16-12.73-28.74-26.64-37.85c-7.7-5.04-15.85-9.18-24.53-12.15c-4.09-1.4-7.38-3.87-10.17-6.8
		c-6.5-6.8-12.52-14.05-18.91-20.95c-3.76-4.06-5.96-8.75-6.96-14.1c-0.54-2.86-1.04-5.73-1.49-8.24
		c10.81,4.27,21.28,8.71,31.97,12.55c8.95,3.21,18.21,5.37,27.86,4.93c12.05-0.55,22.23-9.6,23.63-21.34
		c0.58-4.87,2.18-9.18,4.97-13.14c2.3-3.27,4.48-6.62,6.82-9.86c11.52-16.02,23.17-31.94,34.55-48.05
		c4.52-6.4,8.61-13.15,8.69-21.41c0.05-5.24,0-10.49-0.16-15.74c-0.21-6.66-0.64-13.31-0.81-19.97c-0.04-1.4,0.29-3.1,1.1-4.17
		c5.71-7.56,8.93-15.81,8.67-25.48c-0.15-5.39,0.74-10.79,1.04-16.2c0.98-17.4,1.41-34.8-0.65-52.15
		c-0.31-2.64-0.25-4.97,1.54-7.21c0.85-1.06,1.08-2.76,1.24-4.2c0.45-4.14,0.93-8.29,1.04-12.44c0.68-25.73-4.57-50.14-16.8-72.87
		c-11.14-20.71-26.98-36.81-47.91-47.74c-21.79-11.38-45.21-15.41-69.52-15.1c-7.97,0.1-15.93,0.72-24.04,1.11
		c-0.11-0.28-0.29-0.74-0.49-1.19c-4.64-10.5-11.7-18.27-23.36-21.06c-2.92-0.7-5.66-1.29-8.17,0.87
		c-2.32-3.95-2.59-3.99-8.28-6.57c-16.2-7.33-31.82-6.83-46.7,3.33c-2.61,1.78-5.38,2.81-8.35,3.64
		c-12.19,3.4-24.17,7.37-35.63,12.84c-17.87,8.53-32.25,20.75-41.39,38.63c-6.16,12.04-9.73,24.9-12.26,38.1
		c-0.75,3.9-1.34,7.87-2.53,11.65c-1.12,3.55-3.04,6.83-4.43,10.31c-10.24,25.62-17.8,52.08-24.46,78.79
		c-4.2,16.86-7.68,33.9-11.67,50.82c-2.55,10.82-3.3,21.68-2.04,32.72c1.27,11.13,3.98,21.94,7.62,32.49
		c4.14,11.98,8.58,23.85,12.89,35.77c0.24-0.02,0.48-0.05,0.72-0.07c6.15-15.42,12.31-30.83,18.46-46.25
		c0.43,1.24,0.4,2.32,0.29,3.39c-1.28,12.59-2.28,25.22-3.93,37.76c-2.11,16-3.9,32.11-7.34,47.84
		c-7.2,32.97-13.39,66.04-15.76,99.76c-1.97,28.05-2.11,56.09-0.58,84.15c0.14,2.64,0.26,5.35-0.14,7.94
		c-1.23,7.98-2.99,15.87-4.05,23.87c-2.31,17.41-4.41,34.85-6.39,52.3c-0.83,7.35-1.13,14.77-1.66,22.15c-37.5,0-75,0-112.5,0
		c4.08-14.29,5.63-28.87,4.73-43.7c-0.45-7.43-1.69-14.72-4.79-21.56c-2.77-6.1-6.81-11.02-13.38-13.37
		c-5.99-2.15-10.82-0.25-13.29,5.6c-1.12,2.65-2.05,5.55-2.2,8.39c-0.33,6.03-0.1,12.1-0.1,18.47c-1.34-0.75-2.41-1.36-3.48-1.95
		c-5.63-3.08-11.52-5.21-18.05-4.95c-8.02,0.32-13.18,4.67-16.62,11.63c-3.36,6.8-1.72,12.75,2.78,18.27
		c5.42,6.66,12.49,11.22,20.04,14.99C61.12,901.81,67.37,904.29,73.5,907z M126.44,517.96c19.52,2.67,38.72,5.29,58.26,7.96
		c-0.32-0.87-0.44-1.26-0.6-1.63c-17.29-41.44-34.59-82.87-51.83-124.32c-0.66-1.59-1.55-1.96-3.16-2.03
		c-21.31-0.89-42.61-1.9-63.92-2.77c-5.21-0.21-10.43-0.03-15.74-0.03c10.92,25.14,21.97,50.6,33.17,76.38
		c-13.98-1.78-27.45-3.5-41.68-5.32c35.52,49.81,70.58,98.96,105.63,148.12c0.29-0.15,0.57-0.31,0.86-0.46
		C140.47,582.04,133.5,550.23,126.44,517.96z M642.69,303.09c0.08,0.19,0.16,0.37,0.25,0.56c17.96-2.51,35.91-5.03,54.1-7.58
		c6.88,17,13.74,33.94,20.82,51.43c0.3-1.26,0.48-1.9,0.59-2.55c2.88-16.39,5.79-32.77,8.6-49.18c0.36-2.08,0.98-3.09,3.35-3.22
		c10.48-0.57,20.95-1.36,31.41-2.09c6.84-0.48,13.69-0.99,20.53-1.49c0.03-0.15,0.06-0.31,0.1-0.46
		c-16.11-8.58-32.22-17.16-48.39-25.77c4.42-17.79,8.79-35.36,13.16-52.94c-1.43,0.54-2.28,1.3-3.11,2.1
		c-11.63,11.22-23.27,22.43-34.85,33.7c-1.33,1.3-2.22,1.6-3.96,0.5c-14.27-9.03-28.63-17.94-42.96-26.87
		c-0.51-0.32-1.07-0.53-2.03-1c8.23,16.89,16.23,33.3,24.23,49.73C670.45,279.77,656.57,291.43,642.69,303.09z M652.83,666.53
		c9.28,10.21,18.37,20.21,27.67,30.44c0.37-0.99,0.62-1.58,0.81-2.19c8.92-28.74,17.75-57.5,26.86-86.18
		c1.08-3.41,0.28-5.13-2.16-7.3c-9.51-8.47-18.83-17.16-28.22-25.76c-3.65-3.34-7.31-6.67-11.19-10.2
		c-5.55,18.83-10.99,37.28-16.55,56.11c-6.78-7.32-13.24-14.28-20.04-21.62c-3.26,42.7-6.48,84.78-9.7,126.86
		c0.32,0.08,0.64,0.16,0.95,0.24C631.71,706.93,642.16,686.94,652.83,666.53z M112.78,99.75c0.35-2.66,0.66-5.04,0.96-7.41
		c0.64-4.95,1.55-9.88,1.83-14.85c0.29-5.29-2.75-8.44-7.91-9.09c-4.38-0.55-8.39,0.64-12.33,2.4c-1.53,0.69-2.18,1.6-2.42,3.31
		c-2.85,20.01-5.82,40.01-8.74,60.01c-0.74,5.06-1.44,10.12-2.16,15.21c8.06,0,15.85,0,23.73,0c1.47-10.42,2.93-20.68,4.39-31.02
		c6.88,0,13.58,0,20.6,0c-1.52,10.44-3.01,20.69-4.51,31.02c8.04,0,15.82,0,23.64,0c1.31-9.22,2.59-18.28,3.89-27.34
		c2.04-14.33,4.14-28.65,6.12-42.99c0.82-5.94-2.54-10.3-8.51-10.52c-3.22-0.12-6.51,0.82-9.73,1.48
		c-3.11,0.63-4.77,2.46-4.74,5.89c0.02,2.22-0.59,4.44-0.91,6.67c-0.84,5.73-1.69,11.47-2.54,17.24
		C126.52,99.75,119.88,99.75,112.78,99.75z M388.9,76.85c-13.78-9.34-28.1-11.61-43.11-4.96c-16.71,7.41-17.04,32.07-6.11,40.86
		c3.75,3.02,8.39,4.92,12.65,7.29c1.88,1.05,3.99,1.75,5.7,3.02c3.03,2.24,2.51,6.03-0.9,7.61c-0.96,0.44-2.04,0.77-3.1,0.88
		c-8.26,0.82-15.88-0.73-22.47-6.44c-2.31,4.65-4.51,9.31-6.92,13.85c-0.9,1.7-0.55,2.57,0.89,3.69
		c13.01,10.2,35.15,10.74,48.54,1.1c10.78-7.76,14.29-23.98,7.49-34.79c-3.75-5.96-9.67-8.92-15.95-11.41
		c-2.38-0.94-4.8-1.98-6.87-3.44c-2.66-1.88-2.33-4.86,0.71-6.02c2.01-0.77,4.5-1.24,6.52-0.76c3.78,0.9,7.38,2.6,11.45,4.11
		C380.82,87.11,384.72,82.16,388.9,76.85z M617.52,129.19c0-9.07,0.06-18.15-0.02-27.22c-0.05-5.83-3.26-9.95-9-10.41
		c-4.21-0.34-8.58,0.37-12.79,1.13c-3.66,0.66-3.62,1.09-3.08,4.72c1.97,13.17,3.98,26.33,5.79,39.52
		c0.69,5.02,1.89,9.5,7.16,11.71c-4.03,5.3-8.91,9.18-14.95,11.87c2.85,5.35,5.6,10.52,8.38,15.75
		c7.95-3.41,13.99-8.74,19.23-14.94c14.43-17.06,23.82-36.76,29.77-58.18c0.79-2.84,1.25-5.78,1.91-8.87
		c-7.46-1.11-14.48-2.15-21.62-3.21C625.6,104.22,622.75,117.01,617.52,129.19z M748.08,437.38c0-0.53-0.01-1.01,0-1.5
		c0.13-4.82,0.49-9.65,0.35-14.46c-0.16-5.6-1.11-11.09-3.91-16.1c-2.59-4.64-7.12-6.93-12.2-5.38c-3.35,1.02-6.75,2.55-9.51,4.66
		c-6.88,5.27-10.04,12.96-11.8,21.13c-5.05,23.48-2.25,46.49,4.62,69.2c0.44,1.47,1.25,1.71,2.58,1.43
		c5.36-1.14,10.82-1.96,16.09-3.41c16.45-4.52,32.21-10.71,46.02-20.99c3.31-2.46,6.45-5.34,9.04-8.53
		c9.45-11.63,3.61-28.95-10.93-32.95c-6.92-1.9-13.56-0.57-20,1.99C754.94,433.87,751.59,435.7,748.08,437.38z M443.25,146.88
		c-0.34-2.6-0.95-4.72-0.83-6.8c0.22-3.73,0.81-7.44,1.35-11.14c1.37-9.39,2.86-18.75,4.17-28.15c0.9-6.42-2.53-10.22-9.04-9.61
		c-3.76,0.35-7.48,1.48-11.13,2.55c-0.89,0.26-1.88,1.58-2.08,2.56c-0.73,3.67-1.04,7.42-1.71,11.1
		c-1.23,6.78-2.53,13.55-3.99,20.29c-0.3,1.37-1.22,2.82-2.28,3.73c-0.79,0.68-2.41,0.98-3.39,0.64c-0.72-0.25-1.3-1.76-1.4-2.77
		c-0.15-1.55,0.07-3.16,0.31-4.72c1.2-7.9,2.53-15.77,3.68-23.68c0.95-6.47-2.4-10.28-8.91-9.7c-3.85,0.34-7.61,1.63-11.42,2.47
		c-1.44,0.32-1.92,1.2-2.11,2.63c-0.86,6.52-1.94,13-2.76,19.53c-0.85,6.76-1.92,13.54-2.09,20.33
		c-0.21,8.03,4.09,13.25,10.86,14.25c6.23,0.91,11.73-0.66,16.09-5.43c1.1-1.21,2.14-2.47,3.31-3.84c0.14,0.7,0.23,1.19,0.34,1.68
		c1.18,5.48,4.3,7.93,9.88,7.76C434.95,150.42,439.35,148.78,443.25,146.88z M163.25,695.94c-0.14-0.07-0.28-0.14-0.42-0.21
		c-0.48,0.43-0.96,0.85-1.43,1.3c-6,5.77-12.03,11.52-17.97,17.35c-1.09,1.07-1.81,1.22-3.15,0.36
		c-6.94-4.44-13.95-8.77-20.94-13.13c-0.65-0.41-1.36-0.73-2.58-1.39c4.49,9.24,8.68,17.87,12.91,26.58
		c-7.52,6.33-14.88,12.53-22.24,18.73c0.1,0.13,0.19,0.26,0.29,0.39c9.54-1.33,19.07-2.67,28.67-4.01
		c3.69,9.08,7.31,17.97,10.93,26.86c2.07-8.96,3.67-17.71,5.13-26.49c0.27-1.62,0.82-2.24,2.5-2.32c5.57-0.27,11.14-0.69,16.7-1.08
		c3.38-0.24,6.75-0.53,10.71-0.84c-0.93-0.58-1.33-0.85-1.75-1.08c-7.48-4-14.94-8.03-22.47-11.95c-1.47-0.76-1.82-1.49-1.36-3.1
		c1.14-4,2.06-8.06,3.05-12.09C160.98,705.21,162.11,700.57,163.25,695.94z M81.48,234.63c-1.04-0.61-1.74-1.04-2.45-1.44
		c-6.18-3.47-12.64-6.02-19.88-5.66c-7.96,0.39-13.18,4.79-16.69,11.67c-3.41,6.69-2.22,12.82,2.35,18.33
		c2.47,2.98,5.29,5.83,8.41,8.1c15.76,11.47,33.62,17.96,52.68,21.38c3.82,0.68,3.89,0.54,5-3.22c4.3-14.57,6.12-29.47,5.48-44.63
		c-0.32-7.67-1.41-15.25-4.37-22.42c-3.15-7.62-7.83-13.73-16.31-15.88c-4.43-1.12-8.43,0.12-10.47,4.17
		c-1.76,3.49-3.2,7.41-3.58,11.25C81.05,222.2,81.48,228.23,81.48,234.63z M192,285.3c2.24-9.04,4.43-17.88,6.62-26.72
		c-0.15-0.08-0.3-0.16-0.45-0.24c-6.58,6.33-13.16,12.66-19.83,19.07c-7.89-4.91-15.67-9.75-23.44-14.59
		c3.4,7.99,7.05,15.63,10.83,23.21c0.72,1.44,0.73,2.28-0.64,3.3c-2.14,1.58-4.1,3.4-6.14,5.11c-4.43,3.72-8.86,7.45-13.68,11.5
		c1.18,0,1.81,0.07,2.43-0.01c7.58-1.07,15.17-2.1,22.73-3.28c1.96-0.31,2.91,0.07,3.66,2.09c2.51,6.69,5.28,13.28,7.97,19.9
		c0.45,1.12,0.95,2.23,1.7,3.99c1.63-9.18,3.18-17.58,4.59-26.01c0.26-1.57,0.89-2.05,2.4-2.13c5.57-0.29,11.14-0.69,16.7-1.08
		c2.9-0.2,5.79-0.48,8.69-0.72c0.01-0.17,0.01-0.35,0.02-0.52C208.17,293.92,200.19,289.67,192,285.3z M172.7,69.35
		c-3.76,26.77-7.48,53.34-11.31,80.61c11.79,0.13,23.26,0.54,34.72,0.28c6.42-0.15,12.62-2.08,18.29-5.31
		c7.5-4.27,12.19-10.49,12.95-19.25c0.66-7.66-2.11-13.79-8.75-17.95c6.89-6.68,8.09-8.38,9.59-13.52c2.88-9.83-0.03-18-8.3-22.2
		c-2.84-1.44-6.08-2.73-9.2-2.88c-9.21-0.45-18.44-0.35-27.67-0.34C179.64,68.79,176.25,69.15,172.7,69.35z M478.54,99.59
		c-0.19-0.8-0.36-1.35-0.46-1.91c-0.91-4.93-3.58-7.06-8.59-6.5c-2.47,0.27-4.87,1.05-7.33,1.42c-3.85,0.58-5.23,2.66-5.73,6.57
		c-2.54,19.72-5.44,39.4-8.21,59.09c-0.76,5.42-1.5,10.85-2.27,16.43c7.78,0,15.32,0,22.95,0c1.03-7.38,2.12-14.62,2.99-21.89
		c0.22-1.89,0.89-2.31,2.64-2.26c6.53,0.16,12.74-1.21,18.43-4.5c13.1-7.55,21.06-26.72,17.17-41.38
		c-1.81-6.81-5.93-11.59-12.93-13.13c-7.1-1.57-12.92,0.91-17.37,6.65C479.47,98.62,479.07,99,478.54,99.59z M231.76,149.96
		c10.77,0.15,21.18,0.85,31.52,0.28c11.77-0.65,22.08-5.34,29.97-14.49c7.64-8.86,10.58-19.45,11.12-30.86
		c0.95-20.37-9.1-33.18-29.28-35.92c-8.08-1.1-16.44-0.2-24.67-0.12c-2.45,0.02-4.9,0.36-7.36,0.55
		C239.29,96.25,235.57,122.74,231.76,149.96z M703.07,147.4c-0.19-4.05-0.77-7.2-0.39-10.22c1.18-9.41,2.73-18.77,4.12-28.15
		c0.81-5.49,1.59-10.99,2.4-16.55c-0.65-0.18-1.04-0.36-1.43-0.37c-8.32-0.35-16.64-0.95-24.96-0.94
		c-8.12,0.01-15.68,2.39-21.84,7.88c-11.02,9.81-14.36,22.55-12.63,36.65c0.91,7.42,5.48,12.75,13.02,14.46
		c7.24,1.64,13.28-0.82,17.74-6.85c0.24-0.32,0.28-0.77,0.58-1.62c2.86,7.76,5.42,9.68,12.2,8.71
		C695.92,149.81,699.84,148.29,703.07,147.4z M512.5,149.36c7.84,0,15.38,0,22.99,0c0.68-4.65,1.16-9.21,2.04-13.69
		c1.33-6.75,2.64-13.54,4.56-20.13c1.28-4.4,5.08-5.52,9.25-3.54c0.59,0.28,1.15,0.61,1.91,1.02c2.93-6.57,5.82-13.04,8.74-19.58
		c-4-1.87-7.77-2.88-11.88-2c-4.34,0.93-6.57,4.35-8.9,7.83c-2.79-7.48-5.34-9-13.01-7.74c-2.12,0.35-4.17,1.1-6.27,1.62
		c-1.41,0.35-1.92,1.17-2.1,2.63c-0.77,6.27-1.71,12.53-2.57,18.79C515.66,126.1,514.1,137.64,512.5,149.36z M582.25,146.91
		c-0.31-2.8-1.01-5.19-0.75-7.48c0.91-8.26,2.13-16.49,3.26-24.73c1.01-7.4,2.05-14.79,3.13-22.56c-1.06,0-1.86,0-2.66,0
		c-5.91,0-11.82,0.11-17.73-0.06c-2.22-0.07-2.78,0.76-3.03,2.77c-1.16,9.32-2.51,18.62-3.73,27.94
		c-0.82,6.26-1.85,12.52-2.17,18.82c-0.29,5.57,3.23,8.72,8.81,8.96C572.87,150.82,577.83,149.09,582.25,146.91z M715.37,118.84
		c7.78,0,15.14,0,22.53,0c2.39-16.52,4.74-32.86,7.14-49.48c-7.59,0-14.9-0.03-22.2,0.08c-0.47,0.01-1.23,1.14-1.33,1.82
		c-1.36,9.88-2.64,19.78-3.91,29.67C716.85,106.86,716.13,112.78,715.37,118.84z M723.08,150.58c8.75-0.02,14.07-5.42,14.06-14.26
		c0-7.14-4.58-11.41-12.21-11.41c-8.71,0.01-14.05,5.44-14.01,14.29C710.94,146.47,715.36,150.6,723.08,150.58z M578.21,86.14
		c7.95-0.06,12.9-5.2,12.87-13.36c-0.03-6.51-4.3-10.35-11.44-10.28c-7.77,0.08-13.01,5.5-12.98,13.42
		C566.69,82.37,571.01,86.19,578.21,86.14z"/>
	<path class="st0" fill="#ffffff" stroke="#000000" d="M371.5,907c-52.83,0-105.67,0-158.5,0c0.21-3.65,0.23-7.33,0.65-10.96c2.58-22.33,5.19-44.65,7.93-66.96
		c0.71-5.73,1.94-11.4,2.93-17.1c0.11,0.02,0.23,0.04,0.34,0.06c0.98,10.3,1.95,20.6,2.93,30.91c0.93-0.8,1.33-1.61,1.69-2.43
		c5.51-13.02,10.94-26.07,16.54-39.05c6.68-15.47,14.33-30.41,24.77-43.76c0.41-0.52,0.9-0.99,1.52-1.67
		c4.38,21.24,9.97,41.61,20.95,60.41c0.49-0.61,0.67-0.73,0.67-0.85c-0.01-0.5-0.04-0.99-0.11-1.48
		c-2.39-16.95-2.48-33.87,0.74-50.73c3.26-17.1,9.59-32.86,20.57-46.55c4.23-5.28,9.01-9.98,14.87-14.1
		c-0.15,0.85-0.21,1.32-0.31,1.78c-4.45,20.23-8.92,40.46-13.32,60.7c-0.15,0.67,0.35,1.48,0.54,2.23c0.52-0.59,1.31-1.1,1.53-1.79
		c3.04-9.64,7.8-18.36,14-26.3c14.39-18.44,32.97-31.33,54.3-40.43c30.75-13.12,62.46-16.83,94.89-7.71
		c14.84,4.17,28.39,11.45,39.46,22.61c0.29,0.29,0.47,0.7,0.62,0.93c-6.8,0-13.58-0.64-20.21,0.13
		c-15.17,1.75-29.1,7.51-42.29,15.01c-29.25,16.6-51.9,39.82-68.43,69.03c-8.55,15.1-14.74,31.03-16.88,48.45
		C371.44,867.2,371.13,887.08,371.5,907z"/>
	<path class="st0" fill="#ffffff" stroke="#000000" d="M557.5,907c-61.67,0-123.33,0-185,0c-0.37-17.58-0.28-35.15,1.57-52.66c1.11-10.44,2.62-20.82,6.34-30.72
		c10.87-28.87,28.14-53.31,51.5-73.38c17.04-14.64,35.98-26.02,57.81-32.04c10.6-2.92,21.37-4.43,32.31-1.82
		c1.01,0.24,2.1,0.92,2.77,1.72c5.74,6.75,8.77,14.85,11.1,23.23c7.44,26.72,10.86,54.14,14.04,81.59
		c1.86,16.04,3.35,32.13,4.81,48.21C555.84,883.08,556.6,895.04,557.5,907z"/>
	<path d="M557.5,907c-0.9-11.96-1.66-23.92-2.75-35.86c-1.46-16.08-2.95-32.17-4.81-48.21c-3.18-27.45-6.6-54.87-14.04-81.59
		c-2.33-8.38-5.36-16.48-11.1-23.23c-0.68-0.8-1.76-1.48-2.77-1.72c-10.94-2.62-21.7-1.1-32.31,1.82
		c-21.83,6.01-40.77,17.4-57.81,32.04c-23.37,20.07-40.63,44.51-51.5,73.38c-3.72,9.89-5.24,20.28-6.34,30.72
		c-1.85,17.51-1.94,35.08-1.57,52.66c-0.33,0-0.67,0-1,0c-0.37-19.92-0.06-39.8,2.37-59.62c2.14-17.42,8.34-33.35,16.88-48.45
		c16.53-29.21,39.18-52.43,68.43-69.03c13.2-7.49,27.12-13.25,42.29-15.01c6.62-0.77,13.41-0.13,20.21-0.13
		c-0.15-0.23-0.33-0.64-0.62-0.93c-11.08-11.16-24.62-18.44-39.46-22.61c-32.43-9.12-64.14-5.41-94.89,7.71
		c-21.33,9.1-39.91,21.99-54.3,40.43c-6.19,7.94-10.96,16.66-14,26.3c-0.22,0.69-1.01,1.19-1.53,1.79
		c-0.2-0.75-0.69-1.56-0.54-2.23c4.4-20.24,8.87-40.47,13.32-60.7c0.1-0.46,0.16-0.93,0.31-1.78c-5.86,4.12-10.64,8.82-14.87,14.1
		c-10.98,13.69-17.3,29.46-20.57,46.55c-3.22,16.86-3.13,33.78-0.74,50.73c0.07,0.49,0.11,0.99,0.11,1.48
		c0,0.12-0.18,0.24-0.67,0.85c-10.98-18.8-16.57-39.17-20.95-60.41c-0.62,0.68-1.11,1.15-1.52,1.67
		c-10.44,13.35-18.08,28.29-24.77,43.76c-5.61,12.98-11.03,26.03-16.54,39.05c-0.35,0.83-0.75,1.64-1.69,2.43
		c-0.98-10.3-1.95-20.6-2.93-30.91c-0.11-0.02-0.23-0.04-0.34-0.06c-0.99,5.7-2.23,11.37-2.93,17.1
		c-2.74,22.31-5.35,44.63-7.93,66.96c-0.42,3.63-0.44,7.3-0.65,10.96c-0.33,0-0.67,0-1,0c0.54-7.39,0.83-14.8,1.66-22.15
		c1.97-17.45,4.08-34.89,6.39-52.3c1.06-7.99,2.82-15.89,4.05-23.87c0.4-2.59,0.28-5.3,0.14-7.94c-1.53-28.06-1.4-56.1,0.58-84.15
		c2.37-33.72,8.56-66.79,15.76-99.76c3.43-15.73,5.23-31.84,7.34-47.84c1.65-12.54,2.65-25.17,3.93-37.76
		c0.11-1.07,0.14-2.15-0.29-3.39c-6.15,15.42-12.31,30.83-18.46,46.25c-0.24,0.02-0.48,0.05-0.72,0.07
		c-4.31-11.92-8.75-23.79-12.89-35.77c-3.64-10.55-6.35-21.36-7.62-32.49c-1.26-11.04-0.51-21.9,2.04-32.72
		c3.98-16.92,7.46-33.96,11.67-50.82c6.66-26.72,14.22-53.18,24.46-78.79c1.39-3.47,3.31-6.76,4.43-10.31
		c1.19-3.77,1.78-7.74,2.53-11.65c2.53-13.2,6.11-26.06,12.26-38.1c9.14-17.88,23.51-30.1,41.39-38.63
		c11.46-5.47,23.44-9.44,35.63-12.84c2.97-0.83,5.74-1.85,8.35-3.64c14.88-10.16,30.51-10.66,46.7-3.33
		c5.69,2.58,5.96,2.62,8.28,6.57c2.51-2.15,5.25-1.57,8.17-0.87c11.66,2.79,18.72,10.56,23.36,21.06c0.2,0.45,0.37,0.91,0.49,1.19
		c8.11-0.39,16.07-1.01,24.04-1.11c24.31-0.3,47.73,3.73,69.52,15.1c20.93,10.93,36.77,27.03,47.91,47.74
		c12.23,22.73,17.48,47.14,16.8,72.87c-0.11,4.15-0.58,8.31-1.04,12.44c-0.16,1.45-0.39,3.14-1.24,4.2
		c-1.79,2.25-1.85,4.57-1.54,7.21c2.06,17.36,1.63,34.76,0.65,52.15c-0.3,5.4-1.19,10.81-1.04,16.2
		c0.26,9.67-2.96,17.91-8.67,25.48c-0.81,1.07-1.13,2.77-1.1,4.17c0.17,6.66,0.6,13.31,0.81,19.97c0.16,5.24,0.21,10.49,0.16,15.74
		c-0.07,8.26-4.17,15.02-8.69,21.41c-11.38,16.11-23.04,32.03-34.55,48.05c-2.33,3.24-4.52,6.59-6.82,9.86
		c-2.78,3.96-4.39,8.27-4.97,13.14c-1.4,11.74-11.58,20.79-23.63,21.34c-9.65,0.44-18.92-1.71-27.86-4.93
		c-10.69-3.84-21.16-8.28-31.97-12.55c0.45,2.51,0.95,5.38,1.49,8.24c1,5.35,3.2,10.04,6.96,14.1c6.39,6.9,12.42,14.15,18.91,20.95
		c2.8,2.93,6.08,5.4,10.17,6.8c8.68,2.97,16.83,7.11,24.53,12.15c13.91,9.11,22.42,21.84,26.64,37.85
		c4.06,15.4,6.79,31.03,9.47,46.7c0.59,3.42,2.23,6.74,3.83,9.88c11.18,21.84,22.88,43.43,33.61,65.49
		c6.86,14.1,12.37,28.86,18.48,43.33c-0.33,0-0.67,0-1,0c-0.35-0.84-0.69-1.69-1.04-2.53c-4.93-11.8-9.35-23.84-14.92-35.33
		c-9.75-20.11-20.2-39.89-30.39-59.79c-2.34-4.57-4.81-9.07-7.22-13.6c-0.28,0.57-0.24,1.02-0.19,1.48
		c1.08,8.58,2.31,17.15,3.22,25.75c1.7,16.05,3.33,32.11,4.79,48.18c1.08,11.93,1.84,23.89,2.75,35.84
		C558.17,907,557.83,907,557.5,907z M448.71,416.51c0.42-0.32,0.8-0.75,1.28-0.96c4.26-1.89,8.54-3.7,12.79-5.61
		c3.15-1.41,6.26-2.93,9.32-4.36c-18.39-44.72-41.26-86.61-67.96-126.44c27.7,39.36,50.45,81.44,68.9,126.01
		c9.54-5.08,18.56-10.24,26.71-16.77c0.63-0.51,1.16-1.67,1.08-2.45c-1.56-14.75-3.84-29.37-8.35-43.55
		c-5.53-17.4-14.68-32.52-28.08-45.03c-12.08-11.28-25.92-20-40.29-27.96c-1.71-0.95-3.23-2.3-5.41-0.79
		c-1.66,1.15-3.68,1.78-5.37,2.9c-1.64,1.08-2.92,2.72-4.59,3.72c-5.43,3.25-10.99,6.28-16.42,9.52c-0.72,0.43-1.47,1.64-1.4,2.41
		c1.75,18.49,4.1,36.89,8.63,54.95c4.73,18.88,12.19,36.41,25.17,51.25c6.72,7.68,14.36,14.35,22.5,20.46
		c0.86,0.65,2.34,1.09,1.49,2.73c-0.92-0.82-1.78-1.72-2.78-2.44c-21.75-15.86-37.01-36.34-44.74-62.3
		c-5.22-17.54-8.05-35.51-10.18-53.63c-0.45-3.85-0.86-7.71-1.33-11.95c-4.36,2.48-8.36,4.83-12.43,7.02
		c-1.49,0.8-2.14,1.8-2.23,3.5c-0.53,9.64-1.32,19.28-1.71,28.93c-0.96,24.11,1.04,47.92,7.81,71.18
		c5.91,20.32,14.86,39.33,25.12,57.76c0.93,1.67,1.88,3.32,2.89,5.09c0.32-0.39,0.39-0.44,0.43-0.51c0.52-1.22,1.02-2.45,1.55-3.67
		c5.22-11.97,11.66-23.14,22.65-30.76C438.41,421.51,443.71,419.22,448.71,416.51z M505.43,543.12c-2.21,2.06-4.17,3.95-6.2,5.77
		c-10.31,9.25-22.64,14.74-35.57,19.15c-1.18,0.4-2.36,1.22-3.2,2.15c-7.85,8.63-11.08,18.96-11.05,30.47
		c0,1.07-0.17,2.15-0.26,3.22c-0.55-0.21-0.73-0.4-0.73-0.6c-0.33-12.39,2.35-23.83,10.92-33.28c1.21-1.34,2.89-2.56,4.58-3.1
		c18.56-5.9,34.39-15.82,46.64-31.14c0.35-0.43,0.87-0.73,1.31-1.08c0.18,0.17,0.35,0.34,0.53,0.51c-0.64,0.77-1.38,1.49-1.91,2.34
		c-1.45,2.31-3.06,4.57-4.14,7.05c-1.36,3.13-1.54,6.5-0.17,9.73c2.04,4.8,7.42,7.32,13.75,5.83c4.18-0.98,7.47-0.01,10.7,2.4
		c1.73,1.3,3.43,2.78,5.38,3.6c3.1,1.3,6.34,2.72,9.62,3.02c8.53,0.79,13.61-4.82,12.45-13.23c-0.33-2.38-0.78-4.77-1.46-7.08
		c-2.9-9.81-5.94-19.57-8.84-29.38c-0.78-2.63-1.34-5.32-1.87-8.01c-1.1-5.6,0.51-10.51,5.18-13.65c9.92-6.67,20.2-8.93,30.04-2.31
		c2.56,1.73,4.8,3.93,7.27,5.98c3.35-5.02,5.98-10.45,5.67-16.99c-6.98-1.29-13.69-2.79-20.59-0.24c-2.93,1.09-6.12,1.67-9.24,1.98
		c-1.41,0.14-3.66-0.56-4.23-1.59c-0.58-1.06-0.02-3.35,0.85-4.45c1.24-1.56,3.05-2.97,4.91-3.67c9.86-3.71,19.48-3.14,28.82,2.26
		c0.09-0.6,0.27-1.32,0.31-2.04c0.55-11.48,1.32-22.96,1.55-34.44c0.3-14.67-0.25-29.32-3.49-43.73
		c-1.88-8.37-4.97-16.22-11.99-21.62c-17.73-13.64-37.54-16.53-58.76-10.41c-5.56,1.6-10.6,4.96-12.82,10.42
		c-2.91,7.14-8.08,11.83-14.08,16.05c-13.22,9.29-27.61,16.41-42.56,22.34c-18.43,7.31-32.03,19.52-39.52,37.97
		c-4.97,12.24-9.46,24.68-13.96,37.11c-3.07,8.46-4.54,17.29-3.66,26.28c1.13,11.51,2.23,23.06,4.31,34.41
		c1.65,9.03,3.83,18.19,7.4,26.6c8.75,20.56,20.94,39.16,35.31,56.26c2.15,2.56,4.84,4.99,7.78,6.51
		c14.75,7.64,30.09,13.78,46.52,16.79c9.45,1.73,18.39,0.99,26.26-5.34c4.08-3.29,6.94-7.25,7.36-12.54
		c0.54-6.9,3.27-12.79,7.31-18.27c5.04-6.83,9.98-13.74,14.9-20.66c9.07-12.75,18.17-25.48,27.09-38.33
		c4.01-5.78,6.39-12.23,6.15-19.42c-0.24-7.32-0.57-14.65-0.74-21.97c-0.11-4.85-0.02-9.71-0.02-14.93
		c-0.94,0.45-1.31,0.61-1.66,0.81c-6.99,4.02-14.29,5.24-22.06,2.48c-3.21-1.14-6.47-2.15-9.69-3.26c-1.45-0.5-2.87-1.09-5.05-1.93
		c0,2.67-0.44,4.89,0.08,6.88c2.1,8.12,4.55,16.16,6.74,24.26c1.98,7.29,4.09,14.57,5.59,21.96c1.19,5.87-2.38,10.89-8.16,12.55
		c-4.41,1.27-8.82,1.06-12.86-1.13c-3.57-1.93-6.92-4.29-10.35-6.47c-1.91-1.21-3.84-1.67-6.15-1.07c-1.9,0.49-3.97,0.62-5.94,0.53
		c-7.44-0.36-11.92-5.52-11.28-12.92C504.58,546.8,505.05,545.13,505.43,543.12z M475.91,688.39c-0.62-0.38-0.88-0.57-1.16-0.71
		c-17.82-9.21-33.24-21.53-46.5-36.49c-21.53-24.3-36.95-51.83-42.93-84.07c-1.41-7.61-3.29-15.41,0.46-23.02
		c0.21-0.43-0.12-1.25-0.39-1.79c-9.61-20.02-18.63-40.3-26.21-61.19c-9.39-25.87-16.02-52.34-17.01-79.99
		c-0.95-26.64,3.38-52.58,10.64-78.1c1.79-6.28,3.74-12.52,5.63-18.82c-3.48,0.17-6.51,0.05-9.04,3.51
		c-8.14,11.13-16.86,21.67-20.91,35.39c-5.29,17.93-9.15,35.92-8.69,54.71c0.41,16.64,3.21,32.94,6.37,49.22
		c0.38,1.96,1.16,2.9,3.06,3.59c1.91,0.69,3.69,1.92,5.29,3.21c5.52,4.48,9.4,10.31,12.94,16.37c2.27,3.89,1.72,6.83-1.48,10.09
		c-2.09,2.13-4.31,4.24-5.91,6.73c-5.66,8.79-2.66,11.89,3.32,15.35c4.25,2.45,8.64,4.64,12.91,7.07c6.4,3.64,9.27,9.09,8.14,16.48
		c-0.14,0.9-0.41,1.81-0.38,2.71c0.03,0.85,0.14,1.87,0.62,2.5c5.5,7.19,9.65,15.15,13.31,23.37
		c8.69,19.55,12.85,39.86,10.02,61.29c-0.71,5.38-1.84,10.68-4.92,15.3c-2.53,3.8-5.3,4.76-9.67,3.62
		c-5.25-1.37-9.54-4.25-13.09-8.28c-6.2-7.03-9.72-15.44-12.34-24.28c-1.24-4.19-2.19-8.46-3.4-13.17c0,0.74-0.01,0.99,0,1.24
		c1.31,28.46-1.71,56.57-7.53,84.36c-5.31,25.4-11.19,50.68-16.79,76.02c-0.87,3.94-1.63,7.9-2.43,11.86
		c0.69-0.38,0.92-0.89,1.12-1.41c5.36-13.96,14.02-25.65,24.88-35.76c17.84-16.6,38.8-27.62,62.13-34.28
		c17.3-4.94,34.94-6.86,52.88-5.06C464.38,686.51,469.86,687.52,475.91,688.39z M349.36,260.08c-21.73,9.24-42.37,20.94-61.1,35.89
		c-11.85,9.46-22.6,20-30.33,33.2c-5.92,10.1-9.68,21.16-13.47,32.16c-10.38,30.16-18.33,60.99-25.39,92.07
		c-1.1,4.86-2.06,9.75-3.09,14.63c9.39-13.69,12.57-17.42,20.99-23.94c16.83-13.05,35.8-22,55.8-28.95
		c1.59-0.55,2.64-1.28,3.44-2.84c6.71-13.2,13.56-26.33,20.3-39.51c2.23-4.36,4.63-8.68,6.33-13.25
		c1.82-4.89,2.66-10.14,4.37-15.08c2.03-5.87,3.83-11.99,6.99-17.25c4.27-7.1,9.73-13.49,14.69-20.17c0.81-1.1,1.68-2.15,2.6-3.31
		c-4.51-2.53-4.92-6.39-4.3-10.73c1.25-8.8,3.49-17.27,8.01-24.72C353.2,265.46,351.34,262.85,349.36,260.08z M318.43,382.6
		c0.08-0.03,0.16-0.06,0.23-0.08c-0.19,0.69-0.41,1.37-0.56,2.07c-7.92,36.09-15.46,72.24-20.75,108.83
		c-3.84,26.56-6.45,53.22-7.44,80.05c-1.08,29.36-0.2,58.66,2.79,87.86c2.15,20.94,5.22,41.79,7.93,62.68
		c0.45,3.46,1.16,6.89,1.86,11.03c0.64-1.22,0.9-1.73,1.17-2.24c6.24-12.18,14.44-22.72,25.56-30.88c0.88-0.64,1.47-1.98,1.73-3.1
		c1.67-7.38,3.3-14.78,4.79-22.2c4.03-20.11,7.31-40.34,7.73-60.88c0.3-14.64-0.23-29.3-0.35-43.96
		c-0.06-6.58-0.06-13.16-0.03-19.74c0.01-2.16-0.16-3.77-2.95-4.2c-1.69-0.26-3.37-1.43-4.78-2.54c-4.55-3.6-7-8.68-8.76-13.99
		c-4.39-13.25-8.57-26.58-12.76-39.9c-2.34-7.42-3.91-14.97-3.34-22.84c0.72-10.12,6.28-17.36,14.84-19.25
		c-1.75-11.08-3.98-22.1-5.13-33.24C319.04,404.97,318.97,393.76,318.43,382.6z M305.88,396.44c-0.16-0.11-0.31-0.22-0.47-0.32
		c-3.06,6.44-6.46,12.74-9.11,19.35c-14.1,35.1-28.02,70.28-41.99,105.44c-0.36,0.92-0.72,1.88-0.81,2.85
		c-1.51,14.91-2.85,29.84-4.49,44.73c-2.22,20.11-5.15,40.1-9.78,59.83c-9.91,42.24-14.71,85.1-15.07,128.46
		c-0.19,23.09,0.9,46.13,2.93,69.13c0.39,4.4,0.91,8.8,1.37,13.2c0.83-0.79,1.23-1.59,1.58-2.41c3.99-9.51,7.95-19.02,11.97-28.52
		c7.86-18.58,16.45-36.76,29.16-52.66c0.48-0.61,0.71-1.7,0.57-2.48c-3.77-20.6-5.7-41.4-6.61-62.3
		c-1.68-38.61-0.01-77.13,4.08-115.52c2.22-20.76,5.12-41.46,8.34-62.1c4.8-30.76,11.44-61.15,20.27-91.03
		C300.35,413.49,303.18,404.99,305.88,396.44z M320.95,367.31c-0.16-0.07-0.32-0.14-0.49-0.21c-3.12,6.31-6.79,12.41-9.25,18.96
		c-4.62,12.29-8.98,24.71-12.68,37.3c-13.05,44.51-21.15,90.02-26.61,136.03c-3.13,26.31-5.17,52.71-6,79.2
		c-1.11,35.87-0.06,71.62,5.6,107.13c3.02,18.95,7.47,37.53,15.02,55.25c1.64,3.85,3.56,7.59,5.35,11.38
		c0.09-4.98-0.38-9.76-0.61-14.55c-0.97-20.38,1.67-40.18,9.62-59.12c0.48-1.15,0.64-2.6,0.46-3.85
		c-2.11-14.75-4.47-29.46-6.46-44.22c-3.56-26.35-5.61-52.83-6.24-79.42c-0.89-37.22,1.63-74.24,6.73-111.11
		c4.88-35.31,11.79-70.24,19.43-105.03C316.85,385.8,318.91,376.55,320.95,367.31z M374.12,295.06c-4.86,2.79-9.26,5.27-13.58,7.86
		c-0.54,0.32-0.83,1.2-1.06,1.87c-1.16,3.47-2.3,6.95-3.36,10.45c-6.35,20.91-11.05,42.15-12.57,64
		c-1.88,26.97,1.77,53.29,9.3,79.17c6.75,23.21,15.95,45.46,25.96,67.41c2.4,5.27,4.87,10.51,7.6,16.39
		c0.55-1.44,0.88-2.25,1.17-3.08c2.13-5.95,4.29-11.88,6.35-17.85c0.42-1.21,0.67-2.57,0.61-3.84c-0.45-8.74,0.39-17.32,3.26-25.6
		c3.4-9.81,7.03-19.54,10.52-29.33c0.25-0.69,0.51-1.67,0.21-2.21c-2.02-3.71-4.28-7.29-6.28-11.01
		c-8.82-16.35-16.42-33.23-21.74-51.08c-8.18-27.43-9.47-55.5-7.71-83.84C373.16,308.15,373.64,301.93,374.12,295.06z
		 M595.45,405.66c3-3.39,2.65-7.24,2.94-10.79c2.16-25.94-2.2-50.76-13.46-74.24c-11.74-24.49-29.65-42.96-54.28-54.73
		c-14.59-6.97-30.04-10.71-46.05-12.26c-13.72-1.33-27.45-0.93-41.15,0.54c-0.71,0.08-1.58,0.48-2.01,1.03
		c-1.14,1.45-2.09,3.07-3.14,4.66c0.56,0.17,1.32,0.41,2.1,0.63c17.69,5.04,35.17,10.65,51.61,19.07
		c19.46,9.97,35.04,24.02,45.64,43.34c6.68,12.18,11.32,25.15,14.85,38.54c0.4,1.51,0.97,2.32,2.7,2.65
		c3.18,0.59,6.33,1.44,9.39,2.5c15.17,5.27,25.84,14.81,29.21,31.17C594.31,400.26,594.84,402.76,595.45,405.66z M232.78,570.78
		c0.2-0.02,0.4-0.04,0.6-0.06c20.55-51.62,41.09-103.25,61.81-155.3c-1.25,0.41-2.03,0.61-2.77,0.91
		c-8.6,3.55-17.35,6.77-25.75,10.75c-14.2,6.74-27.55,14.92-38.55,26.35c-7.68,7.97-13.46,17.04-14.94,28.35
		c-1.11,8.5-0.62,16.96,0.56,25.4c2.08,14.9,6.23,29.27,11.28,43.38C227.45,557.35,230.19,564.04,232.78,570.78z M422.42,266.89
		c8.15,5.06,16.13,9.72,23.81,14.83c16.37,10.9,30.31,24.17,39.52,41.86c7.83,15.03,11.76,31.23,14.25,47.85
		c0.72,4.83,1.31,9.68,1.96,14.51c0.25,0.11,0.5,0.22,0.76,0.33c1.51-2.4,3.43-4.65,4.46-7.24c2.6-6.52,7.46-10.51,13.67-13.06
		c7.87-3.24,16.15-3.79,24.54-3.22c2.13,0.14,4.26,0.38,6.87,0.61c-2.18-6.81-4.12-13.33-6.36-19.74
		c-10.3-29.46-29.09-51.35-57.54-64.79c-16.47-7.78-33.7-13.28-51.16-18.18c-0.6-0.17-1.4-0.24-1.93,0.01
		C431,262.67,426.77,264.76,422.42,266.89z M343.86,547.54c4.98-0.03,8.7-1.52,11.78-4.45c5.11-4.85,7.03-11.1,7.86-17.88
		c0.82-6.68-1.85-11.46-7.5-14.78c-1.65-0.97-3.32-1.9-4.98-2.85c-3.75-2.14-7.67-4.03-11.21-6.48c-3.78-2.62-4.43-5.43-2.97-9.85
		c0.47-1.41,1-2.89,1.89-4.04c2.08-2.69,4.3-5.28,6.64-7.75c2.79-2.94,3.23-5.28,1.21-8.73c-1.14-1.94-2.28-3.88-3.56-5.72
		c-3.34-4.81-6.97-9.37-12.05-12.5c-5.1-3.14-10.19-2.51-13.76,2.18c-1.97,2.59-3.67,5.61-4.66,8.7
		c-2.35,7.39-1.39,14.92,0.72,22.16c3.84,13.17,8.07,26.22,12.16,39.31c1.89,6.04,3.9,12.04,7.94,17.09
		C336.24,545.54,339.89,547.58,343.86,547.54z M350.09,232.1c0.09-0.01-0.23-0.04-0.53,0.04c-13.64,3.76-27.11,8.01-39.85,14.29
		c-15.67,7.71-28.66,18.4-37.49,33.73c-6.98,12.12-10.94,25.29-13.71,38.88c-0.59,2.92-1.08,5.86-1.62,8.79
		c1.77-1.82,3.03-3.77,4.38-5.65c10.56-14.67,24.15-26.11,38.88-36.3c15.03-10.4,31-19.13,47.82-26.31
		c0.73-0.31,1.76-1.06,1.8-1.66c0.44-5.87,0.81-11.75,0.96-17.63C350.8,237.6,350.33,234.92,350.09,232.1z M394.57,523.9
		c-0.16-0.02-0.32-0.05-0.48-0.07c-2.92,8.21-5.84,16.42-8.76,24.64c-0.17,0.47-0.38,0.94-0.45,1.42
		c-0.12,0.82-0.29,1.67-0.19,2.47c1,7.41,1.33,15.01,3.23,22.19c11.8,44.57,37.13,79.63,75.36,105.35
		c3.96,2.66,8.24,4.86,12.37,7.27c-0.18-1.06-0.68-1.66-1.22-2.23c-15.73-16.49-30.11-34.05-42.44-53.25
		c-18.5-28.81-30.85-59.96-35.59-93.98C395.77,533.11,395.18,528.5,394.57,523.9z M349.15,549.14c-0.05,0.98-0.07,1.56-0.1,2.13
		c-0.93,20.7,0.97,40.9,10.39,59.81c2.6,5.23,5.09,10.53,9.75,14.31c5.39,4.36,9.85,2.98,11.9-3.57c0.17-0.55,0.32-1.12,0.44-1.69
		c1.65-8.1,1.22-16.25,0.44-24.38c-1.02-10.6-2.07-21.22-5.56-31.37c-3.37-9.77-8.34-18.63-15.65-26.27
		c-3.7,6.56-9.09,10.28-16.53,11.02C345.78,549.14,347.33,549.14,349.15,549.14z M390.14,252.99c-12.34,0.02-20.4,2.2-25.83,6.64
		c-11.88,9.73-15.48,23.23-16.21,37.73c-0.23,4.55,6.17,7.83,10.08,5.37c1.36-0.86,2.8-1.37,4.15-2.14
		c15.61-8.88,31.22-17.77,46.79-26.72c5.6-3.22,5.92-8.29,0.93-12.45C403.18,255.72,395.25,253.03,390.14,252.99z M356.02,266.92
		c3.24-4.44,6.83-8.21,11.61-10.61c7.58-3.81,15.61-4.93,24-3.99c1.15,0.13,2.77,0.35,3.45-0.27c5.25-4.78,9.92-10.05,12.61-16.79
		c1.2-3.01,0.57-5.76-2.31-7.16c-7.66-3.72-15.58-6.7-24.23-7.07c-9.72-0.41-18.18,3.29-26.21,8.27c-3.2,1.98-4.23,4.23-3.58,7.99
		c1,5.79,1.33,11.66-0.04,17.36C350.05,259.89,352.02,263.49,356.02,266.92z M414.27,269.71c8.46-4.13,16.39-7.91,24.22-11.9
		c2.03-1.04,2.57-3.6,1.64-5.73c-4.64-10.57-11.93-18.1-23.65-20.59c-4.43-0.94-5.76-0.06-7.91,3.88
		c-2.41,4.41-5.25,8.61-8.19,12.7c-1.22,1.7-3.18,2.86-5.2,4.61c1.67,0.61,2.56,0.83,3.34,1.25c4,2.16,8.06,4.21,11.92,6.6
		C413.46,262.4,415.16,265.21,414.27,269.71z M348,550.34c-3.9-0.37-3.9-0.37-3.99,2.94c-0.31,12.09-0.05,24.15,2,36.11
		c1.87,10.91,5.05,21.37,10.92,30.85c3.96,6.4,9.11,11.46,16.66,13.48c4.05,1.08,6.57,0.29,8.74-3.33
		c1.35-2.25,2.44-4.76,3.14-7.29c2.85-10.35,2.87-20.9,1.8-31.48c-1.7-16.91-7.49-32.5-15.43-47.37c-2.18-4.07-4.79-7.91-7.47-12.3
		c-0.52,1.47-0.7,2.3-1.09,3.01c-1.21,2.23-0.56,3.84,1.07,5.72c5.05,5.83,8.98,12.44,11.62,19.67
		c6.43,17.63,7.99,35.98,7.35,54.57c-0.11,3.17-1,6.43-2.14,9.42c-1.65,4.33-5.2,5.78-9.29,3.61c-2.7-1.43-5.33-3.53-7.18-5.95
		c-6.15-8.04-9.48-17.54-12.58-27.02c-2.94-8.99-3.66-18.43-4.08-27.84C347.8,561.6,348,556.03,348,550.34z M450,654.6
		c-0.64-2.82-1.64-5.62-1.84-8.48c-0.3-4.2-2.27-7.07-5-10.23c-6.08-7.03-11.68-14.53-16.93-22.21
		c-5.24-7.67-9.81-15.79-15.06-24.33C420.9,613.51,434.08,634.82,450,654.6z M568.09,494.26c0.91,4.94,0.61,9.73-2.24,14.08
		c6.38,2.65,14.16,0.18,20-6.19C581.22,496.12,573.84,492.81,568.09,494.26z"/>
	<path class="st0" fill="#ffffff" stroke="#000000" d="M703,907c-10.5,0-21,0-31.5,0c-3.49-4.25-7.14-8.37-10.41-12.78c-3.42-4.6-6.62-9.38-9.65-14.25
		c-2.09-3.37-1.95-4.77,0.96-7.45c3.41-3.15,7.17-5.94,10.89-8.73c0.48-0.36,1.98-0.08,2.48,0.42c1.94,1.93,3.72,4.03,5.46,6.15
		c4.17,5.08,8.15,10.33,12.49,15.27c2.66,3.04,3.44,2.9,6.79,0.65c1.11-0.74,2.23-1.47,3.25-2.32
		c17.81-14.78,35.65-29.53,53.38-44.42c5.86-4.92,11.42-10.21,17.09-15.37c3.41-3.11,3.55-3.87,1.13-7.85
		c-1.25-2.06-2.69-4.01-4.17-5.91c-3.67-4.74-7.38-9.45-11.14-14.12c-1.36-1.69-1.35-3.19,0.3-4.54c4.81-3.92,9.67-7.77,15-12.04
		c1.41,1.71,2.43,2.92,3.42,4.15c11.25,14.03,22.57,28.01,33.71,42.13c5.57,7.05,10.76,14.4,16.22,21.53
		c1.71,2.23,1.3,3.94-0.73,5.49c-4.76,3.64-9.57,7.2-14.31,10.86c-1.49,1.15-2.59,0.96-3.75-0.46c-3.37-4.13-6.85-8.17-10.19-12.32
		c-2.69-3.35-5.25-6.8-7.9-10.27c-0.64,0.5-1.11,0.85-1.55,1.22c-14.35,12.04-28.71,24.08-43.06,36.13
		C725.79,887.78,714.4,897.4,703,907z"/>
	<path class="st0" fill="#ffffff" stroke="#000000" d="M98.5,907c-7.33,0-14.67,0-22,0c-0.72-0.34-1.44-0.71-2.17-1.03c-6.26-2.68-12.66-5.07-18.76-8.08
		c-7.79-3.86-15.09-8.53-20.44-15.63c-3.81-5.05-4.86-10.45-1.89-16.35c3.13-6.21,7.67-10.41,14.92-10.94
		c6.74-0.49,12.78,1.72,18.55,4.9c1.57,0.86,3.06,1.85,4.8,2.91c-0.21-3.9-0.5-7.46-0.56-11.02c-0.11-5.94,0.25-11.84,2.68-17.38
		c2.29-5.22,6.55-7.25,11.8-5.09c2.92,1.2,5.72,3.1,8.03,5.26c4.12,3.86,6.18,9.06,7.48,14.45
		C105.64,868.56,103.56,887.85,98.5,907z"/>
	<path class="st0" fill="#ffffff" stroke="#000000" d="M558.5,907c-0.9-11.95-1.66-23.91-2.75-35.84c-1.46-16.07-3.08-32.13-4.79-48.18
		c-0.91-8.6-2.14-17.17-3.22-25.75c-0.06-0.45-0.09-0.91,0.19-1.48c2.41,4.53,4.88,9.03,7.22,13.6
		c10.19,19.9,20.63,39.68,30.39,59.79c5.57,11.49,9.99,23.54,14.92,35.33c0.35,0.84,0.69,1.68,1.04,2.53
		C587.17,907,572.83,907,558.5,907z"/>
	<path d="M703,907c11.4-9.6,22.79-19.22,34.2-28.81c14.34-12.06,28.7-24.09,43.06-36.13c0.44-0.37,0.91-0.72,1.55-1.22
		c2.66,3.46,5.21,6.92,7.9,10.27c3.34,4.15,6.82,8.19,10.19,12.32c1.16,1.43,2.26,1.61,3.75,0.46c4.74-3.66,9.55-7.22,14.31-10.86
		c2.03-1.55,2.44-3.26,0.73-5.49c-5.46-7.14-10.66-14.48-16.22-21.53c-11.14-14.12-22.46-28.09-33.71-42.13
		c-0.99-1.23-2.01-2.44-3.42-4.15c-5.32,4.27-10.19,8.12-15,12.04c-1.65,1.34-1.66,2.85-0.3,4.54c3.76,4.67,7.47,9.38,11.14,14.12
		c1.48,1.91,2.92,3.86,4.17,5.91c2.41,3.98,2.28,4.74-1.13,7.85c-5.66,5.16-11.23,10.44-17.09,15.37
		c-17.72,14.89-35.57,29.63-53.38,44.42c-1.02,0.85-2.14,1.58-3.25,2.32c-3.35,2.24-4.12,2.38-6.79-0.65
		c-4.33-4.94-8.31-10.19-12.49-15.27c-1.74-2.12-3.52-4.22-5.46-6.15c-0.51-0.5-2-0.78-2.48-0.42c-3.73,2.79-7.48,5.58-10.89,8.73
		c-2.91,2.69-3.06,4.08-0.96,7.45c3.03,4.87,6.23,9.65,9.65,14.25c3.28,4.4,6.93,8.53,10.41,12.78c-0.5,0-1,0-1.5,0
		c-5.36-7-10.8-13.94-16.05-21.02c-1.67-2.25-2.88-4.85-4.28-7.31c-1.04-1.83-0.86-3.78,0.58-5.08c4.25-3.83,8.65-7.5,13.14-11.04
		c0.48-0.38,2.29,0.22,2.95,0.88c2.28,2.3,4.37,4.79,6.45,7.28c3.88,4.67,7.6,9.49,11.58,14.07c2.34,2.7,2.98,2.75,5.81,0.49
		c12.11-9.65,24.3-19.21,36.14-29.19c12.35-10.41,24.36-21.22,36.45-31.94c4.11-3.64,4.21-3.98,0.99-8.42
		c-4.1-5.66-8.55-11.07-12.84-16.59c-4.06-5.22-4.14-5.8,0.9-10.13c3.4-2.92,7.25-5.31,10.74-8.13c2.22-1.79,3.82-1.25,5.45,0.69
		c4.39,5.23,8.96,10.31,13.2,15.67c11.11,14.04,22.11,28.17,33.08,42.32c2.14,2.76,3.95,5.76,5.94,8.64
		c1.06,1.53,1.08,3.06-0.4,4.21c-5.69,4.45-11.4,8.87-17.26,13.1c-0.51,0.37-2.47-0.52-3.19-1.33c-3.33-3.72-6.52-7.57-9.66-11.45
		c-2.72-3.37-5.29-6.84-8.09-10.47c-4.22,3.51-8.37,6.96-12.5,10.42c-20.74,17.4-41.47,34.8-62.19,52.21
		c-0.73,0.61-1.3,1.4-1.94,2.11C704.33,907,703.67,907,703,907z"/>
	<path d="M98.5,907c5.06-19.15,7.14-38.44,2.43-57.99c-1.3-5.39-3.36-10.59-7.48-14.45c-2.31-2.17-5.11-4.06-8.03-5.26
		c-5.25-2.16-9.51-0.13-11.8,5.09c-2.43,5.54-2.79,11.44-2.68,17.38c0.07,3.56,0.36,7.12,0.56,11.02c-1.74-1.06-3.23-2.05-4.8-2.91
		c-5.77-3.18-11.81-5.39-18.55-4.9c-7.25,0.52-11.8,4.73-14.92,10.94c-2.97,5.9-1.92,11.3,1.89,16.35
		c5.35,7.1,12.66,11.78,20.44,15.63c6.09,3.02,12.5,5.41,18.76,8.08c0.74,0.31,1.45,0.68,2.17,1.03c-1,0-2,0-3,0
		c-6.13-2.71-12.38-5.19-18.37-8.18c-7.55-3.77-14.62-8.33-20.04-14.99c-4.49-5.52-6.14-11.47-2.78-18.27
		c3.44-6.97,8.6-11.31,16.62-11.63c6.53-0.26,12.43,1.88,18.05,4.95c1.08,0.59,2.14,1.2,3.48,1.95c0-6.37-0.23-12.44,0.1-18.47
		c0.16-2.84,1.08-5.74,2.2-8.39c2.47-5.85,7.3-7.74,13.29-5.6c6.57,2.35,10.61,7.27,13.38,13.37c3.1,6.83,4.34,14.13,4.79,21.56
		c0.9,14.83-0.66,29.4-4.73,43.7C99.17,907,98.83,907,98.5,907z"/>
	<path d="M126.44,517.96c7.06,32.27,14.03,64.08,21,95.9c-0.29,0.15-0.57,0.31-0.86,0.46c-35.06-49.16-70.11-98.31-105.63-148.12
		c14.23,1.82,27.71,3.53,41.68,5.32c-11.19-25.78-22.25-51.24-33.17-76.38c5.3,0,10.53-0.18,15.74,0.03
		c21.31,0.87,42.61,1.89,63.92,2.77c1.61,0.07,2.5,0.44,3.16,2.03c17.24,41.46,34.54,82.89,51.83,124.32
		c0.16,0.37,0.28,0.76,0.6,1.63C165.16,523.25,145.96,520.63,126.44,517.96z M125.16,516.78c19.61,2.68,38.62,5.28,57.88,7.91
		c-0.31-0.92-0.47-1.48-0.69-2c-16.96-40.66-33.93-81.31-50.87-121.98c-0.52-1.25-1.13-1.71-2.52-1.76
		c-21.55-0.91-43.1-1.92-64.65-2.82c-4.38-0.18-8.78-0.03-13.36-0.03c10.97,25.25,22.03,50.72,33.28,76.64
		c-13.87-1.77-27.24-3.47-41.16-5.24c34.24,48.02,68.13,95.53,102.01,143.05c0.17-0.09,0.35-0.18,0.52-0.27
		C138.83,579.26,132.05,548.26,125.16,516.78z"/>
	<path d="M642.69,303.09c13.88-11.66,27.76-23.31,41.84-35.13c-8-16.42-16-32.83-24.23-49.73c0.96,0.47,1.53,0.69,2.03,1
		c14.33,8.93,28.69,17.84,42.96,26.87c1.74,1.1,2.63,0.79,3.96-0.5c11.58-11.27,23.23-22.48,34.85-33.7
		c0.82-0.79,1.68-1.56,3.11-2.1c-4.37,17.58-8.74,35.15-13.16,52.94c16.17,8.61,32.28,17.19,48.39,25.77
		c-0.03,0.15-0.06,0.31-0.1,0.46c-6.84,0.5-13.68,1.01-20.53,1.49c-10.47,0.73-20.94,1.52-31.41,2.09c-2.38,0.13-3,1.14-3.35,3.22
		c-2.81,16.4-5.72,32.79-8.6,49.18c-0.11,0.65-0.3,1.28-0.59,2.55c-7.08-17.49-13.94-34.44-20.82-51.43
		c-18.19,2.55-36.14,5.06-54.1,7.58C642.86,303.46,642.77,303.27,642.69,303.09z M663.36,221.05c-0.11,0.14-0.22,0.27-0.33,0.41
		c0.35,0.75,0.69,1.5,1.05,2.24c6.84,14.06,13.64,28.15,20.59,42.16c0.94,1.9,0.69,2.82-0.87,4.11
		c-9.95,8.22-19.81,16.55-29.7,24.85c-2.71,2.27-5.4,4.55-8.46,7.13c1.23,0,1.88,0.08,2.51-0.01c15.75-2.2,31.5-4.37,47.23-6.69
		c1.91-0.28,2.57,0.26,3.23,1.93c5.92,14.83,11.94,29.62,17.93,44.41c0.22,0.54,0.56,1.03,0.96,1.76c0.23-0.55,0.37-0.76,0.41-0.99
		c2.83-15.98,5.71-31.95,8.39-47.95c0.37-2.19,1.3-2.64,3.18-2.76c15.46-1.02,30.91-2.11,46.37-3.17c0.93-0.06,1.86-0.16,2.79-0.24
		c0.02-0.19,0.05-0.38,0.07-0.57c-15.24-8.11-30.48-16.23-45.83-24.4c4.22-16.97,8.4-33.78,12.58-50.58
		c-0.14-0.08-0.29-0.16-0.43-0.24c-12.5,12.06-25,24.11-37.52,36.19C692.67,239.35,678.01,230.2,663.36,221.05z"/>
	<path d="M652.83,666.53c-10.67,20.41-21.12,40.4-31.57,60.38c-0.32-0.08-0.64-0.16-0.95-0.24c3.22-42.08,6.43-84.16,9.7-126.86
		c6.8,7.34,13.25,14.3,20.04,21.62c5.55-18.83,10.99-37.28,16.55-56.11c3.88,3.53,7.54,6.86,11.19,10.2
		c9.39,8.6,18.71,17.29,28.22,25.76c2.44,2.17,3.25,3.89,2.16,7.3c-9.1,28.68-17.94,57.44-26.86,86.18
		c-0.19,0.61-0.44,1.21-0.81,2.19C671.2,686.74,662.12,676.74,652.83,666.53z M650.5,623.41c-6.62-7.14-12.93-13.96-19.67-21.23
		c-3.12,40.73-6.2,80.9-9.27,121.06c0.14,0.04,0.29,0.08,0.43,0.12c10.16-19.43,20.31-38.85,30.62-58.57
		c9.24,10.16,18.27,20.09,27.28,30c0.33-0.26,0.42-0.29,0.44-0.35c9.1-29.3,18.18-58.61,27.34-87.9c0.47-1.5,0.04-2.24-0.98-3.17
		c-10.77-9.82-21.5-19.68-32.24-29.53c-2.36-2.17-4.74-4.31-7.35-6.69C661.52,586.05,656.07,604.53,650.5,623.41z"/>
	<path d="M112.78,99.75c7.1,0,13.74,0,20.66,0c0.85-5.77,1.69-11.5,2.54-17.24c0.33-2.22,0.94-4.45,0.91-6.67
		c-0.04-3.43,1.63-5.26,4.74-5.89c3.22-0.65,6.51-1.6,9.73-1.48c5.96,0.22,9.33,4.58,8.51,10.52c-1.97,14.34-4.07,28.66-6.12,42.99
		c-1.29,9.06-2.57,18.12-3.89,27.34c-7.82,0-15.6,0-23.64,0c1.5-10.33,2.99-20.57,4.51-31.02c-7.02,0-13.72,0-20.6,0
		c-1.46,10.34-2.91,20.6-4.39,31.02c-7.88,0-15.67,0-23.73,0c0.72-5.09,1.42-10.16,2.16-15.21c2.92-20,5.89-40,8.74-60.01
		c0.24-1.71,0.89-2.62,2.42-3.31c3.94-1.76,7.95-2.95,12.33-2.4c5.16,0.65,8.2,3.8,7.91,9.09c-0.27,4.97-1.19,9.9-1.83,14.85
		C113.44,94.71,113.13,97.08,112.78,99.75z M127.37,148.35c7.32,0,14.44,0,21.6,0c1.14-7.88,2.28-15.62,3.39-23.36
		c2.19-15.32,4.39-30.64,6.52-45.96c0.77-5.53-2.25-9.18-7.79-9.71c-3.85-0.36-7.47,0.59-10.83,2.34
		c-0.92,0.48-1.86,1.68-2.06,2.69c-0.74,3.84-1.16,7.73-1.72,11.6c-0.71,4.91-1.44,9.82-2.15,14.7c-7.72,0-15.15,0-22.74,0
		c0.41-2.93,0.79-5.64,1.15-8.35c0.64-4.7,1.49-9.38,1.85-14.1c0.42-5.55-2.49-8.93-8.03-8.8c-3.55,0.08-7.08,1.41-10.6,2.26
		c-1.34,0.32-1.85,1.25-2.06,2.71c-2.72,19.02-5.55,38.04-8.33,57.05c-0.82,5.63-1.6,11.27-2.4,16.91c7.39,0,14.51,0,21.71,0
		c1.38-9.79,2.78-19.42,4.06-29.06c0.2-1.53,0.62-2.17,2.26-2.15c6.33,0.08,12.66,0.03,18.99,0.05c0.53,0,1.06,0.18,1.7,0.29
		C130.37,127.84,128.88,138.02,127.37,148.35z"/>
	<path d="M388.9,76.85c-4.18,5.31-8.08,10.26-11.47,14.58c-4.07-1.51-7.67-3.2-11.45-4.11c-2.02-0.48-4.52,0-6.52,0.76
		c-3.04,1.16-3.37,4.14-0.71,6.02c2.07,1.46,4.49,2.49,6.87,3.44c6.28,2.49,12.2,5.46,15.95,11.41c6.8,10.8,3.29,27.02-7.49,34.79
		c-13.38,9.64-35.53,9.1-48.54-1.1c-1.44-1.13-1.79-2-0.89-3.69c2.41-4.55,4.61-9.2,6.92-13.85c6.59,5.71,14.2,7.27,22.47,6.44
		c1.05-0.1,2.13-0.43,3.1-0.88c3.41-1.57,3.93-5.37,0.9-7.61c-1.71-1.26-3.82-1.97-5.7-3.02c-4.26-2.37-8.91-4.28-12.65-7.29
		c-10.93-8.79-10.6-33.45,6.11-40.86C360.8,65.24,375.12,67.51,388.9,76.85z M324.96,140.71c0.52,0.5,0.86,0.87,1.24,1.18
		c12.15,9.77,34.28,10.37,46.96,1.28c11.87-8.51,14.55-25.97,5.52-36.38c-3.6-4.15-8.49-6.29-13.46-8.3
		c-2.45-0.99-4.96-2.05-7.07-3.59c-3.34-2.45-2.85-6.35,1.04-7.78c2.24-0.82,4.97-1.2,7.27-0.73c3.57,0.74,6.96,2.37,10.72,3.74
		c3.14-4,6.6-8.41,10.02-12.77c-0.31-0.38-0.4-0.53-0.52-0.63c-0.25-0.22-0.51-0.43-0.79-0.61c-11.8-7.53-24.43-9.01-37.51-4.32
		c-18.78,6.73-18.7,32.46-7.44,40.78c3.43,2.54,7.45,4.3,11.22,6.36c2.18,1.19,4.66,1.95,6.58,3.45c3.57,2.78,2.92,7.58-1.32,9.15
		c-2.49,0.92-5.35,1.22-8.04,1.19c-6.37-0.07-12.28-1.87-17.54-5.97C329.51,131.49,327.27,136.02,324.96,140.71z"/>
	<path d="M617.52,129.19c5.22-12.18,8.08-24.97,10.78-38.13c7.14,1.06,14.16,2.1,21.62,3.21c-0.66,3.09-1.12,6.03-1.91,8.87
		c-5.96,21.42-15.35,41.11-29.77,58.18c-5.24,6.2-11.28,11.54-19.23,14.94c-2.78-5.23-5.53-10.39-8.38-15.75
		c6.03-2.7,10.92-6.57,14.95-11.87c-5.27-2.21-6.47-6.7-7.16-11.71c-1.81-13.19-3.83-26.35-5.79-39.52
		c-0.54-3.63-0.58-4.06,3.08-4.72c4.21-0.76,8.58-1.47,12.79-1.13c5.74,0.46,8.95,4.59,9,10.41
		C617.58,111.04,617.52,120.12,617.52,129.19z M629.15,92.19c-3.1,14.23-6.08,28.2-12.31,41.24c-0.4-1-0.41-1.94-0.4-2.89
		c0.03-9.49,0.12-18.98,0.07-28.47c-0.03-5.46-2.83-9.08-8.22-9.52c-3.97-0.33-8.03,0.58-12.05,0.96c-2.46,0.23-2.97,1.51-2.6,3.92
		c2.06,13.24,4.02,26.49,5.83,39.76c0.69,5.03,2.15,9.28,8.11,11.03c-2.59,2.67-4.73,5.22-7.23,7.35
		c-2.51,2.12-5.38,3.82-8.16,5.74c2.41,4.51,4.85,9.09,7.28,13.65c6.64-3.06,12.82-8.01,18.62-14.94
		c12.41-14.82,20.84-31.79,26.89-50.01c1.59-4.77,2.65-9.71,4.03-14.83C642.12,94.14,635.8,93.19,629.15,92.19z"/>
	<path d="M748.08,437.38c3.5-1.67,6.85-3.5,10.37-4.9c6.44-2.56,13.08-3.9,20-1.99c14.54,4,20.38,21.31,10.93,32.95
		c-2.59,3.19-5.74,6.07-9.04,8.53c-13.81,10.28-29.57,16.47-46.02,20.99c-5.28,1.45-10.73,2.27-16.09,3.41
		c-1.33,0.28-2.13,0.04-2.58-1.43c-6.87-22.72-9.68-45.72-4.62-69.2c1.76-8.17,4.92-15.86,11.8-21.13
		c2.76-2.11,6.16-3.64,9.51-4.66c5.08-1.54,9.61,0.74,12.2,5.38c2.79,5,3.74,10.5,3.91,16.1c0.14,4.81-0.21,9.64-0.35,14.46
		C748.07,436.36,748.08,436.85,748.08,437.38z M716.62,496.19c8.74-2.22,16.8-3.91,24.63-6.34c13.64-4.23,26.72-9.83,38.21-18.49
		c3.62-2.73,6.9-6.02,9.85-9.48c10.96-12.88-2.33-29.67-13.21-30.95c-8.81-1.04-16.58,1.6-24.1,5.65c-1.7,0.92-3.33,1.99-4.52,2.7
		c0-5.92,0.19-11.91-0.06-17.87c-0.23-5.67-1.04-11.3-4.22-16.24c-2.54-3.95-6.23-5.42-10.75-4.35
		c-6.92,1.62-11.82,5.9-15.34,11.88c-4.53,7.7-6.23,16.25-7.1,25c-1.21,12.18-0.45,24.31,1.63,36.32
		C712.89,481.19,714.82,488.25,716.62,496.19z"/>
	<path d="M443.25,146.88c-3.9,1.9-8.3,3.55-13.14,3.69c-5.59,0.16-8.7-2.28-9.88-7.76c-0.1-0.49-0.2-0.97-0.34-1.68
		c-1.17,1.36-2.21,2.63-3.31,3.84c-4.36,4.77-9.86,6.34-16.09,5.43c-6.77-0.99-11.07-6.21-10.86-14.25
		c0.18-6.79,1.25-13.57,2.09-20.33c0.82-6.52,1.9-13.01,2.76-19.53c0.19-1.44,0.67-2.32,2.11-2.63c3.81-0.84,7.57-2.12,11.42-2.47
		c6.51-0.58,9.85,3.23,8.91,9.7c-1.15,7.9-2.48,15.78-3.68,23.68c-0.24,1.56-0.45,3.17-0.31,4.72c0.1,1,0.68,2.52,1.4,2.77
		c0.98,0.34,2.6,0.04,3.39-0.64c1.06-0.91,1.98-2.36,2.28-3.73c1.46-6.73,2.76-13.51,3.99-20.29c0.67-3.68,0.98-7.43,1.71-11.1
		c0.2-0.98,1.19-2.29,2.08-2.56c3.65-1.07,7.37-2.2,11.13-2.55c6.51-0.61,9.94,3.19,9.04,9.61c-1.32,9.39-2.8,18.76-4.17,28.15
		c-0.54,3.7-1.13,7.41-1.35,11.14C442.3,142.16,442.91,144.28,443.25,146.88z M442.26,146.22c-1.66-4.75-0.68-9.36,0-13.95
		c1.55-10.54,3.2-21.06,4.68-31.61c0.8-5.74-2.04-8.99-7.76-8.47c-3.76,0.34-7.47,1.52-11.14,2.51c-0.62,0.17-1.28,1.26-1.41,2.02
		c-0.64,3.6-1.01,7.25-1.64,10.86c-1.13,6.47-2.25,12.94-3.64,19.36c-0.39,1.78-1.33,3.8-2.68,4.92c-1.18,0.98-3.37,1.32-4.94,1.01
		c-0.83-0.16-1.59-2.27-1.78-3.58c-0.23-1.61,0.07-3.32,0.32-4.96c1.2-7.9,2.52-15.78,3.68-23.68c0.83-5.68-2.02-8.97-7.76-8.46
		c-3.77,0.34-7.48,1.49-11.15,2.48c-0.66,0.18-1.37,1.34-1.49,2.14c-1.21,7.73-2.4,15.46-3.4,23.22
		c-0.7,5.44-1.46,10.91-1.51,16.38c-0.06,7.14,3.55,11.78,9.48,12.89c6.36,1.18,11.91-0.49,16.21-5.49
		c1.59-1.85,2.96-3.9,4.75-6.28c0,1.69-0.08,2.92,0.01,4.13c0.32,4.25,2.84,7.41,6.44,7.82
		C432.74,150.06,437.51,148.47,442.26,146.22z"/>
	<path d="M163.25,695.94c-1.14,4.64-2.27,9.28-3.41,13.91c-1,4.04-1.91,8.1-3.05,12.09c-0.46,1.61-0.11,2.34,1.36,3.1
		c7.52,3.91,14.99,7.95,22.47,11.95c0.42,0.23,0.82,0.5,1.75,1.08c-3.95,0.31-7.33,0.6-10.71,0.84c-5.57,0.39-11.13,0.81-16.7,1.08
		c-1.68,0.08-2.23,0.7-2.5,2.32c-1.47,8.78-3.07,17.53-5.13,26.49c-3.62-8.89-7.24-17.79-10.93-26.86
		c-9.6,1.34-19.13,2.68-28.67,4.01c-0.1-0.13-0.19-0.26-0.29-0.39c7.36-6.2,14.72-12.4,22.24-18.73
		c-4.23-8.71-8.43-17.35-12.91-26.58c1.23,0.65,1.93,0.98,2.58,1.39c6.99,4.36,14.01,8.68,20.94,13.13
		c1.33,0.85,2.05,0.71,3.15-0.36c5.94-5.83,11.97-11.58,17.97-17.35c0.46-0.45,0.95-0.87,1.43-1.3
		C162.96,695.8,163.11,695.87,163.25,695.94z M119.84,703.13c-0.13,0.09-0.26,0.18-0.4,0.27c0.4,0.88,0.77,1.78,1.19,2.65
		c3.13,6.43,6.22,12.89,9.44,19.27c0.7,1.39,0.53,2.14-0.68,3.09c-2.82,2.21-5.51,4.58-8.25,6.88c-3.48,2.93-6.97,5.86-10.83,9.11
		c0.83,0,1.13,0.04,1.42-0.01c7.58-1.08,15.17-2.11,22.74-3.28c1.86-0.29,2.81,0.04,3.54,1.94c2.54,6.68,5.3,13.28,7.98,19.91
		c0.31,0.77,0.7,1.52,1.31,2.8c1.65-9.27,3.18-17.85,4.72-26.5c8.92-0.64,17.63-1.26,26.34-1.89c-6.94-4.16-13.88-7.94-20.92-11.52
		c-1.83-0.93-2.26-1.85-1.74-3.84c2.04-7.71,3.89-15.46,5.99-23.88c-6.83,6.58-13.16,12.67-19.59,18.87
		C134.66,712.37,127.25,707.75,119.84,703.13z"/>
	<path d="M81.48,234.63c0-6.41-0.43-12.43,0.16-18.35c0.38-3.85,1.82-7.77,3.58-11.25c2.05-4.06,6.04-5.3,10.47-4.17
		c8.48,2.15,13.16,8.26,16.31,15.88c2.96,7.17,4.05,14.75,4.37,22.42c0.64,15.16-1.18,30.06-5.48,44.63c-1.11,3.76-1.18,3.9-5,3.22
		c-19.06-3.42-36.91-9.9-52.68-21.38c-3.12-2.27-5.94-5.12-8.41-8.1c-4.57-5.5-5.76-11.64-2.35-18.33
		c3.51-6.89,8.73-11.28,16.69-11.67c7.24-0.36,13.71,2.19,19.88,5.66C79.74,233.6,80.44,234.02,81.48,234.63z M108.81,286.64
		c0.45-1.22,0.85-2.12,1.12-3.07c4.18-14.34,6.04-28.98,5.46-43.9c-0.3-7.76-1.38-15.42-4.37-22.68
		c-3.01-7.3-7.51-13.16-15.65-15.18c-3.91-0.97-7.13,0.22-9.33,3.56c-0.9,1.37-1.59,2.93-2.1,4.49
		c-2.27,6.94-2.18,14.09-1.69,21.26c0.12,1.75,0.31,3.5,0.5,5.59c-2.07-1.27-3.64-2.37-5.32-3.25c-6.74-3.53-13.71-6.11-21.51-4.47
		c-9.31,1.96-16.45,13.11-13.78,21.66c1.76,5.64,5.77,9.73,10.31,13.17C69.08,276.42,88.22,282.92,108.81,286.64z"/>
	<path d="M192,285.3c8.19,4.37,16.18,8.62,24.16,12.88c-0.01,0.17-0.01,0.35-0.02,0.52c-2.9,0.24-5.79,0.52-8.69,0.72
		c-5.56,0.39-11.13,0.79-16.7,1.08c-1.51,0.08-2.14,0.56-2.4,2.13c-1.41,8.43-2.95,16.83-4.59,26.01c-0.76-1.76-1.25-2.87-1.7-3.99
		c-2.68-6.62-5.46-13.21-7.97-19.9c-0.76-2.02-1.7-2.39-3.66-2.09c-7.56,1.18-15.15,2.21-22.73,3.28
		c-0.61,0.09-1.25,0.01-2.43,0.01c4.82-4.05,9.25-7.78,13.68-11.5c2.04-1.71,4-3.53,6.14-5.11c1.38-1.02,1.36-1.86,0.64-3.3
		c-3.78-7.58-7.44-15.22-10.83-23.21c7.77,4.84,15.54,9.68,23.44,14.59c6.67-6.41,13.25-12.74,19.83-19.07
		c0.15,0.08,0.3,0.16,0.45,0.24C196.42,267.42,194.24,276.26,192,285.3z M196.96,261.07c-0.69,0.53-0.96,0.7-1.19,0.92
		c-5.21,5.03-10.48,10.01-15.58,15.15c-1.35,1.36-2.29,1.4-3.74,0.34c-1.74-1.27-3.64-2.33-5.48-3.47
		c-4.55-2.83-9.09-5.66-14.26-8.88c0.75,1.64,1.17,2.6,1.63,3.54c2.81,5.76,5.57,11.54,8.47,17.24c0.86,1.68,0.8,2.69-0.77,3.95
		c-5.13,4.11-10.12,8.41-15.15,12.64c-0.65,0.55-1.28,1.14-1.91,1.71c6.77-0.46,13.27-1.39,19.78-2.25
		c4.94-0.65,4.94-0.62,6.81,3.97c2.49,6.14,4.99,12.27,7.68,18.89c0.3-1.16,0.51-1.76,0.62-2.38c1.21-6.8,2.49-13.58,3.54-20.41
		c0.3-1.94,1.09-2.44,2.88-2.52c5.82-0.29,11.64-0.71,17.45-1.11c1.64-0.11,3.28-0.32,4.92-0.48c0-0.16-0.01-0.32-0.01-0.47
		c-7.24-3.86-14.48-7.73-21.79-11.64C192.88,277.59,194.86,269.57,196.96,261.07z"/>
	<path d="M172.7,69.35c3.55-0.21,6.94-0.57,10.34-0.57c9.23-0.01,18.46-0.1,27.67,0.34c3.12,0.15,6.36,1.44,9.2,2.88
		c8.26,4.2,11.17,12.37,8.3,22.2c-1.5,5.14-2.71,6.84-9.59,13.52c6.64,4.17,9.41,10.29,8.75,17.95
		c-0.76,8.77-5.46,14.98-12.95,19.25c-5.67,3.23-11.87,5.16-18.29,5.31c-11.45,0.26-22.93-0.15-34.72-0.28
		C165.22,122.69,168.94,96.13,172.7,69.35z M217.18,107.96c2.56-2.85,5.68-5.49,7.75-8.79c7.82-12.53,2.46-25.47-11.86-28.58
		c-4.75-1.03-9.74-1.27-14.62-1.26c-8.23,0.02-16.46,0.52-24.85,0.82c-3.68,26.25-7.32,52.23-11.06,78.87
		c11.45,0.11,22.52,0.61,33.56,0.2c7.88-0.29,15.28-2.9,21.77-7.78C227.79,133.97,231.23,115.31,217.18,107.96z"/>
	<path d="M478.54,99.59c0.54-0.59,0.94-0.97,1.27-1.4c4.45-5.73,10.27-8.21,17.37-6.65c7,1.55,11.13,6.32,12.93,13.13
		c3.89,14.66-4.07,33.83-17.17,41.38c-5.7,3.28-11.9,4.66-18.43,4.5c-1.75-0.04-2.42,0.38-2.64,2.26
		c-0.86,7.27-1.96,14.5-2.99,21.89c-7.63,0-15.17,0-22.95,0c0.77-5.58,1.51-11.01,2.27-16.43c2.77-19.69,5.68-39.37,8.21-59.09
		c0.5-3.92,1.89-6,5.73-6.57c2.46-0.37,4.87-1.15,7.33-1.42c5.01-0.56,7.69,1.57,8.59,6.5C478.18,98.24,478.34,98.79,478.54,99.59z
		 M468.03,173.72c1.01-7.37,2.06-14.53,2.92-21.71c0.23-1.87,0.79-2.56,2.75-2.47c6.27,0.29,12.29-0.87,17.84-3.85
		c13.43-7.2,21.6-26.47,17.47-41.25c-1.8-6.45-5.91-10.81-12.61-12.06c-6.49-1.21-11.75,1.21-15.76,6.38
		c-0.99,1.28-1.87,2.66-3.06,4.37c-0.21-2.22-0.27-4.01-0.58-5.76c-0.65-3.68-2.94-5.52-6.66-5.26c-2.15,0.15-4.26,0.69-6.4,1.01
		c-4.25,0.63-7.02,2.53-6.56,7.37c0.07,0.72-0.24,1.47-0.35,2.21c-2.61,18.53-5.21,37.07-7.81,55.6
		c-0.71,5.09-1.42,10.17-2.15,15.41C454.12,173.72,460.92,173.72,468.03,173.72z"/>
	<path d="M231.76,149.96c3.81-27.21,7.53-53.71,11.29-80.57c2.46-0.19,4.91-0.52,7.36-0.55c8.23-0.08,16.59-0.98,24.67,0.12
		c20.18,2.74,30.24,15.55,29.28,35.92c-0.53,11.42-3.48,22-11.12,30.86c-7.89,9.15-18.2,13.84-29.97,14.49
		C252.94,150.81,242.53,150.1,231.76,149.96z M232.91,149.01c10.31,0.14,20.26,0.96,30.1,0.24c15.92-1.18,28.4-8.58,35.46-23.45
		c4.92-10.38,6.23-21.4,3.93-32.66c-1.98-9.7-7.63-16.82-16.9-20.46c-4.19-1.65-8.8-2.89-13.27-3.07
		c-8.55-0.34-17.13,0.28-25.71,0.36c-2.18,0.02-2.75,0.94-3.02,2.92c-2.56,18.72-5.21,37.42-7.83,56.13
		C234.78,135.44,233.9,141.85,232.91,149.01z"/>
	<path d="M703.07,147.4c-3.24,0.89-7.15,2.41-11.2,2.99c-6.77,0.97-9.33-0.95-12.2-8.71c-0.29,0.85-0.34,1.3-0.58,1.62
		c-4.46,6.03-10.5,8.5-17.74,6.85c-7.54-1.71-12.1-7.03-13.02-14.46c-1.73-14.1,1.6-26.85,12.63-36.65
		c6.17-5.49,13.73-7.87,21.84-7.88c8.32-0.01,16.64,0.59,24.96,0.94c0.39,0.02,0.77,0.2,1.43,0.37c-0.8,5.56-1.59,11.06-2.4,16.55
		c-1.39,9.38-2.94,18.74-4.12,28.15C702.31,140.21,702.89,143.35,703.07,147.4z M680.92,138.96c0.12,1.29,0.17,2.16,0.29,3.03
		c0.71,5.24,3.71,8.03,8.98,7.47c4.14-0.44,8.19-1.72,11.41-2.44c0-3.87-0.32-6.86,0.06-9.76c1.24-9.4,2.74-18.77,4.13-28.16
		c0.78-5.25,1.53-10.5,2.34-16.11c-8-0.31-15.72-0.7-23.44-0.88c-2.64-0.06-5.34,0.19-7.94,0.7c-19.36,3.8-32.57,25.52-27.08,44.56
		c1.82,6.31,5.88,10.74,12.48,11.95c6.62,1.21,12.12-1.12,16.15-6.63C679.11,141.59,679.88,140.44,680.92,138.96z"/>
	<path d="M512.5,149.36c1.6-11.72,3.16-23.26,4.75-34.79c0.86-6.26,1.8-12.52,2.57-18.79c0.18-1.46,0.69-2.29,2.1-2.63
		c2.1-0.52,4.15-1.27,6.27-1.62c7.67-1.26,10.22,0.25,13.01,7.74c2.33-3.48,4.56-6.9,8.9-7.83c4.12-0.88,7.89,0.13,11.88,2
		c-2.92,6.55-5.81,13.01-8.74,19.58c-0.76-0.41-1.32-0.74-1.91-1.02c-4.17-1.97-7.97-0.86-9.25,3.54
		c-1.92,6.59-3.22,13.38-4.56,20.13c-0.88,4.48-1.36,9.04-2.04,13.69C527.87,149.36,520.33,149.36,512.5,149.36z M513.64,148.41
		c7.1,0,13.91,0,20.95,0c0.65-4.38,1.12-8.76,1.97-13.06c1.32-6.67,2.54-13.4,4.49-19.9c1.52-5.1,5.34-6.42,10.32-4.55
		c0.45,0.17,0.89,0.35,1.46,0.58c1.34-2.99,2.63-5.87,3.91-8.74c1.3-2.92,2.6-5.84,4.19-9.42c-3.46-0.43-6.42-1.25-9.31-1.07
		c-5.82,0.35-8.07,5.34-10.98,9.54c-0.41-0.82-0.53-1.5-0.63-2.18c-0.74-5.25-4.11-7.95-9.35-7.45c-1.16,0.11-2.32,0.28-3.45,0.53
		c-5.98,1.29-6.08,1.29-6.92,7.23C518.03,115.98,515.87,132.06,513.64,148.41z"/>
	<path d="M582.25,146.91c-4.42,2.17-9.38,3.9-14.87,3.67c-5.59-0.24-9.1-3.39-8.81-8.96c0.33-6.29,1.35-12.55,2.17-18.82
		c1.21-9.32,2.57-18.62,3.73-27.94c0.25-2.01,0.8-2.84,3.03-2.77c5.91,0.17,11.82,0.06,17.73,0.06c0.8,0,1.6,0,2.66,0
		c-1.08,7.77-2.12,15.16-3.13,22.56c-1.13,8.24-2.34,16.47-3.26,24.73C581.24,141.72,581.94,144.12,582.25,146.91z M586.72,93.15
		c-6.49,0-12.55,0.08-18.61-0.05c-2-0.04-2.46,0.69-2.7,2.53c-1.34,10.47-2.87,20.92-4.25,31.39c-0.65,4.94-1.39,9.89-1.59,14.86
		c-0.17,4.41,2.52,7.17,6.67,7.6c5.29,0.54,10.19-0.84,14.34-2.94c0-3.43-0.31-6.51,0.06-9.5c1.09-8.83,2.46-17.62,3.7-26.43
		C585.13,104.94,585.88,99.27,586.72,93.15z"/>
	<path d="M715.37,118.84c0.76-6.06,1.48-11.99,2.24-17.91c1.27-9.89,2.55-19.79,3.91-29.67c0.09-0.68,0.86-1.81,1.33-1.82
		c7.3-0.12,14.61-0.08,22.2-0.08c-2.4,16.62-4.76,32.96-7.14,49.48C730.51,118.84,723.15,118.84,715.37,118.84z M737.01,118.04
		c2.3-15.94,4.57-31.64,6.86-47.5c-7.2,0-14.21,0-21.3,0c-2.04,15.88-4.06,31.58-6.11,47.5c0.89,0,1.46,0,2.04,0
		C724.56,118.04,730.63,118.04,737.01,118.04z"/>
	<path d="M723.08,150.58c-7.72,0.02-12.14-4.11-12.16-11.37c-0.03-8.85,5.3-14.28,14.01-14.29c7.63-0.01,12.21,4.27,12.21,11.41
		C737.15,145.17,731.83,150.56,723.08,150.58z M723.03,149.58c8.26-0.02,13.14-4.95,13.12-13.27c-0.01-6.58-4.19-10.42-11.29-10.39
		c-8.1,0.03-12.93,4.96-12.93,13.18C711.92,145.87,715.87,149.6,723.03,149.58z"/>
	<path d="M578.21,86.14c-7.2,0.05-11.53-3.77-11.56-10.21c-0.03-7.92,5.21-13.35,12.98-13.42c7.14-0.07,11.42,3.77,11.44,10.28
		C591.11,80.94,586.17,86.08,578.21,86.14z M578.07,85.14c7.49,0,12.02-4.63,12.01-12.27c0-5.94-3.7-9.35-10.17-9.36
		c-7.43-0.02-12.32,4.94-12.26,12.45C567.7,81.74,571.55,85.14,578.07,85.14z"/>
	<path class="st0" fill="#ffffff" stroke="#000000" d="M505.43,543.12c-0.38,2.01-0.86,3.69-1,5.39c-0.64,7.4,3.84,12.56,11.28,12.92c1.97,0.09,4.04-0.03,5.94-0.53
		c2.32-0.6,4.25-0.14,6.15,1.07c3.44,2.18,6.78,4.54,10.35,6.47c4.04,2.19,8.45,2.4,12.86,1.13c5.77-1.66,9.35-6.69,8.16-12.55
		c-1.5-7.4-3.61-14.67-5.59-21.96c-2.2-8.1-4.65-16.13-6.74-24.26c-0.51-1.98-0.08-4.21-0.08-6.88c2.18,0.84,3.6,1.43,5.05,1.93
		c3.22,1.11,6.48,2.12,9.69,3.26c7.77,2.76,15.06,1.54,22.06-2.48c0.35-0.2,0.72-0.35,1.66-0.81c0,5.23-0.09,10.08,0.02,14.93
		c0.17,7.33,0.5,14.65,0.74,21.97c0.24,7.2-2.14,13.64-6.15,19.42c-8.92,12.85-18.02,25.58-27.09,38.33
		c-4.92,6.92-9.86,13.83-14.9,20.66c-4.04,5.47-6.78,11.37-7.31,18.27c-0.41,5.28-3.27,9.25-7.36,12.54
		c-7.87,6.33-16.81,7.07-26.26,5.34c-16.43-3.02-31.77-9.16-46.52-16.79c-2.94-1.52-5.63-3.95-7.78-6.51
		c-14.38-17.1-26.57-35.7-35.31-56.26c-3.58-8.41-5.75-17.57-7.4-26.6c-2.08-11.36-3.18-22.91-4.31-34.41
		c-0.88-8.98,0.59-17.81,3.66-26.28c4.5-12.43,8.99-24.87,13.96-37.11c7.49-18.45,21.09-30.65,39.52-37.97
		c14.95-5.93,29.33-13.06,42.56-22.34c6-4.21,11.16-8.9,14.08-16.05c2.22-5.45,7.26-8.81,12.82-10.42
		c21.22-6.11,41.04-3.23,58.76,10.41c7.02,5.4,10.11,13.25,11.99,21.62c3.24,14.41,3.79,29.06,3.49,43.73
		c-0.23,11.49-1,22.96-1.55,34.44c-0.03,0.72-0.21,1.44-0.31,2.04c-9.34-5.4-18.96-5.97-28.82-2.26c-1.86,0.7-3.68,2.11-4.91,3.67
		c-0.88,1.1-1.43,3.39-0.85,4.45c0.57,1.03,2.81,1.73,4.23,1.59c3.12-0.31,6.31-0.89,9.24-1.98c6.9-2.55,13.62-1.05,20.59,0.24
		c0.31,6.54-2.32,11.97-5.67,16.99c-2.47-2.05-4.71-4.26-7.27-5.98c-9.84-6.62-20.11-4.36-30.04,2.31
		c-4.67,3.14-6.29,8.05-5.18,13.65c0.53,2.69,1.09,5.39,1.87,8.01c2.9,9.81,5.94,19.57,8.84,29.38c0.68,2.3,1.13,4.7,1.46,7.08
		c1.16,8.41-3.92,14.01-12.45,13.23c-3.28-0.3-6.52-1.72-9.62-3.02c-1.95-0.82-3.65-2.3-5.38-3.6c-3.22-2.41-6.51-3.39-10.7-2.4
		c-6.33,1.49-11.7-1.03-13.75-5.83c-1.38-3.23-1.19-6.6,0.17-9.73c1.08-2.48,2.69-4.74,4.14-7.05c0.53-0.85,1.27-1.56,1.91-2.34
		c-0.18-0.17-0.35-0.34-0.53-0.51c-0.44,0.36-0.96,0.65-1.31,1.08c-12.25,15.32-28.09,25.23-46.64,31.14
		c-1.69,0.54-3.37,1.76-4.58,3.1c-8.56,9.44-11.24,20.88-10.92,33.28c0.01,0.19,0.19,0.38,0.73,0.6c0.09-1.07,0.26-2.15,0.26-3.22
		c-0.03-11.51,3.2-21.84,11.05-30.47c0.85-0.93,2.02-1.75,3.2-2.15c12.93-4.41,25.26-9.9,35.57-19.15
		C501.26,547.07,503.23,545.18,505.43,543.12z M457.27,465.06c0.11,0.29,0.22,0.58,0.33,0.87c4.99-0.74,9.96-1.61,14.97-2.18
		c6.92-0.8,13.87-2.18,20.78,0.24c9.63,3.37,18.8,7.6,26.97,13.82c2.11,1.61,4.3,3.15,6.62,4.44c2.47,1.38,4.2,0.95,5.5-0.93
		c1.28-1.85,0.96-4.9-1.01-6.25c-7.39-5.08-14.62-10.48-22.4-14.91c-12.66-7.21-25.98-7.7-39.32-1.63
		C465.45,460.45,461.41,462.87,457.27,465.06z M503.85,502.26c2.65-0.24,5.31-0.41,7.94-0.78c0.57-0.08,1.45-0.94,1.46-1.44
		c0.03-5.71-1.45-10.98-5.88-14.84c-6.47-5.64-14.04-8.11-22.65-6.93c-9.69,1.33-18.32,5.31-26.37,10.68
		c-0.8,0.54-1.3,1.53-1.95,2.31c0.91,0.42,1.78,1.08,2.73,1.22c9.48,1.37,18.91,2.97,27.88,6.53
		C492.43,501.15,498.02,502.2,503.85,502.26z M554.58,578.16c-5.71-0.28-11.03,0.14-16.04,2.03c-3.26,1.23-5.91,1-9.15-0.33
		c-11.64-4.79-23.98-6.78-36.45-7.84c-6.88-0.59-13.8-0.63-20.7-1.08c-3.01-0.19-6-0.78-9.03-1.19c1.65,4.08,3.28,7.86,4.72,11.71
		c4.89,13.11,13.92,22.06,26.96,27.02c7.84,2.98,16.02,4.28,24.34,5.12c11.72,1.18,20.84-3.33,27.13-12.86
		c4.23-6.4,7.35-13.54,10.86-20.41c0.66-1.3,1.02-2.86,1.12-4.33c0.17-2.77,0.05-5.57,0.05-8.35c-0.24-0.03-0.48-0.05-0.72-0.08
		c0.14,5.82-0.06,11.56-3.68,17.12C554.21,582.25,554.38,580.38,554.58,578.16z M576.6,518.79c-7.02,1.61-13.77,0.31-20.43-1.96
		C562.71,520.27,569.49,521.32,576.6,518.79z M469.9,502.12c3.88,3.02,16.51,6.8,19.29,6C482.95,506.18,476.6,504.2,469.9,502.12z"
		/>
	<path class="st0" fill="#ffffff" stroke="#000000" d="M475.91,688.39c-6.04-0.88-11.53-1.88-17.05-2.44c-17.95-1.8-35.58,0.12-52.88,5.06
		c-23.33,6.66-44.3,17.67-62.13,34.28c-10.86,10.11-19.52,21.79-24.88,35.76c-0.2,0.52-0.43,1.03-1.12,1.41
		c0.81-3.95,1.56-7.92,2.43-11.86c5.6-25.34,11.48-50.62,16.79-76.02c5.81-27.8,8.84-55.9,7.53-84.36c-0.01-0.25,0-0.5,0-1.24
		c1.2,4.71,2.16,8.98,3.4,13.17c2.62,8.84,6.14,17.25,12.34,24.28c3.55,4.03,7.84,6.91,13.09,8.28c4.37,1.14,7.14,0.18,9.67-3.62
		c3.08-4.62,4.21-9.92,4.92-15.3c2.82-21.43-1.34-41.74-10.02-61.29c-3.66-8.23-7.81-16.18-13.31-23.37
		c-0.48-0.63-0.59-1.65-0.62-2.5c-0.03-0.9,0.24-1.81,0.38-2.71c1.13-7.39-1.74-12.84-8.14-16.48c-4.26-2.42-8.66-4.61-12.91-7.07
		c-5.98-3.46-8.98-6.56-3.32-15.35c1.6-2.48,3.82-4.59,5.91-6.73c3.2-3.26,3.75-6.2,1.48-10.09c-3.54-6.06-7.42-11.89-12.94-16.37
		c-1.59-1.3-3.38-2.53-5.29-3.21c-1.9-0.68-2.68-1.63-3.06-3.59c-3.16-16.28-5.96-32.58-6.37-49.22
		c-0.46-18.8,3.39-36.79,8.69-54.71c4.05-13.72,12.77-24.26,20.91-35.39c2.53-3.46,5.55-3.33,9.04-3.51
		c-1.89,6.3-3.84,12.54-5.63,18.82c-7.26,25.53-11.6,51.46-10.64,78.1c0.99,27.65,7.62,54.12,17.01,79.99
		c7.58,20.89,16.6,41.17,26.21,61.19c0.26,0.55,0.6,1.36,0.39,1.79c-3.75,7.61-1.87,15.41-0.46,23.02
		c5.97,32.24,21.39,59.77,42.93,84.07c13.26,14.96,28.68,27.28,46.5,36.49C475.03,687.83,475.28,688.01,475.91,688.39z"/>
	<path class="st0" fill="#ffffff" stroke="#000000" d="M349.36,260.08c1.98,2.77,3.84,5.38,5.84,8.18c-4.52,7.45-6.76,15.92-8.01,24.72
		c-0.61,4.34-0.21,8.2,4.3,10.73c-0.91,1.16-1.78,2.22-2.6,3.31c-4.96,6.68-10.42,13.07-14.69,20.17
		c-3.16,5.26-4.96,11.38-6.99,17.25c-1.71,4.94-2.55,10.19-4.37,15.08c-1.7,4.57-4.1,8.89-6.33,13.25
		c-6.75,13.18-13.59,26.31-20.3,39.51c-0.8,1.56-1.85,2.29-3.44,2.84c-19.99,6.95-38.97,15.9-55.8,28.95
		c-8.42,6.53-11.6,10.25-20.99,23.94c1.03-4.88,1.99-9.77,3.09-14.63c7.06-31.08,15.01-61.91,25.39-92.07
		c3.79-11.01,7.55-22.06,13.47-32.16c7.73-13.2,18.48-23.74,30.33-33.2C306.99,281.02,327.63,269.32,349.36,260.08z"/>
	<path class="st0" fill="#ffffff" stroke="#000000" d="M318.43,382.6c0.54,11.16,0.61,22.37,1.76,33.47c1.15,11.14,3.38,22.16,5.13,33.24
		c-8.56,1.89-14.12,9.13-14.84,19.25c-0.56,7.87,1.01,15.42,3.34,22.84c4.19,13.32,8.37,26.64,12.76,39.9
		c1.76,5.31,4.21,10.39,8.76,13.99c1.41,1.11,3.09,2.28,4.78,2.54c2.79,0.43,2.96,2.04,2.95,4.2c-0.03,6.58-0.03,13.16,0.03,19.74
		c0.13,14.65,0.65,29.31,0.35,43.96c-0.42,20.53-3.7,40.77-7.73,60.88c-1.49,7.42-3.11,14.82-4.79,22.2
		c-0.25,1.12-0.85,2.46-1.73,3.1c-11.12,8.16-19.32,18.7-25.56,30.88c-0.26,0.51-0.53,1.02-1.17,2.24
		c-0.71-4.14-1.41-7.57-1.86-11.03c-2.71-20.88-5.78-41.73-7.93-62.68c-2.99-29.2-3.87-58.5-2.79-87.86
		c0.99-26.83,3.6-53.49,7.44-80.05c5.29-36.59,12.83-72.74,20.75-108.83c0.15-0.7,0.37-1.38,0.56-2.07
		C318.58,382.54,318.51,382.57,318.43,382.6z"/>
	<path class="st0" fill="#ffffff" stroke="#000000" d="M448.7,416.52c0.86-1.64-0.63-2.09-1.49-2.73c-8.14-6.12-15.78-12.78-22.5-20.46
		c-12.98-14.84-20.44-32.37-25.17-51.25c-4.52-18.05-6.88-36.46-8.63-54.95c-0.07-0.77,0.68-1.99,1.4-2.41
		c5.43-3.24,10.99-6.26,16.42-9.52c1.67-1,2.96-2.64,4.59-3.72c1.69-1.12,3.71-1.75,5.37-2.9c2.18-1.51,3.7-0.15,5.41,0.79
		c14.38,7.96,28.21,16.68,40.29,27.96c13.39,12.51,22.55,27.63,28.08,45.03c4.51,14.19,6.79,28.81,8.35,43.55
		c0.08,0.79-0.45,1.95-1.08,2.45c-8.15,6.53-17.17,11.69-26.71,16.77c-18.45-44.57-41.2-86.65-68.9-126.01
		c26.7,39.83,49.57,81.73,67.96,126.44c-3.06,1.44-6.16,2.95-9.32,4.36c-4.25,1.9-8.53,3.72-12.79,5.61
		c-0.47,0.21-0.85,0.63-1.28,0.96L448.7,416.52z"/>
	<path class="st0" fill="#ffffff" stroke="#000000" d="M305.88,396.44c-2.7,8.55-5.53,17.05-8.07,25.65c-8.83,29.88-15.47,60.27-20.27,91.03
		c-3.22,20.63-6.12,41.34-8.34,62.1c-4.1,38.39-5.76,76.91-4.08,115.52c0.91,20.9,2.84,41.7,6.61,62.3
		c0.14,0.78-0.08,1.88-0.57,2.48c-12.71,15.91-21.3,34.08-29.16,52.66c-4.02,9.5-7.97,19.01-11.97,28.52
		c-0.35,0.82-0.75,1.62-1.58,2.41c-0.46-4.4-0.98-8.79-1.37-13.2c-2.04-23-3.12-46.04-2.93-69.13
		c0.36-43.37,5.16-86.23,15.07-128.46c4.63-19.73,7.56-39.72,9.78-59.83c1.64-14.9,2.98-29.82,4.49-44.73
		c0.1-0.97,0.45-1.94,0.81-2.85c13.97-35.16,27.89-70.34,41.99-105.44c2.65-6.6,6.06-12.91,9.11-19.35
		C305.56,396.22,305.72,396.33,305.88,396.44z"/>
	<path class="st0" fill="#ffffff" stroke="#000000" d="M320.95,367.31c-2.04,9.25-4.1,18.49-6.13,27.74c-7.64,34.8-14.54,69.72-19.43,105.03
		c-5.1,36.87-7.62,73.89-6.73,111.11c0.63,26.58,2.69,53.07,6.24,79.42c1.99,14.76,4.35,29.47,6.46,44.22
		c0.18,1.24,0.02,2.69-0.46,3.85c-7.95,18.94-10.59,38.74-9.62,59.12c0.23,4.79,0.7,9.56,0.61,14.55
		c-1.79-3.79-3.71-7.53-5.35-11.38c-7.55-17.72-12-36.3-15.02-55.25c-5.66-35.51-6.71-71.26-5.6-107.13
		c0.82-26.49,2.87-52.88,6-79.2c5.47-46.01,13.56-91.52,26.61-136.03c3.69-12.59,8.06-25.01,12.68-37.3
		c2.46-6.55,6.13-12.66,9.25-18.96C320.63,367.17,320.79,367.24,320.95,367.31z"/>
	<path class="st0" fill="#ffffff" stroke="#000000" d="M374.12,295.06c-0.48,6.87-0.95,13.09-1.34,19.31c-1.76,28.34-0.47,56.4,7.71,83.84
		c5.32,17.85,12.92,34.73,21.74,51.08c2,3.72,4.26,7.3,6.28,11.01c0.3,0.54,0.03,1.52-0.21,2.21c-3.49,9.78-7.11,19.51-10.52,29.33
		c-2.87,8.28-3.71,16.87-3.26,25.6c0.07,1.27-0.19,2.63-0.61,3.84c-2.06,5.97-4.22,11.91-6.35,17.85
		c-0.29,0.82-0.62,1.63-1.17,3.08c-2.73-5.87-5.19-11.12-7.6-16.39c-10-21.95-19.21-44.2-25.96-67.41
		c-7.53-25.88-11.18-52.19-9.3-79.17c1.53-21.86,6.22-43.09,12.57-64c1.06-3.5,2.21-6.98,3.36-10.45c0.23-0.68,0.52-1.55,1.06-1.87
		C364.86,300.33,369.25,297.85,374.12,295.06z"/>
	<path class="st0" fill="#ffffff" stroke="#000000" d="M595.45,405.66c-0.61-2.9-1.15-5.4-1.66-7.9c-3.36-16.36-14.04-25.9-29.21-31.17
		c-3.05-1.06-6.21-1.91-9.39-2.5c-1.73-0.32-2.3-1.13-2.7-2.65c-3.52-13.39-8.17-26.36-14.85-38.54
		c-10.59-19.32-26.17-33.37-45.64-43.34c-16.44-8.42-33.92-14.04-51.61-19.07c-0.77-0.22-1.54-0.46-2.1-0.63
		c1.05-1.59,2-3.2,3.14-4.66c0.43-0.54,1.3-0.95,2.01-1.03c13.7-1.47,27.42-1.87,41.15-0.54c16.01,1.55,31.46,5.28,46.05,12.26
		c24.63,11.77,42.54,30.25,54.28,54.73c11.26,23.49,15.62,48.31,13.46,74.24C598.1,398.42,598.46,402.27,595.45,405.66z"/>
	<path class="st0" fill="#ffffff" stroke="#000000" d="M232.78,570.78c-2.6-6.73-5.33-13.42-7.76-20.21c-5.05-14.12-9.2-28.49-11.28-43.38
		c-1.18-8.44-1.67-16.9-0.56-25.4c1.47-11.3,7.26-20.37,14.94-28.35c11.01-11.44,24.35-19.62,38.55-26.35
		c8.39-3.98,17.15-7.2,25.75-10.75c0.74-0.31,1.52-0.5,2.77-0.91c-20.72,52.05-41.26,103.68-61.81,155.3
		C233.18,570.74,232.98,570.76,232.78,570.78z"/>
	<path class="st0" fill="#ffffff" stroke="#000000" d="M422.42,266.89c4.35-2.12,8.57-4.22,12.84-6.23c0.53-0.25,1.33-0.18,1.93-0.01
		c17.46,4.9,34.69,10.4,51.16,18.18c28.45,13.44,47.24,35.33,57.54,64.79c2.24,6.42,4.18,12.94,6.36,19.74
		c-2.61-0.24-4.74-0.47-6.87-0.61c-8.39-0.56-16.68-0.01-24.54,3.22c-6.2,2.55-11.07,6.54-13.67,13.06
		c-1.03,2.59-2.95,4.84-4.46,7.24c-0.25-0.11-0.5-0.22-0.76-0.33c-0.65-4.84-1.23-9.69-1.96-14.51
		c-2.49-16.62-6.41-32.82-14.25-47.85c-9.22-17.68-23.16-30.96-39.52-41.86C438.55,276.61,430.57,271.94,422.42,266.89z"/>
	<path class="st0" fill="#ffffff" stroke="#000000" d="M448.71,416.51c-5.01,2.71-10.3,5-14.96,8.22c-10.99,7.61-17.42,18.79-22.65,30.76
		c-0.53,1.22-1.03,2.45-1.55,3.67c-0.03,0.07-0.1,0.13-0.43,0.51c-1.01-1.77-1.96-3.42-2.89-5.09
		c-10.26-18.44-19.21-37.44-25.12-57.76c-6.77-23.27-8.77-47.08-7.81-71.18c0.38-9.65,1.18-19.28,1.71-28.93
		c0.09-1.7,0.74-2.69,2.23-3.5c4.07-2.19,8.06-4.54,12.43-7.02c0.47,4.24,0.88,8.1,1.33,11.95c2.13,18.12,4.96,36.09,10.18,53.63
		c7.72,25.97,22.99,46.44,44.74,62.3c0.99,0.72,1.85,1.63,2.77,2.45C448.7,416.52,448.71,416.51,448.71,416.51z"/>
	<path class="st0" fill="#ffffff" stroke="#000000" d="M343.86,547.54c-3.97,0.04-7.62-2-10.49-5.58c-4.04-5.05-6.05-11.05-7.94-17.09
		c-4.09-13.09-8.32-26.14-12.16-39.31c-2.11-7.25-3.07-14.78-0.72-22.16c0.98-3.09,2.68-6.11,4.66-8.7
		c3.57-4.69,8.66-5.32,13.76-2.18c5.08,3.13,8.71,7.69,12.05,12.5c1.28,1.84,2.43,3.78,3.56,5.72c2.02,3.44,1.58,5.79-1.21,8.73
		c-2.34,2.47-4.56,5.06-6.64,7.75c-0.89,1.15-1.43,2.63-1.89,4.04c-1.46,4.41-0.81,7.23,2.97,9.85c3.54,2.45,7.46,4.34,11.21,6.48
		c1.66,0.95,3.33,1.88,4.98,2.85c5.65,3.33,8.32,8.1,7.5,14.78c-0.83,6.78-2.75,13.03-7.86,17.88
		C352.56,546.01,348.85,547.51,343.86,547.54z"/>
	<path class="st0" fill="#ffffff" stroke="#000000" d="M350.09,232.1c0.24,2.82,0.7,5.5,0.64,8.18c-0.15,5.88-0.52,11.76-0.96,17.63c-0.05,0.61-1.07,1.35-1.8,1.66
		c-16.82,7.18-32.78,15.91-47.82,26.31c-14.73,10.19-28.32,21.64-38.88,36.3c-1.35,1.88-2.61,3.83-4.38,5.65
		c0.54-2.93,1.03-5.87,1.62-8.79c2.77-13.59,6.73-26.77,13.71-38.88c8.84-15.33,21.83-26.02,37.49-33.73
		c12.74-6.27,26.21-10.53,39.85-14.29C349.86,232.06,350.19,232.09,350.09,232.1z"/>
	<path class="st0" fill="#ffffff" stroke="#000000" d="M394.57,523.9c0.61,4.6,1.2,9.21,1.84,13.81c4.73,34.03,17.09,65.17,35.59,93.98
		c12.33,19.2,26.71,36.76,42.44,53.25c0.54,0.57,1.04,1.17,1.22,2.23c-4.13-2.41-8.41-4.6-12.37-7.27
		c-38.23-25.72-63.56-60.78-75.36-105.35c-1.9-7.18-2.22-14.78-3.23-22.19c-0.11-0.8,0.07-1.65,0.19-2.47
		c0.07-0.49,0.28-0.96,0.45-1.42c2.92-8.21,5.84-16.43,8.76-24.64C394.25,523.85,394.41,523.87,394.57,523.9z"/>
	<path class="st0" fill="#ffffff" stroke="#000000" d="M349.15,549.14c-1.82,0-3.37,0-4.92,0c7.44-0.74,12.83-4.46,16.53-11.02c7.31,7.64,12.28,16.5,15.65,26.27
		c3.5,10.15,4.54,20.77,5.56,31.37c0.78,8.13,1.21,16.28-0.44,24.38c-0.12,0.57-0.26,1.13-0.44,1.69
		c-2.05,6.55-6.51,7.93-11.9,3.57c-4.67-3.78-7.15-9.08-9.75-14.31c-9.42-18.91-11.32-39.11-10.39-59.81
		C349.08,550.7,349.11,550.12,349.15,549.14z"/>
	<path class="st0" fill="#ffffff" stroke="#000000" d="M390.14,252.99c5.11,0.03,13.05,2.72,19.91,8.44c4.99,4.16,4.67,9.23-0.93,12.45
		c-15.57,8.95-31.18,17.84-46.79,26.72c-1.35,0.77-2.79,1.28-4.15,2.14c-3.91,2.46-10.3-0.83-10.08-5.37
		c0.73-14.5,4.33-28.01,16.21-37.73C369.73,255.19,377.8,253.01,390.14,252.99z"/>
	<path class="st0" fill="#ffffff" stroke="#000000" d="M356.02,266.92c-4-3.43-5.97-7.03-4.71-12.28c1.37-5.7,1.04-11.56,0.04-17.36c-0.65-3.76,0.38-6.01,3.58-7.99
		c8.04-4.98,16.49-8.68,26.21-8.27c8.65,0.36,16.57,3.35,24.23,7.07c2.88,1.4,3.51,4.14,2.31,7.16
		c-2.69,6.75-7.36,12.01-12.61,16.79c-0.68,0.62-2.3,0.4-3.45,0.27c-8.39-0.94-16.42,0.19-24,3.99
		C362.85,258.71,359.26,262.48,356.02,266.92z"/>
	<path class="st0" fill="#ffffff" stroke="#000000" d="M414.27,269.71c0.88-4.5-0.81-7.31-3.83-9.18c-3.86-2.39-7.92-4.45-11.92-6.6c-0.78-0.42-1.67-0.63-3.34-1.25
		c2.02-1.75,3.98-2.92,5.2-4.61c2.94-4.09,5.78-8.29,8.19-12.7c2.15-3.94,3.48-4.82,7.91-3.88c11.71,2.49,19.01,10.02,23.65,20.59
		c0.93,2.12,0.39,4.69-1.64,5.73C430.67,261.8,422.73,265.58,414.27,269.71z"/>
	<path class="st0" fill="#ffffff" stroke="#000000" d="M348,550.34c0,5.69-0.2,11.26,0.04,16.81c0.42,9.41,1.13,18.85,4.08,27.84c3.1,9.47,6.43,18.98,12.58,27.02
		c1.85,2.42,4.48,4.52,7.18,5.95c4.08,2.17,7.64,0.72,9.29-3.61c1.14-2.99,2.03-6.25,2.14-9.42c0.64-18.59-0.92-36.94-7.35-54.57
		c-2.64-7.23-6.56-13.85-11.62-19.67c-1.63-1.88-2.28-3.49-1.07-5.72c0.39-0.72,0.57-1.55,1.09-3.01c2.68,4.39,5.3,8.23,7.47,12.3
		c7.94,14.86,13.74,30.46,15.43,47.37c1.06,10.59,1.05,21.14-1.8,31.48c-0.7,2.53-1.79,5.04-3.14,7.29
		c-2.17,3.61-4.69,4.41-8.74,3.33c-7.55-2.02-12.69-7.09-16.66-13.48c-5.87-9.47-9.05-19.94-10.92-30.85
		c-2.05-11.96-2.31-24.02-2-36.11C344.09,549.97,344.1,549.97,348,550.34z"/>
	<path class="st0" fill="#ffffff" stroke="#000000" d="M450,654.6c-15.92-19.78-29.1-41.08-38.83-65.25c5.25,8.55,9.82,16.67,15.06,24.33
		c5.25,7.68,10.85,15.18,16.93,22.21c2.73,3.16,4.7,6.02,5,10.23C448.36,648.97,449.36,651.77,450,654.6z"/>
	<path class="st0" fill="#ffffff" stroke="#000000" d="M568.09,494.26c5.74-1.45,13.13,1.86,17.76,7.89c-5.84,6.37-13.62,8.84-20,6.19
		C568.7,503.99,569.01,499.2,568.09,494.26z"/>
	<path class="st0" fill="#ffffff" stroke="#000000" d="M125.16,516.78c6.89,31.49,13.68,62.49,20.46,93.49c-0.17,0.09-0.35,0.18-0.52,0.27
		c-33.88-47.51-67.77-95.03-102.01-143.05c13.92,1.77,27.29,3.48,41.16,5.24c-11.25-25.91-22.31-51.39-33.28-76.64
		c4.58,0,8.97-0.16,13.36,0.03c21.55,0.9,43.1,1.92,64.65,2.82c1.39,0.06,2,0.52,2.52,1.76c16.93,40.67,33.91,81.32,50.87,121.98
		c0.22,0.53,0.37,1.08,0.69,2C163.77,522.05,144.77,519.46,125.16,516.78z"/>
	<path class="st0" fill="#ffffff" stroke="#000000" d="M663.36,221.05c14.65,9.15,29.31,18.3,44.16,27.57c12.52-12.07,25.02-24.13,37.52-36.19
		c0.14,0.08,0.29,0.16,0.43,0.24c-4.18,16.8-8.36,33.61-12.58,50.58c15.35,8.17,30.59,16.29,45.83,24.4
		c-0.02,0.19-0.05,0.38-0.07,0.57c-0.93,0.08-1.86,0.18-2.79,0.24c-15.46,1.07-30.91,2.15-46.37,3.17
		c-1.89,0.12-2.82,0.57-3.18,2.76c-2.68,16-5.56,31.97-8.39,47.95c-0.04,0.23-0.18,0.44-0.41,0.99c-0.4-0.73-0.74-1.22-0.96-1.76
		c-6-14.8-12.01-29.59-17.93-44.41c-0.66-1.66-1.32-2.21-3.23-1.93c-15.73,2.32-31.48,4.49-47.23,6.69
		c-0.63,0.09-1.28,0.01-2.51,0.01c3.06-2.58,5.76-4.86,8.46-7.13c9.89-8.3,19.75-16.63,29.7-24.85c1.56-1.29,1.82-2.21,0.87-4.11
		c-6.95-14.01-13.75-28.09-20.59-42.16c-0.36-0.74-0.7-1.49-1.05-2.24C663.14,221.32,663.25,221.18,663.36,221.05z"/>
	<path class="st0" fill="#ffffff" stroke="#000000" d="M650.5,623.41c5.57-18.88,11.02-37.36,16.59-56.25c2.61,2.37,4.99,4.52,7.35,6.69
		c10.74,9.85,21.47,19.71,32.24,29.53c1.02,0.93,1.45,1.67,0.98,3.17c-9.16,29.29-18.24,58.59-27.34,87.9
		c-0.02,0.06-0.11,0.09-0.44,0.35c-9.01-9.91-18.04-19.84-27.28-30c-10.31,19.72-20.46,39.14-30.62,58.57
		c-0.14-0.04-0.29-0.08-0.43-0.12c3.08-40.17,6.15-80.33,9.27-121.06C637.57,609.46,643.89,616.27,650.5,623.41z"/>
	<path class="st0" fill="#ffffff" stroke="#000000" d="M127.37,148.35c1.51-10.33,3.01-20.51,4.53-30.89c-0.63-0.11-1.17-0.29-1.7-0.29
		c-6.33-0.02-12.66,0.04-18.99-0.05c-1.65-0.02-2.06,0.62-2.26,2.15c-1.28,9.64-2.68,19.27-4.06,29.06c-7.2,0-14.32,0-21.71,0
		c0.8-5.65,1.58-11.28,2.4-16.91c2.78-19.02,5.61-38.03,8.33-57.05c0.21-1.46,0.72-2.39,2.06-2.71c3.52-0.85,7.05-2.17,10.6-2.26
		c5.54-0.13,8.45,3.25,8.03,8.8c-0.36,4.72-1.21,9.4-1.85,14.1c-0.37,2.71-0.75,5.42-1.15,8.35c7.59,0,15.03,0,22.74,0
		c0.71-4.88,1.44-9.79,2.15-14.7c0.56-3.87,0.98-7.77,1.72-11.6c0.19-1.01,1.13-2.2,2.06-2.69c3.36-1.75,6.97-2.7,10.83-2.34
		c5.55,0.52,8.56,4.18,7.79,9.71c-2.13,15.33-4.33,30.65-6.52,45.96c-1.11,7.74-2.24,15.48-3.39,23.36
		C141.8,148.35,134.69,148.35,127.37,148.35z"/>
	<path class="st0" fill="#ffffff" stroke="#000000" d="M324.96,140.71c2.31-4.69,4.55-9.22,6.89-13.97c5.26,4.1,11.17,5.9,17.54,5.97c2.69,0.03,5.55-0.26,8.04-1.19
		c4.24-1.57,4.89-6.37,1.32-9.15c-1.92-1.5-4.4-2.26-6.58-3.45c-3.78-2.06-7.79-3.82-11.22-6.36
		c-11.26-8.32-11.34-34.05,7.44-40.78c13.08-4.69,25.71-3.2,37.51,4.32c0.28,0.18,0.54,0.4,0.79,0.61
		c0.12,0.11,0.21,0.25,0.52,0.63c-3.42,4.36-6.88,8.77-10.02,12.77c-3.76-1.36-7.15-3-10.72-3.74c-2.29-0.47-5.03-0.09-7.27,0.73
		c-3.89,1.43-4.38,5.33-1.04,7.78c2.11,1.54,4.62,2.6,7.07,3.59c4.97,2.02,9.86,4.15,13.46,8.3c9.03,10.41,6.35,27.87-5.52,36.38
		c-12.68,9.09-34.81,8.49-46.96-1.28C325.82,141.58,325.48,141.21,324.96,140.71z"/>
	<path class="st0" fill="#ffffff" stroke="#000000" d="M629.15,92.19c6.65,1,12.97,1.95,19.85,2.98c-1.37,5.12-2.44,10.06-4.03,14.83
		c-6.06,18.22-14.49,35.2-26.89,50.01c-5.8,6.93-11.98,11.88-18.62,14.94c-2.43-4.56-4.87-9.14-7.28-13.65
		c2.78-1.93,5.65-3.62,8.16-5.74c2.5-2.12,4.64-4.68,7.23-7.35c-5.96-1.76-7.42-6-8.11-11.03c-1.81-13.27-3.78-26.52-5.83-39.76
		c-0.37-2.41,0.14-3.69,2.6-3.92c4.02-0.38,8.09-1.29,12.05-0.96c5.39,0.45,8.19,4.06,8.22,9.52c0.05,9.49-0.04,18.98-0.07,28.47
		c0,0.94,0,1.89,0.4,2.89C623.07,120.38,626.05,106.42,629.15,92.19z"/>
	<path class="st0" fill="#ffffff" stroke="#000000" d="M716.62,496.19c-1.81-7.94-3.73-15-4.97-22.18c-2.08-12.01-2.85-24.14-1.63-36.32c0.87-8.75,2.57-17.3,7.1-25
		c3.52-5.97,8.42-10.26,15.34-11.88c4.53-1.06,8.21,0.41,10.75,4.35c3.18,4.94,3.98,10.57,4.22,16.24
		c0.25,5.96,0.06,11.94,0.06,17.87c1.19-0.71,2.81-1.78,4.52-2.7c7.52-4.05,15.29-6.69,24.1-5.65
		c10.88,1.28,24.16,18.08,13.21,30.95c-2.94,3.46-6.23,6.76-9.85,9.48c-11.49,8.66-24.57,14.26-38.21,18.49
		C733.42,492.27,725.37,493.96,716.62,496.19z"/>
	<path class="st0" fill="#ffffff" stroke="#000000" d="M442.26,146.22c-4.75,2.26-9.52,3.84-14.74,3.24c-3.6-0.41-6.12-3.57-6.44-7.82
		c-0.09-1.21-0.01-2.43-0.01-4.13c-1.79,2.38-3.15,4.42-4.75,6.28c-4.3,5-9.86,6.67-16.21,5.49c-5.94-1.1-9.55-5.75-9.48-12.89
		c0.05-5.47,0.81-10.94,1.51-16.38c0.99-7.76,2.19-15.49,3.4-23.22c0.12-0.8,0.83-1.96,1.49-2.14c3.68-1,7.39-2.14,11.15-2.48
		c5.74-0.52,8.6,2.78,7.76,8.46c-1.16,7.9-2.48,15.78-3.68,23.68c-0.25,1.64-0.55,3.35-0.32,4.96c0.19,1.32,0.96,3.42,1.78,3.58
		c1.56,0.31,3.76-0.03,4.94-1.01c1.35-1.12,2.29-3.13,2.68-4.92c1.39-6.42,2.51-12.89,3.64-19.36c0.63-3.61,1-7.26,1.64-10.86
		c0.13-0.76,0.79-1.85,1.41-2.02c3.68-1,7.38-2.17,11.14-2.51c5.72-0.52,8.56,2.73,7.76,8.47c-1.48,10.55-3.13,21.07-4.68,31.61
		C441.58,136.86,440.6,141.47,442.26,146.22z"/>
	<path class="st0" fill="#ffffff" stroke="#000000" d="M119.84,703.13c7.41,4.62,14.82,9.24,22.26,13.88c6.43-6.19,12.76-12.29,19.59-18.87
		c-2.09,8.42-3.94,16.18-5.99,23.88c-0.53,1.99-0.1,2.9,1.74,3.84c7.04,3.58,13.97,7.35,20.92,11.52
		c-8.71,0.62-17.41,1.25-26.34,1.89c-1.54,8.65-3.07,17.24-4.72,26.5c-0.6-1.29-1-2.03-1.31-2.8c-2.69-6.63-5.44-13.23-7.98-19.91
		c-0.72-1.9-1.68-2.23-3.54-1.94c-7.57,1.18-15.16,2.21-22.74,3.28c-0.29,0.04-0.59,0.01-1.42,0.01c3.87-3.25,7.35-6.18,10.83-9.11
		c2.74-2.3,5.44-4.67,8.25-6.88c1.2-0.95,1.38-1.7,0.68-3.09c-3.22-6.39-6.31-12.84-9.44-19.27c-0.42-0.87-0.8-1.76-1.19-2.65
		C119.58,703.31,119.71,703.22,119.84,703.13z"/>
	<path class="st0" fill="#ffffff" stroke="#000000" d="M108.81,286.64c-20.59-3.71-39.72-10.22-56.37-22.81c-4.54-3.44-8.56-7.53-10.31-13.17
		c-2.66-8.55,4.47-19.7,13.78-21.66c7.8-1.64,14.77,0.94,21.51,4.47c1.68,0.88,3.25,1.97,5.32,3.25c-0.19-2.09-0.38-3.84-0.5-5.59
		c-0.49-7.17-0.58-14.32,1.69-21.26c0.51-1.56,1.2-3.13,2.1-4.49c2.21-3.34,5.42-4.53,9.33-3.56c8.14,2.02,12.63,7.88,15.65,15.18
		c2.99,7.25,4.07,14.92,4.37,22.68c0.58,14.92-1.28,29.56-5.46,43.9C109.66,284.51,109.26,285.42,108.81,286.64z"/>
	<path class="st0" fill="#ffffff" stroke="#000000" d="M196.96,261.07c-2.1,8.5-4.09,16.52-6.12,24.74c7.32,3.91,14.56,7.77,21.79,11.64c0,0.16,0.01,0.32,0.01,0.47
		c-1.64,0.16-3.28,0.37-4.92,0.48c-5.82,0.4-11.63,0.82-17.45,1.11c-1.78,0.09-2.58,0.59-2.88,2.52
		c-1.04,6.82-2.33,13.61-3.54,20.41c-0.11,0.62-0.31,1.22-0.62,2.38c-2.69-6.62-5.19-12.75-7.68-18.89
		c-1.87-4.59-1.87-4.63-6.81-3.97c-6.51,0.86-13.01,1.79-19.78,2.25c0.64-0.57,1.26-1.16,1.91-1.71
		c5.04-4.23,10.02-8.53,15.15-12.64c1.58-1.27,1.63-2.27,0.77-3.95c-2.91-5.71-5.67-11.49-8.47-17.24
		c-0.46-0.94-0.88-1.9-1.63-3.54c5.17,3.22,9.72,6.05,14.26,8.88c1.84,1.14,3.74,2.2,5.48,3.47c1.46,1.06,2.39,1.02,3.74-0.34
		c5.1-5.14,10.37-10.12,15.58-15.15C196,261.77,196.28,261.6,196.96,261.07z"/>
	<path class="st0" fill="#ffffff" stroke="#000000" d="M217.18,107.96c14.05,7.35,10.61,26.01,0.69,33.48c-6.49,4.88-13.88,7.48-21.77,7.78
		c-11.04,0.41-22.1-0.09-33.56-0.2c3.74-26.64,7.38-52.61,11.06-78.87c8.39-0.3,16.62-0.81,24.85-0.82
		c4.88-0.01,9.87,0.23,14.62,1.26c14.33,3.12,19.69,16.06,11.86,28.58C222.86,102.48,219.73,105.11,217.18,107.96z M186.79,133.04
		c3.05,0,5.64,0.24,8.17-0.06c3.73-0.43,6.49-2.44,7.74-6.12c1.53-4.51-0.79-9.38-4.81-9.81c-2.85-0.3-5.77-0.06-8.8-0.06
		C188.32,122.35,187.57,127.56,186.79,133.04z M191.27,101.1c3.46-0.74,6.45-0.98,9.12-2.05c3.31-1.32,4.93-5.91,3.96-9.58
		c-0.7-2.65-2.91-3.88-6.99-3.89c-1.23-0.01-2.45,0-3.81,0C192.8,90.65,192.11,95.39,191.27,101.1z"/>
	<path class="st0" fill="#ffffff" stroke="#000000" d="M468.03,173.72c-7.1,0-13.91,0-20.96,0c0.73-5.24,1.44-10.33,2.15-15.41c2.6-18.53,5.2-37.07,7.81-55.6
		c0.1-0.74,0.41-1.49,0.35-2.21c-0.46-4.84,2.31-6.74,6.56-7.37c2.14-0.32,4.25-0.85,6.4-1.01c3.72-0.26,6.01,1.58,6.66,5.26
		c0.31,1.75,0.37,3.54,0.58,5.76c1.19-1.71,2.07-3.09,3.06-4.37c4.01-5.18,9.27-7.59,15.76-6.38c6.71,1.25,10.81,5.61,12.61,12.06
		c4.13,14.77-4.04,34.05-17.47,41.25c-5.55,2.97-11.58,4.14-17.84,3.85c-1.96-0.09-2.53,0.61-2.75,2.47
		C470.09,159.19,469.04,166.35,468.03,173.72z M473.31,134.29c4.74,0.86,8.56-0.19,11.05-4.19c3.49-5.62,4.31-11.82,2.96-18.2
		c-0.28-1.31-1.82-2.75-3.13-3.36c-1.81-0.84-3.55,0.12-4.74,1.77c-0.38,0.53-0.74,1.11-0.99,1.71
		C475.41,119.12,474.65,126.72,473.31,134.29z"/>
	<path class="st0" fill="#ffffff" stroke="#000000" d="M232.91,149.01c0.99-7.16,1.87-13.57,2.76-19.98c2.62-18.71,5.27-37.41,7.83-56.13
		c0.27-1.97,0.84-2.9,3.02-2.92c8.57-0.08,17.16-0.7,25.71-0.36c4.47,0.18,9.07,1.42,13.27,3.07c9.27,3.64,14.91,10.77,16.9,20.46
		c2.3,11.26,0.99,22.28-3.93,32.66c-7.05,14.86-19.53,22.27-35.46,23.45C253.18,149.98,243.23,149.15,232.91,149.01z
		 M257.18,132.89c6.57,1.38,13.77-1.93,17.95-8.5c5.38-8.45,6.94-17.79,5.16-27.56c-1.36-7.49-6.92-11.51-14.54-11.28
		c-1.55,0.05-2.13,0.54-2.33,2.14c-0.83,6.61-1.83,13.19-2.75,19.78C259.51,115.95,258.35,124.43,257.18,132.89z"/>
	<path class="st0" fill="#ffffff" stroke="#000000" d="M680.92,138.96c-1.04,1.48-1.81,2.63-2.63,3.75c-4.03,5.51-9.54,7.84-16.15,6.63
		c-6.59-1.21-10.65-5.64-12.48-11.95c-5.5-19.04,7.71-40.76,27.08-44.56c2.59-0.51,5.29-0.76,7.94-0.7
		c7.72,0.17,15.44,0.56,23.44,0.88c-0.81,5.61-1.56,10.87-2.34,16.11c-1.39,9.38-2.89,18.75-4.13,28.16
		c-0.38,2.9-0.06,5.88-0.06,9.76c-3.22,0.71-7.27,2-11.41,2.44c-5.27,0.56-8.27-2.23-8.98-7.47
		C681.09,141.12,681.04,140.25,680.92,138.96z M685.2,107.55c-4.83-1.1-8.44,0.27-10.97,4.22c-3.29,5.15-3.73,10.92-3.2,16.81
		c0.2,2.27,1.07,4.24,3.6,4.81c2.17,0.49,4.12-0.57,5.3-3.19C683.19,122.99,683.93,115.21,685.2,107.55z"/>
	<path class="st0" fill="#ffffff" stroke="#000000" d="M513.64,148.41c2.23-16.35,4.39-32.42,6.65-48.49c0.83-5.94,0.94-5.94,6.92-7.23
		c1.14-0.25,2.3-0.42,3.45-0.53c5.24-0.5,8.6,2.2,9.35,7.45c0.1,0.68,0.22,1.37,0.63,2.18c2.91-4.2,5.16-9.19,10.98-9.54
		c2.89-0.17,5.85,0.64,9.31,1.07c-1.59,3.58-2.88,6.5-4.19,9.42c-1.28,2.88-2.57,5.75-3.91,8.74c-0.58-0.23-1.02-0.41-1.46-0.58
		c-4.98-1.87-8.8-0.55-10.32,4.55c-1.94,6.5-3.17,13.23-4.49,19.9c-0.85,4.3-1.32,8.68-1.97,13.06
		C527.54,148.41,520.73,148.41,513.64,148.41z"/>
	<path class="st0" fill="#ffffff" stroke="#000000" d="M586.72,93.15c-0.83,6.12-1.59,11.79-2.39,17.46c-1.24,8.81-2.61,17.6-3.7,26.43
		c-0.37,2.99-0.06,6.07-0.06,9.5c-4.15,2.1-9.05,3.48-14.34,2.94c-4.15-0.43-6.84-3.19-6.67-7.6c0.19-4.97,0.94-9.92,1.59-14.86
		c1.38-10.47,2.91-20.92,4.25-31.39c0.24-1.84,0.7-2.57,2.7-2.53C574.16,93.24,580.23,93.15,586.72,93.15z"/>
	<path class="st0" fill="#ffffff" stroke="#000000" d="M737.01,118.04c-6.38,0-12.45,0-18.52,0c-0.57,0-1.15,0-2.04,0c2.05-15.92,4.07-31.62,6.11-47.5
		c7.09,0,14.11,0,21.3,0C741.58,86.4,739.31,102.09,737.01,118.04z"/>
	<path class="st0" fill="#ffffff" stroke="#000000" d="M723.03,149.58c-7.15,0.02-11.11-3.72-11.11-10.48c0-8.22,4.83-13.15,12.93-13.18
		c7.1-0.03,11.28,3.82,11.29,10.39C736.16,144.63,731.29,149.56,723.03,149.58z"/>
	<path class="st0" fill="#ffffff" stroke="#000000" d="M578.07,85.14c-6.51,0-10.36-3.4-10.41-9.18c-0.06-7.51,4.82-12.47,12.26-12.45
		c6.47,0.02,10.16,3.42,10.17,9.36C590.09,80.5,585.55,85.14,578.07,85.14z"/>
	<path d="M457.27,465.06c4.14-2.2,8.18-4.61,12.43-6.55c13.34-6.07,26.66-5.58,39.32,1.63c7.78,4.43,15,9.83,22.4,14.91
		c1.97,1.35,2.29,4.41,1.01,6.25c-1.3,1.88-3.03,2.32-5.5,0.93c-2.31-1.29-4.5-2.83-6.62-4.44c-8.17-6.22-17.34-10.45-26.97-13.82
		c-6.9-2.41-13.86-1.03-20.78-0.24c-5.01,0.58-9.98,1.45-14.97,2.18C457.5,465.64,457.39,465.35,457.27,465.06z"/>
	<path d="M503.85,502.26c-5.83-0.06-11.42-1.11-16.84-3.26c-8.96-3.55-18.39-5.15-27.88-6.53c-0.95-0.14-1.82-0.8-2.73-1.22
		c0.64-0.78,1.14-1.77,1.95-2.31c8.05-5.37,16.68-9.35,26.37-10.68c8.61-1.19,16.18,1.29,22.65,6.93
		c4.43,3.86,5.91,9.13,5.88,14.84c0,0.5-0.89,1.36-1.46,1.44C509.16,501.85,506.5,502.01,503.85,502.26z M489.03,481.68
		c0.21,8.12,0.16,8.29-4.38,15.14c8.45,3.39,16.92,5.88,26.05,3.07C509.35,489.5,499.01,480.83,489.03,481.68z"/>
	<path d="M554.58,578.16c-0.2,2.22-0.37,4.09-0.59,6.53c3.62-5.55,3.82-11.29,3.68-17.12c0.24,0.03,0.48,0.05,0.72,0.08
		c0,2.78,0.12,5.58-0.05,8.35c-0.09,1.47-0.45,3.03-1.12,4.33c-3.5,6.87-6.63,14.01-10.86,20.41
		c-6.29,9.53-15.42,14.05-27.13,12.86c-8.32-0.84-16.49-2.14-24.34-5.12c-13.04-4.96-22.06-13.91-26.96-27.02
		c-1.44-3.85-3.07-7.63-4.72-11.71c3.03,0.41,6.01,0.99,9.03,1.19c6.89,0.44,13.82,0.49,20.7,1.08c12.47,1.06,24.8,3.05,36.45,7.84
		c3.23,1.33,5.88,1.56,9.15,0.33C543.54,578.3,548.87,577.89,554.58,578.16z M466.86,575.34c0.36,1.16,0.52,1.7,0.69,2.23
		c4.22,13.06,11.93,23.12,24.75,28.77c8.71,3.84,17.91,5.51,27.34,6.29c5.1,0.42,10.02,0.02,14.56-2.39
		c11.82-6.26,16.81-17.03,19.16-29.46c-0.48,0.35-0.75,0.84-1.09,1.27c-3,3.87-5.71,8.01-9.08,11.53
		c-4.49,4.7-9.85,8.32-16.69,8.56c-3.06,0.1-6.16-0.23-9.2-0.63C497.61,598.92,480.27,591.69,466.86,575.34z M466.96,571.6
		c-0.11,0.27-0.22,0.54-0.32,0.82c1.94,4.06,6.54,9.16,12.37,13.46c13.13,9.67,28.09,14.03,44.17,15.21
		c11.3,0.83,17.9-6.24,24.72-14.05c-0.77,0-1.03-0.07-1.23,0.01c-5.71,2.23-11.65,2.5-17.68,2.12
		c-11.31-0.72-22.11-3.63-32.74-7.34C486.49,578.43,476.72,575.02,466.96,571.6z M472.54,572.21c7.33,2.66,15.48,5.67,23.68,8.56
		c12.06,4.25,24.34,7.51,37.25,7.55c4.93,0.02,9.8-0.57,14.3-2.9c2.56-1.32,3.71-3.54,4.73-6.87c-4.75,0.86-9.11,1.23-13.16,2.52
		c-3.81,1.21-7.23,1.96-10.74-0.52c-0.79-0.56-1.84-0.74-2.79-1.06C508.22,573.55,490,572.3,472.54,572.21z"/>
	<path d="M576.6,518.79c-7.11,2.53-13.89,1.48-20.43-1.96C562.83,519.11,569.58,520.4,576.6,518.79z"/>
	<path d="M469.9,502.12c6.7,2.08,13.05,4.06,19.29,6C486.42,508.92,473.79,505.14,469.9,502.12z"/>
	<path d="M186.79,133.04c0.78-5.48,1.53-10.69,2.3-16.04c3.04,0,5.95-0.24,8.8,0.06c4.02,0.42,6.34,5.3,4.81,9.81
		c-1.24,3.67-4.01,5.69-7.74,6.12C192.43,133.28,189.84,133.04,186.79,133.04z M187.88,132.4c3.04-0.25,5.78-0.21,8.4-0.76
		c2.75-0.57,4.68-2.47,5.53-5.23c1.26-4.12-0.85-8.15-4.51-8.43c-2.38-0.18-4.79-0.03-7.35-0.03
		C189.27,122.7,188.62,127.27,187.88,132.4z"/>
	<path d="M191.27,101.1c0.84-5.71,1.53-10.46,2.28-15.52c1.36,0,2.59,0,3.81,0c4.09,0.02,6.29,1.25,6.99,3.89
		c0.97,3.66-0.65,8.26-3.96,9.58C197.72,100.12,194.72,100.36,191.27,101.1z M192.59,99.22c3.21,0.53,5.89,0.08,7.97-1.31
		c2.57-1.71,3.84-6.26,2.5-8.94c-0.95-1.91-5.32-3.24-7.86-2.27c-0.48,0.18-0.96,0.91-1.05,1.45
		C193.58,91.83,193.1,95.53,192.59,99.22z"/>
	<path d="M473.31,134.29c1.35-7.57,2.11-15.17,5.14-22.27c0.26-0.6,0.61-1.18,0.99-1.71c1.18-1.65,2.93-2.61,4.74-1.77
		c1.32,0.61,2.85,2.05,3.13,3.36c1.36,6.38,0.53,12.59-2.96,18.2C481.87,134.1,478.04,135.15,473.31,134.29z M473.99,133.24
		c4.38,0.81,7.37-0.37,9.35-3.44c3.5-5.44,4.28-11.48,3.01-17.73c-0.21-1.02-1.59-2.39-2.57-2.52c-1.12-0.15-2.47,0.81-3.59,1.49
		c-0.49,0.3-0.82,1.08-0.98,1.7C477.46,119.53,475.74,126.33,473.99,133.24z"/>
	<path d="M257.18,132.89c1.17-8.46,2.33-16.94,3.51-25.42c0.92-6.59,1.92-13.18,2.75-19.78c0.2-1.6,0.77-2.09,2.33-2.14
		c7.61-0.23,13.17,3.79,14.54,11.28c1.78,9.77,0.21,19.11-5.16,27.56C270.96,130.96,263.75,134.27,257.18,132.89z M264.58,86.87
		c-2.1,15.12-4.19,30.12-6.29,45.27c5.3,0.25,9.64-1.13,12.88-4.65c8.61-9.35,10.49-20.54,7.51-32.49
		C277.15,88.83,271.27,85.83,264.58,86.87z"/>
	<path d="M685.2,107.55c-1.27,7.66-2.01,15.44-5.26,22.65c-1.18,2.62-3.13,3.68-5.3,3.19c-2.53-0.57-3.4-2.54-3.6-4.81
		c-0.52-5.89-0.09-11.66,3.2-16.81C676.76,107.82,680.37,106.45,685.2,107.55z M684.1,108.49c-4.67-0.84-7.97,1.05-10.09,5.66
		c-2.1,4.58-2.49,9.43-1.98,14.37c0.18,1.79,0.77,3.51,2.88,3.88c2.2,0.39,3.39-1,4.19-2.77
		C682.13,122.89,682.75,115.61,684.1,108.49z"/>
	<path class="st0" fill="#ffffff" stroke="#000000" d="M489.03,481.68c9.98-0.84,20.32,7.82,21.67,18.21c-9.14,2.81-17.6,0.33-26.05-3.07
		C489.19,489.96,489.24,489.8,489.03,481.68z"/>
	<path class="st0" fill="#ffffff" stroke="#000000" d="M466.86,575.34c13.41,16.35,30.75,23.59,50.46,26.17c3.05,0.4,6.14,0.74,9.2,0.63
		c6.83-0.23,12.19-3.85,16.69-8.56c3.36-3.52,6.08-7.66,9.08-11.53c0.34-0.44,0.61-0.93,1.09-1.27
		c-2.35,12.43-7.34,23.2-19.16,29.46c-4.54,2.4-9.46,2.81-14.56,2.39c-9.43-0.78-18.63-2.46-27.34-6.29
		c-12.82-5.65-20.53-15.71-24.75-28.77C467.38,577.03,467.22,576.5,466.86,575.34z"/>
	<path class="st0" fill="#ffffff" stroke="#000000" d="M466.96,571.6c9.76,3.41,19.53,6.82,29.29,10.23c10.63,3.71,21.43,6.62,32.74,7.34
		c6.03,0.38,11.97,0.12,17.68-2.12c0.2-0.08,0.46-0.01,1.23-0.01c-6.82,7.81-13.43,14.88-24.72,14.05
		c-16.08-1.19-31.04-5.54-44.17-15.21c-5.83-4.3-10.44-9.4-12.37-13.46C466.75,572.15,466.85,571.88,466.96,571.6z"/>
	<path class="st0" fill="#ffffff" stroke="#000000" d="M472.54,572.21c17.46,0.09,35.68,1.34,53.26,7.27c0.95,0.32,2,0.51,2.79,1.06c3.51,2.48,6.93,1.73,10.74,0.52
		c4.06-1.29,8.41-1.65,13.16-2.52c-1.02,3.33-2.18,5.55-4.73,6.87c-4.5,2.32-9.37,2.91-14.3,2.9c-12.9-0.04-25.19-3.3-37.25-7.55
		C488.02,577.88,479.87,574.86,472.54,572.21z"/>
	<path class="st0" fill="#ffffff" stroke="#000000" d="M187.88,132.4c0.74-5.14,1.39-9.7,2.08-14.46c2.56,0,4.97-0.15,7.35,0.03c3.66,0.28,5.76,4.31,4.51,8.43
		c-0.85,2.77-2.78,4.66-5.53,5.23C193.66,132.19,190.92,132.16,187.88,132.4z"/>
	<path class="st0" fill="#ffffff" stroke="#000000" d="M192.59,99.22c0.51-3.69,0.99-7.39,1.57-11.08c0.09-0.54,0.57-1.27,1.05-1.45c2.54-0.96,6.91,0.36,7.86,2.27
		c1.34,2.69,0.07,7.23-2.5,8.94C198.48,99.3,195.81,99.75,192.59,99.22z"/>
	<path class="st0" fill="#ffffff" stroke="#000000" d="M473.99,133.24c1.75-6.91,3.47-13.71,5.23-20.5c0.16-0.62,0.49-1.4,0.98-1.7c1.12-0.68,2.46-1.64,3.59-1.49
		c0.98,0.13,2.36,1.5,2.57,2.52c1.26,6.25,0.48,12.3-3.01,17.73C481.36,132.87,478.36,134.05,473.99,133.24z"/>
	<path class="st0" fill="#ffffff" stroke="#000000" d="M264.58,86.87c6.69-1.04,12.57,1.96,14.1,8.12c2.98,11.95,1.1,23.14-7.51,32.49
		c-3.24,3.52-7.58,4.9-12.88,4.65C260.4,116.99,262.48,101.99,264.58,86.87z"/>
	<path class="st0" fill="#ffffff" stroke="#000000" d="M684.1,108.49c-1.34,7.13-1.96,14.4-5,21.14c-0.8,1.77-1.99,3.16-4.19,2.77c-2.1-0.37-2.69-2.09-2.88-3.88
		c-0.51-4.94-0.12-9.79,1.98-14.37C676.13,109.53,679.43,107.65,684.1,108.49z"/>

</g>
</svg>
