<svg width="24" height="24" viewBox="0 0 24 24" fill="none" xmlns="http://www.w3.org/2000/svg">
<path d="M19.3921 19.0462H6.62685C6.26352 19.0462 5.96898 19.3407 5.96898 19.7041C5.96898 20.0674 6.26352 20.3619 6.62685 20.3619H19.3921C19.7554 20.3619 20.05 20.0674 20.05 19.7041C20.05 19.3407 19.7554 19.0462 19.3921 19.0462Z" fill="black" stroke="black" stroke-width="0.1"/>
<path d="M7.06242 17.308L7.07711 17.3229H7.09805H12.9275H12.9482L12.9629 17.3082L19.4427 10.8284C19.4427 10.8284 19.4427 10.8284 19.4428 10.8284C19.5604 10.7108 19.6538 10.5712 19.7175 10.4176C19.7812 10.2639 19.814 10.0992 19.814 9.93287C19.814 9.76653 19.7812 9.60183 19.7175 9.44817C19.6538 9.29451 19.5604 9.15491 19.4427 9.03736L19.4074 9.07274L19.4427 9.03736L14.6224 4.22308L14.587 4.25842L14.6223 4.22304L14.6223 4.22306C14.5048 4.10538 14.3652 4.01203 14.2116 3.94834C14.0579 3.88464 13.8932 3.85186 13.7269 3.85186C13.5605 3.85186 13.3958 3.88464 13.2422 3.94834C13.0885 4.01203 12.9489 4.10539 12.8314 4.22306C12.8314 4.22307 12.8314 4.22307 12.8314 4.22308L4.32122 12.7332C4.20354 12.8508 4.11018 12.9904 4.04648 13.144C3.98279 13.2977 3.95 13.4624 3.95 13.6287C3.95 13.7951 3.98279 13.9598 4.04648 14.1134C4.11015 14.267 4.20346 14.4065 4.32106 14.5241C4.32112 14.5241 4.32117 14.5242 4.32122 14.5242L7.06242 17.308ZM13.781 14.6047L12.402 16.0072H7.64761L5.26613 13.6257L9.03109 9.86071L13.781 14.6047ZM14.7087 13.7009L9.96482 8.95107L13.7059 5.18618L18.4976 9.93595L14.7087 13.7009Z" fill="black" stroke="black" stroke-width="0.1"/>
</svg>
