<svg width="24" height="24" viewBox="0 0 24 24" fill="none" xmlns="http://www.w3.org/2000/svg">
<path d="M13.449 16.6952L13.4489 16.6953L13.4503 16.6969C13.7708 17.0642 13.95 17.5247 13.95 18C13.95 18.5172 13.7446 19.0132 13.3789 19.3789C13.0132 19.7446 12.5172 19.95 12 19.95C7.61961 19.95 4.05 16.3804 4.05 12C4.05 7.61961 7.61961 4.05 12 4.05C16.3855 4.05 19.95 7.26444 19.95 11.2C19.95 13.8204 17.8204 15.95 15.2 15.95H13.784C13.5324 15.95 13.334 16.1484 13.334 16.4C13.334 16.5107 13.3803 16.6094 13.449 16.6952ZM12.45 18L12.45 17.9988C12.4472 17.883 12.4029 17.7721 12.325 17.6864L12.288 17.72L12.3253 17.6867C12.0056 17.328 11.834 16.8678 11.834 16.4C11.834 15.8828 12.0394 15.3868 12.4051 15.0211C12.7708 14.6554 13.2668 14.45 13.784 14.45H15.2C16.9956 14.45 18.45 12.9956 18.45 11.2C18.45 8.07832 15.5491 5.55 12 5.55C8.44439 5.55 5.55 8.44439 5.55 12C5.55 15.5556 8.44439 18.45 12 18.45C12.2516 18.45 12.45 18.2516 12.45 18Z" fill="black" stroke="white" stroke-width="0.1"/>
<path d="M7.60002 12.7999C8.26277 12.7999 8.80002 12.2626 8.80002 11.5999C8.80002 10.9372 8.26277 10.3999 7.60002 10.3999C6.93728 10.3999 6.40002 10.9372 6.40002 11.5999C6.40002 12.2626 6.93728 12.7999 7.60002 12.7999Z" fill="black"/>
<path d="M9.99999 9.6002C10.6627 9.6002 11.2 9.06294 11.2 8.4002C11.2 7.73745 10.6627 7.2002 9.99999 7.2002C9.33725 7.2002 8.79999 7.73745 8.79999 8.4002C8.79999 9.06294 9.33725 9.6002 9.99999 9.6002Z" fill="black"/>
<path d="M14 9.6002C14.6627 9.6002 15.2 9.06294 15.2 8.4002C15.2 7.73745 14.6627 7.2002 14 7.2002C13.3372 7.2002 12.8 7.73745 12.8 8.4002C12.8 9.06294 13.3372 9.6002 14 9.6002Z" fill="black"/>
<path d="M16.4 12.7999C17.0628 12.7999 17.6 12.2626 17.6 11.5999C17.6 10.9372 17.0628 10.3999 16.4 10.3999C15.7373 10.3999 15.2 10.9372 15.2 11.5999C15.2 12.2626 15.7373 12.7999 16.4 12.7999Z" fill="black"/>
</svg>
