<svg width="24" height="24" viewBox="0 0 24 24" fill="none" xmlns="http://www.w3.org/2000/svg">
<path d="M5.44898 17.7518C7.17493 17.7518 8.55102 17.0843 9.57726 15.7494C9.57726 15.6557 9.51895 15.5738 9.40233 15.5035L8.73761 14.1686C8.4344 14.8009 7.98542 15.3103 7.39067 15.6967C6.79592 16.0831 6.14869 16.2763 5.44898 16.2763H3.73469C3.5481 16.2763 3.37901 16.3525 3.22741 16.5047C3.0758 16.6569 3 16.8267 3 17.0141C3 17.2014 3.0758 17.3712 3.22741 17.5234C3.37901 17.6756 3.5481 17.7518 3.73469 17.7518H5.44898ZM18.4636 5.2459C18.0904 4.91803 17.7405 4.91803 17.414 5.2459C17.0641 5.59719 17.0641 5.94848 17.414 6.29977L18.3586 7.28337H15.4548C13.7522 7.28337 12.3878 7.95082 11.3615 9.28571C11.3615 9.35597 11.4082 9.43794 11.5015 9.53162L12.1662 10.8665C12.4694 10.2342 12.9184 9.72482 13.5131 9.33841C14.1079 8.95199 14.7551 8.75878 15.4548 8.75878H18.3586L17.414 9.74239C17.0641 10.0937 17.0641 10.445 17.414 10.7963C17.5539 10.9368 17.7289 11.007 17.9388 11.007C18.102 11.007 18.277 10.9368 18.4636 10.7963L20.7026 8.54801C21.0058 8.19672 21.0058 7.84543 20.7026 7.49415L18.4636 5.2459ZM18.4636 14.2389C18.0904 13.911 17.7405 13.911 17.414 14.2389C17.0641 14.5902 17.0641 14.9415 17.414 15.2927L18.3586 16.2763H15.4548C14.7551 16.2763 14.102 16.0831 13.4956 15.6967C12.8892 15.3103 12.4227 14.8009 12.0962 14.1686L11.2915 12.5176L10.4519 10.8665L10.102 10.1991C9.68222 9.30913 9.05248 8.6007 8.21283 8.07377C7.37318 7.54684 6.4519 7.28337 5.44898 7.28337H3.73469C3.5481 7.28337 3.37901 7.35948 3.22741 7.51171C3.0758 7.66393 3 7.83372 3 8.02108C3 8.20843 3.0758 8.37822 3.22741 8.53044C3.37901 8.68267 3.5481 8.75878 3.73469 8.75878H5.44898C6.94169 8.75878 8.06122 9.46136 8.80758 10.8665L9.64723 12.5176L10.4519 14.1686L10.8367 14.8361C11.3032 15.726 11.9504 16.4344 12.7784 16.9614C13.6064 17.4883 14.5219 17.7518 15.5248 17.7518H18.4636L17.484 18.7354C17.1341 19.0867 17.1341 19.4379 17.484 19.7892C17.6239 19.9297 17.7988 20 18.0087 20C18.1953 20 18.3703 19.9297 18.5335 19.7892L20.7726 17.541C21.0758 17.1897 21.0758 16.8384 20.7726 16.4871L18.4636 14.2389Z" fill="black"/>
</svg>
